<svg xmlns="http://www.w3.org/2000/svg" viewBox="0 0 64 64"><g id="_13-alcohol" data-name="13-alcohol"><path d="M57,22c0,4.01-.18,8.02-.55,12a131.485,131.485,0,0,1-4.27,23.34L52,58H42l-.18-.66A131.485,131.485,0,0,1,37.55,34c-.34-3.71-.52-8.27-.55-12Z" style="fill:#efdb96"/><path d="M37,22.83c.03,3.73.21,7.46.55,11.17a131.485,131.485,0,0,0,4.27,23.34L42,58h3l-.18-.66A131.485,131.485,0,0,1,40.55,34c-.34-3.71-.52-7.44-.55-11.17Z" style="fill:#dbc072"/><polygon points="54 63 40 63 42 58 52 58 54 63" style="fill:#e0ca8c"/><rect x="13" y="1" width="8" height="3" style="fill:#692b1c"/><rect x="13" y="4" width="8" height="3" style="fill:#b95a3a"/><path d="M28,55v5.341A2.66,2.66,0,0,1,25.341,63H8.659A2.66,2.66,0,0,1,6,60.341V55Z" style="fill:#56b348"/><path d="M12.659,59A2.66,2.66,0,0,1,10,56.341V55H6v5.341A2.66,2.66,0,0,0,8.659,63H25.341A2.66,2.66,0,0,0,28,60.341V59Z" style="fill:#4ba03c"/><polygon points="26 27 8 27 12.857 7 21.143 7 26 27" style="fill:#56b348"/><polygon points="12.857 7 8 27 12 27 16.857 7 12.857 7" style="fill:#4ba03c"/><path d="M56.45,34a131.485,131.485,0,0,1-4.27,23.34L52,58H42l-.18-.66A131.485,131.485,0,0,1,37.55,34Z" style="fill:#4a8a3e"/><path d="M43.344,48.548C42.335,43.793,41.163,37.825,40.755,34H37.55a131.485,131.485,0,0,0,4.27,23.34L42,58H52s.418-1.553.537-2h0A9.4,9.4,0,0,1,43.344,48.548Z" style="fill:#417f34"/><path d="M57,22H51v6.5A1.5,1.5,0,0,1,49.5,30h0A1.5,1.5,0,0,1,48,28.5V23H45v2.5A1.5,1.5,0,0,1,43.5,27h0A1.5,1.5,0,0,1,42,25.5V23H38.214a4.144,4.144,0,0,1-4.2-3.715,3.988,3.988,0,0,1,3.764-4.262,4.53,4.53,0,0,1-.615-3.735,4.442,4.442,0,0,1,3.218-3.152,4.489,4.489,0,0,1,5.412,3.071,3.844,3.844,0,0,1,3.549.56A3.482,3.482,0,0,1,51.33,11a3.244,3.244,0,0,1,2.43,1.018c1.379,1.385,1.365,2.445,1.1,3.4a3.384,3.384,0,0,1,2.78-.227A3.5,3.5,0,0,1,57,21.965Z" style="fill:#afda91"/><rect x="5" y="27" width="24" height="28" rx="2.814" style="fill:#ffa540"/><rect x="5" y="31" width="24" height="20" rx="2.814" style="fill:#d8822e"/><path d="M8.858,39.644a2.168,2.168,0,0,0,.234,3.039,2.645,2.645,0,0,0,.633.468,2.64,2.64,0,0,0-.633.467,2.168,2.168,0,0,0-.234,3.039,2.168,2.168,0,0,0,3.039-.233l3.272-3.273L11.9,39.878A2.169,2.169,0,0,0,8.858,39.644Z" style="fill:#7ac147"/><path d="M25.481,46.657a2.168,2.168,0,0,0-.234-3.039,2.625,2.625,0,0,0-.634-.467,2.63,2.63,0,0,0,.634-.468,2.168,2.168,0,0,0,.234-3.039,2.169,2.169,0,0,0-3.039.234l-3.273,3.273,3.273,3.273A2.168,2.168,0,0,0,25.481,46.657Z" style="fill:#7ac147"/><path d="M13.663,34.839a2.169,2.169,0,0,1,3.039.234,2.645,2.645,0,0,1,.467.634,2.649,2.649,0,0,1,.468-.634,2.169,2.169,0,0,1,3.039-.234,2.168,2.168,0,0,1-.234,3.039l-3.273,3.273L13.9,37.878A2.168,2.168,0,0,1,13.663,34.839Z" style="fill:#4a8a3e"/><path d="M26.8,26.062l-1.186-4.884a1,1,0,0,0-1.208-.736h0a1,1,0,0,0-.735,1.208L24.728,26H9.272L13.643,8h6.714l2.336,9.619a1,1,0,0,0,1.943-.472L22.115,6.764A1.006,1.006,0,0,0,22,6.5V1a1,1,0,0,0-1-1H13a1,1,0,0,0-1,1V6.5a1.006,1.006,0,0,0-.115.266L7.2,26.062A3.812,3.812,0,0,0,4,29.814V52.186A3.815,3.815,0,0,0,7.814,56H26.186A3.831,3.831,0,0,0,27,55.908v4.433A1.659,1.659,0,0,1,25.341,62H8.659A1.659,1.659,0,0,1,7,60.341V59a1,1,0,0,0-2,0v1.341A3.659,3.659,0,0,0,8.659,64H25.341A3.659,3.659,0,0,0,29,60.341v-5.6a3.783,3.783,0,0,0,1-2.552V29.814A3.812,3.812,0,0,0,26.8,26.062ZM20,2V3H19a1,1,0,0,0-1,1h0a1,1,0,0,0,1,1h1V6H14V5h2a1,1,0,0,0,1-1h0a1,1,0,0,0-1-1H14V2Zm8,50.186A1.816,1.816,0,0,1,26.186,54H7.814A1.816,1.816,0,0,1,6,52.186V29.814A1.816,1.816,0,0,1,7.814,28H26.186A1.816,1.816,0,0,1,28,29.814Z"/><path d="M10.167,48.176a2.781,2.781,0,0,1-2.819-3.067,3.472,3.472,0,0,1,.817-1.958,3.472,3.472,0,0,1-.817-1.959,2.863,2.863,0,0,1,.8-2.254h0a2.866,2.866,0,0,1,2.255-.8,3.508,3.508,0,0,1,2.2,1.035l3.272,3.274a1,1,0,0,1,0,1.414L12.6,47.13a3.508,3.508,0,0,1-2.2,1.037C10.326,48.173,10.247,48.176,10.167,48.176Zm0-8.051a.838.838,0,0,0-.6.227h0a.873.873,0,0,0-.223.687,1.53,1.53,0,0,0,.457.937,1.671,1.671,0,0,0,.4.292,1,1,0,0,1,0,1.766,1.667,1.667,0,0,0-.4.291,1.533,1.533,0,0,0-.457.938.8.8,0,0,0,.91.91,1.533,1.533,0,0,0,.938-.457l2.565-2.565L11.19,40.585a1.531,1.531,0,0,0-.938-.456C10.227,40.127,10.2,40.125,10.167,40.125Z"/><path d="M17.169,42.151h0a1,1,0,0,1-.707-.293L13.19,38.585a3.508,3.508,0,0,1-1.037-2.2,2.863,2.863,0,0,1,.8-2.255h0a2.858,2.858,0,0,1,2.255-.8,3.464,3.464,0,0,1,1.958.816,3.47,3.47,0,0,1,1.959-.816,2.789,2.789,0,0,1,3.058,3.057,3.508,3.508,0,0,1-1.037,2.2l-3.273,3.273A1,1,0,0,1,17.169,42.151Zm-2.2-6.831a.839.839,0,0,0-.6.226h0a.872.872,0,0,0-.223.686,1.525,1.525,0,0,0,.457.937l2.565,2.567,2.566-2.566a1.524,1.524,0,0,0,.456-.938.87.87,0,0,0-.222-.686.88.88,0,0,0-.687-.223,1.529,1.529,0,0,0-.938.456,1.654,1.654,0,0,0-.291.395,1.04,1.04,0,0,1-1.767,0,1.657,1.657,0,0,0-.292-.4,1.528,1.528,0,0,0-.936-.455C15.032,35.322,15,35.32,14.972,35.32Z"/><path d="M24.171,48.176c-.079,0-.158,0-.238-.009a3.508,3.508,0,0,1-2.2-1.037l-3.273-3.272a1,1,0,0,1,0-1.414l3.273-3.273a3.5,3.5,0,0,1,2.2-1.036,2.79,2.79,0,0,1,3.058,3.057,3.475,3.475,0,0,1-.817,1.959,3.475,3.475,0,0,1,.817,1.958,2.86,2.86,0,0,1-.8,2.255h0A2.839,2.839,0,0,1,24.171,48.176Zm-3.588-5.025,2.566,2.565a1.53,1.53,0,0,0,.938.457.882.882,0,0,0,.686-.223h0A.874.874,0,0,0,25,45.263a1.533,1.533,0,0,0-.457-.938,1.635,1.635,0,0,0-.395-.291,1,1,0,0,1,0-1.766,1.712,1.712,0,0,0,.4-.292A1.534,1.534,0,0,0,25,41.039a.8.8,0,0,0-.91-.91,1.529,1.529,0,0,0-.938.456Z"/><path d="M60.935,17.725a4.54,4.54,0,0,0-2.966-3.471,4.367,4.367,0,0,0-2-.222,4.733,4.733,0,0,0-1.5-2.716,4.24,4.24,0,0,0-3.189-1.31,4.425,4.425,0,0,0-1.963.572,4.769,4.769,0,0,0-2.916-.536,5.489,5.489,0,0,0-10.265,1.217A5.561,5.561,0,0,0,36.3,14.31a4.933,4.933,0,0,0-.285,9.205,133.123,133.123,0,0,0,4.836,34.1l.092.332-1.875,4.685A1,1,0,0,0,40,64H54a1,1,0,0,0,.929-1.372l-1.875-4.685.092-.332a133.058,133.058,0,0,0,4.841-34.867,4.5,4.5,0,0,0,2.948-5.019ZM41.477,62l1.2-3h8.646l1.2,3ZM55.512,33H45a1,1,0,0,0,0,2H55.332a130.666,130.666,0,0,1-4.093,22H42.761a130.644,130.644,0,0,1-4.088-22H41a1,1,0,0,0,0-2H38.483c-.251-3-.408-6-.454-9.017.063,0,.122.017.185.017H41v1.353a2.6,2.6,0,0,0,2.24,2.634A2.5,2.5,0,0,0,46,25.5V24h1v4.353a2.6,2.6,0,0,0,2.24,2.634A2.5,2.5,0,0,0,52,28.5V22.994l3.984-.024C55.959,26.321,55.791,29.666,55.512,33Zm3.009-13.027a2.516,2.516,0,0,1-1.6.992L50.994,21A1,1,0,0,0,50,22v6.5a.5.5,0,0,1-1,0V23a1,1,0,0,0-1-1H45a1,1,0,0,0-1,1v2.5a.5.5,0,0,1-1,0V23a1,1,0,0,0-1-1H38.214a3.165,3.165,0,0,1-3.206-2.784,2.96,2.96,0,0,1,.732-2.18,3,3,0,0,1,2.091-1.015,1,1,0,0,0,.771-1.56,3.524,3.524,0,0,1-.476-2.919,3.432,3.432,0,0,1,2.486-2.434,3.493,3.493,0,0,1,4.22,2.388,1,1,0,0,0,1.263.663,2.845,2.845,0,0,1,2.656.418,1,1,0,0,0,1.208-.026A2.487,2.487,0,0,1,51.38,12a2.325,2.325,0,0,1,1.672.725c1.095,1.1,1.025,1.778.844,2.431a1,1,0,0,0,1.435,1.149,2.386,2.386,0,0,1,1.981-.165,2.491,2.491,0,0,1,1.209,3.83Z"/><path d="M53,20a1,1,0,0,1-1-1,1,1,0,0,0-1-1,1,1,0,0,1,0-2,3,3,0,0,1,3,3A1,1,0,0,1,53,20Z"/><path d="M40,14a1,1,0,0,1-1-1,3,3,0,0,1,3-3,1,1,0,0,1,0,2,1,1,0,0,0-1,1A1,1,0,0,1,40,14Z"/></g></svg>