<svg xmlns="http://www.w3.org/2000/svg" viewBox="0 0 64 64"><g id="_29-arm" data-name="29-arm"><polygon points="50 63 44 36 55 33 63 63 50 63" style="fill:#ee9d22"/><path d="M55.7,35.627h0L55,33,44,36l6,27h2.556l-3.6-16.2A9.459,9.459,0,0,1,55.7,35.627Z" style="fill:#d38013"/><polygon points="20 59 29.172 52.586 34.121 57.536 29.172 62.485 20 59" style="fill:#7ac147"/><path d="M32.621,59.036h0l1.5-1.5-4.949-4.95L20,59l2.779,1.056,2.395-1.674A5.815,5.815,0,0,1,32.621,59.036Z" style="fill:#5d9b2d"/><polygon points="1 63 13 36 24 42 15 63 1 63" style="fill:#f88522"/><path d="M22.989,44.358h0L24,42,13,36,1,63H4.778L11.3,48.316A8.39,8.39,0,0,1,22.989,44.358Z" style="fill:#dd660e"/><polygon points="46.357 35.357 43 32 43 26 49 23 53 28 53 33.545 46.357 35.357" style="fill:#f2cfcc"/><polygon points="45 31.197 45 25 43 26 43 32 46.357 35.357 48.478 34.779 45 31.197" style="fill:#e5bebd"/><polygon points="30.114 53.529 32 49.757 36.243 46.929 38.364 51.879 33.345 56.76 30.114 53.529" style="fill:#f2cfcc"/><polygon points="33.282 51.476 37.04 48.789 36.243 46.929 32 49.757 30.114 53.529 31.395 54.809 33.282 51.476" style="fill:#e5bebd"/><polygon points="14.987 37.084 15.755 32.132 22 26 28 32 27 37 22.706 41.294 14.987 37.084" style="fill:#f2cfcc"/><polygon points="17.767 33.415 23.51 27.51 22 26 15.755 32.132 14.987 37.084 17.057 38.213 17.767 33.415" style="fill:#e5bebd"/><polygon points="32.489 33.7 40.601 38.081 33.206 41.731 32.489 33.7" style="fill:#4daa3c"/><polygon points="63 8 52 3 57 18 63 8" style="fill:#7ac147"/><polygon points="9 1 24 1 14 15 9 1" style="fill:#4a8a3e"/><path d="M42.432,7.932c.193-.236.661-.291.777-.091.058.1.117.21.2.37a1.527,1.527,0,0,0,.812.874,2.2,2.2,0,0,0,1.378-.02c.877-.274,1.454-.926,1.288-1.456a.626.626,0,0,0-.068-.143c.083-.018.168-.038.252-.065.878-.275,1.455-.927,1.289-1.456-.157-.5-.882-.659-1.685-.508-.6.115-1.032.205-1.495.3-.385.082-.594-.171-.331-.4.34-.3.656-.577,1.058-.954.523-.49.647-1.059.124-1.382a2.3,2.3,0,0,0-2.271.266,2.166,2.166,0,0,0-.185.146.855.855,0,0,0-.139-.108,2.3,2.3,0,0,0-2.271.265,1.233,1.233,0,0,0-.614.945c.008.393.36.677.682.936.126.1.224.184.31.26.2.176-.109.5-.485.5-.411.007-.79.014-1.365.039a2.441,2.441,0,0,0-1.938.932c-.364.591,0,1.133.817,1.209a2.105,2.105,0,0,0,.239.008,1.349,1.349,0,0,0-.122.165c-.364.592,0,1.134.817,1.21a2.628,2.628,0,0,0,1.428-.309,3.6,3.6,0,0,0,1.162-1.105C42.235,8.178,42.335,8.05,42.432,7.932Z" style="fill:#7ac147"/><path d="M5.367,26.916c.3.029.61.386.509.594-.05.1-.108.213-.2.37a1.524,1.524,0,0,0-.272,1.161,2.205,2.205,0,0,0,.785,1.132c.718.575,1.581.689,1.928.256a.65.65,0,0,0,.081-.137,2.488,2.488,0,0,0,.194.173c.718.575,1.581.69,1.928.256.327-.409.054-1.1-.52-1.68-.432-.438-.746-.742-1.087-1.071-.283-.273-.19-.588.148-.5.438.115.845.222,1.382.345.7.161,1.241-.055,1.217-.669a2.3,2.3,0,0,0-1.489-1.735,2.01,2.01,0,0,0-.225-.072.835.835,0,0,0,.012-.176,2.294,2.294,0,0,0-1.489-1.736,1.233,1.233,0,0,0-1.126.018,1.41,1.41,0,0,0-.4,1.089c-.014.162-.027.288-.042.4-.034.264-.472.186-.687-.123-.236-.337-.453-.647-.795-1.11a2.441,2.441,0,0,0-1.855-1.088c-.694.028-.939.634-.547,1.353a1.962,1.962,0,0,0,.127.2,1.307,1.307,0,0,0-.206-.009c-.694.028-.939.634-.547,1.353A2.634,2.634,0,0,0,3.253,26.53a3.6,3.6,0,0,0,1.566.346C5.053,26.89,5.215,26.9,5.367,26.916Z" style="fill:#4a8a3e"/><path d="M27.968,16.578l1.919,1.5c.161.127.044.325-.145.244l-2.241-.96a1.864,1.864,0,0,0-2.575.339,1.864,1.864,0,0,0,.939,2.421,2.639,2.639,0,0,0,.286.144,1.309,1.309,0,0,0-.152.2,1.864,1.864,0,0,0,.939,2.421,1.863,1.863,0,0,0,2.574-.339l1.315-1.429c.111-.12.363.029.311.184l-.622,1.84a1.863,1.863,0,0,0,.938,2.421,1.864,1.864,0,0,0,2.575-.339,1.353,1.353,0,0,0,.1-.23,2.6,2.6,0,0,0,.263.181,1.864,1.864,0,0,0,2.575-.339,1.864,1.864,0,0,0-.939-2.421l-1.919-1.5c-.161-.127-.044-.325.145-.244l2.241.96a1.864,1.864,0,0,0,2.575-.339,1.864,1.864,0,0,0-.939-2.421,2.639,2.639,0,0,0-.286-.144,1.309,1.309,0,0,0,.152-.2,1.864,1.864,0,0,0-.939-2.421,1.863,1.863,0,0,0-2.574.339l-1.315,1.429c-.111.12-.363-.029-.311-.184l.622-1.84a1.863,1.863,0,0,0-.938-2.421,1.864,1.864,0,0,0-2.575.339,1.353,1.353,0,0,0-.1.23,2.6,2.6,0,0,0-.263-.181,1.864,1.864,0,0,0-2.575.339A1.864,1.864,0,0,0,27.968,16.578Z" style="fill:#4daa3c"/><path d="M24.479,41.122l-.121-.066,3.349-3.349a1,1,0,0,0,.273-.511l1-5a1,1,0,0,0-.273-.9l-6-6a1,1,0,0,0-1.407-.007l-2.617,2.57L14.754,15.632c.017-.02.043-.028.059-.051l10-14A1,1,0,0,0,24,0H9A1,1,0,0,0,8,1a.984.984,0,0,0,.061.3l-.013,0,9.038,28.118-2.031,1.994a.994.994,0,0,0-.288.561l-.55,3.546-.738-.4a1,1,0,0,0-1.393.472l-12,27a1,1,0,1,0,1.828.812L13.474,37.4l9.249,5.045L14.081,62.606a1,1,0,0,0,.525,1.313A.979.979,0,0,0,15,64a1,1,0,0,0,.919-.606l9-21A1,1,0,0,0,24.479,41.122ZM14,13.282,10.372,2H22.057Zm2.694,19.331,5.3-5.2,4.921,4.921-.835,4.178-3.551,3.551-6.445-3.515Z"/><path d="M55.966,32.742a1,1,0,0,0-1.229-.707l-.737.2V28a1,1,0,0,0-.219-.625l-.821-1.027L63.854,8.521l-.015-.008a.775.775,0,0,0,.071-.1,1,1,0,0,0-.5-1.324l-11-5a1,1,0,0,0-1.362,1.226l4.813,14.441-4.234,6.93-1.85-2.312a1,1,0,0,0-1.228-.27l-6,3A1,1,0,0,0,42,26v6a1,1,0,0,0,.293.707l2.139,2.139-.7.189a1,1,0,0,0-.714,1.182l6,27a1,1,0,1,0,1.954-.434L45.183,36.714l9.11-2.485,7.741,29.029a1,1,0,0,0,1.932-.516ZM53.674,4.859l7.883,3.584-4.328,7.083ZM44,31.586V26.618l4.725-2.362L52,28.351v4.431L46.654,34.24Z"/><path d="M41.076,37.2,32.964,32.82a1,1,0,0,0-1.356.405.974.974,0,0,0-.1.555h-.019L32.653,48.12l-1.208.806a1.011,1.011,0,0,0-.34.385l-1.269,2.538a.993.993,0,0,0-1.237-.082l-9.172,6.414a1,1,0,0,0,1.146,1.638l8.485-5.933,3.649,3.649-4.242,4.243a1,1,0,1,0,1.414,1.414l4.949-4.95a1,1,0,0,0,0-1.414l-.058-.058L39.062,52.6a1,1,0,0,0,.221-1.111l-2.122-4.95a1,1,0,0,0-.634-.565,1.015,1.015,0,0,0-.84.127l-1.129.753-.364-4.492,6.849-3.38a1,1,0,0,0,.033-1.777ZM35.8,48.428l1.378,3.214-3.82,3.713-2.024-2.024,1.444-2.889ZM34.02,40.214l-.386-4.758,4.788,2.585Z"/><path d="M25.889,16.043a2.37,2.37,0,0,0-1.958,3.305,3.246,3.246,0,0,0,.942,1.3,3.019,3.019,0,0,0,1.556,3.109,3.362,3.362,0,0,0,2.121.463,2.693,2.693,0,0,0,.794-.231,3.17,3.17,0,0,0,1.6,2.445,3.414,3.414,0,0,0,1.73.488,3.17,3.17,0,0,0,.391-.025A2.59,2.59,0,0,0,34.42,26.3a2.753,2.753,0,0,0,3.411-.949,2.494,2.494,0,0,0,.033-2.374c.083,0,.165-.011.247-.022a2.37,2.37,0,0,0,1.958-3.3,3.246,3.246,0,0,0-.942-1.3,3.019,3.019,0,0,0-1.556-3.109,3.349,3.349,0,0,0-2.121-.463,2.693,2.693,0,0,0-.794.231,3.17,3.17,0,0,0-1.6-2.445,3.361,3.361,0,0,0-2.121-.463,2.59,2.59,0,0,0-1.354.592,2.757,2.757,0,0,0-3.411.949,2.494,2.494,0,0,0-.033,2.374C26.053,16.025,25.971,16.032,25.889,16.043Zm1.1,2.184a.873.873,0,0,0,.114.058l2.246.962A1.139,1.139,0,0,0,30.5,17.3l-1.919-1.5a1.121,1.121,0,0,0-.107-.073c-.5-.3-.731-.811-.588-1.051s.7-.287,1.2.01a1.537,1.537,0,0,1,.161.112,1.018,1.018,0,0,0,.908.145,1.049,1.049,0,0,0,.67-.656c.143-.24.7-.287,1.2.012s.731.811.588,1.051a1.046,1.046,0,0,0-.087.189l-.623,1.844a1.192,1.192,0,0,0,1.994,1.179l1.316-1.429a1.04,1.04,0,0,0,.125-.169c.141-.24.7-.287,1.2.012s.73.81.55,1.1a1,1,0,0,0,.345,1.582,1.819,1.819,0,0,1,.177.087,1.366,1.366,0,0,1,.58.642.389.389,0,0,1-.354.6,1.342,1.342,0,0,1-.843-.2.873.873,0,0,0-.114-.058l-2.246-.962A1.139,1.139,0,0,0,33.5,21.7l1.919,1.5a1.121,1.121,0,0,0,.107.073c.5.3.731.811.588,1.051s-.7.287-1.2-.01a1.537,1.537,0,0,1-.161-.112,1.012,1.012,0,0,0-.908-.145,1.049,1.049,0,0,0-.67.656c-.142.24-.7.287-1.2-.012s-.731-.811-.588-1.051a1.046,1.046,0,0,0,.087-.189l.623-1.844a1.164,1.164,0,0,0-.536-1.374,1.221,1.221,0,0,0-.618-.172,1.134,1.134,0,0,0-.84.367l-1.316,1.429a1.04,1.04,0,0,0-.125.169c-.141.24-.7.287-1.2-.012s-.73-.81-.55-1.1a1,1,0,0,0-.345-1.582,1.819,1.819,0,0,1-.177-.087,1.366,1.366,0,0,1-.58-.642.389.389,0,0,1,.354-.6A1.332,1.332,0,0,1,26.992,18.227Z"/><path d="M2.787,27.414a4.255,4.255,0,0,0,1.78.449,2.222,2.222,0,0,0-.132,1.407,3.167,3.167,0,0,0,1.133,1.683,3.029,3.029,0,0,0,2.153.726,1.985,1.985,0,0,0,.5-.123,2.921,2.921,0,0,0,1.465.431,1.771,1.771,0,0,0,1.421-.641,2.016,2.016,0,0,0-.157-2.5,1.789,1.789,0,0,0,.939-.388,1.632,1.632,0,0,0,.576-1.355,3.194,3.194,0,0,0-1.781-2.472A3.463,3.463,0,0,0,8.636,22.5a2.178,2.178,0,0,0-2.063.132,1.673,1.673,0,0,0-.5.545c-.015-.021-.029-.041-.045-.062a3.367,3.367,0,0,0-2.7-1.493,1.723,1.723,0,0,0-1.474.848,1.758,1.758,0,0,0-.208,1.065,1.612,1.612,0,0,0-.417.481A2.022,2.022,0,0,0,1.321,26,3.625,3.625,0,0,0,2.787,27.414Zm1.025-2.73a1,1,0,0,0,.061-.9,2.07,2.07,0,0,1,.55.517c.335.454.548.757.778,1.088a1.574,1.574,0,0,0,1.609.675,1.175,1.175,0,0,0,.891-1c.016-.126.031-.265.046-.444.008-.085.018-.2.031-.3a1.108,1.108,0,0,1,.135.042,1.467,1.467,0,0,1,.85.823,1,1,0,0,0,.729,1.122.841.841,0,0,1,.122.039,1.619,1.619,0,0,1,.622.442c-.414-.1-.755-.188-1.117-.283a1.225,1.225,0,0,0-1.417.554,1.346,1.346,0,0,0,.32,1.631c.333.322.641.619,1.061,1.043-.021-.014-.04-.03-.061-.046-.044-.036-.085-.074-.126-.113a1.033,1.033,0,0,0-.706-.32.746.746,0,0,0-.154.016.912.912,0,0,0-.634.416,1.392,1.392,0,0,1-.585-.293,1.246,1.246,0,0,1-.435-.58c-.02-.083.011-.161.169-.442.1-.182.17-.308.223-.422a1.27,1.27,0,0,0-.058-1.193A1.673,1.673,0,0,0,5.46,25.92c-.162-.015-.334-.027-.586-.042a2.726,2.726,0,0,1-1.154-.233,1.731,1.731,0,0,1-.571-.492A1,1,0,0,0,3.812,24.684Z"/><path d="M37.548,9.126a1.611,1.611,0,0,0,.166.614,2.024,2.024,0,0,0,1.7,1.035c.093.008.187.013.282.013a3.681,3.681,0,0,0,1.713-.438,4.265,4.265,0,0,0,1.365-1.226,2.23,2.23,0,0,0,1.094.9,3.2,3.2,0,0,0,2.03,0A3.327,3.327,0,0,0,47.38,9.1a2.107,2.107,0,0,0,.495-.942,3.12,3.12,0,0,0,.978-.722,1.848,1.848,0,0,0,.458-1.786,2.026,2.026,0,0,0-2.158-1.264,1.78,1.78,0,0,0,.2-.994,1.621,1.621,0,0,0-.8-1.235,3.2,3.2,0,0,0-3.047.1,3.466,3.466,0,0,0-2.918.5,2.179,2.179,0,0,0-1.042,1.784,1.677,1.677,0,0,0,.176.716l-.078,0A3.41,3.41,0,0,0,36.9,6.662a1.724,1.724,0,0,0-.119,1.7A1.754,1.754,0,0,0,37.548,9.126Zm2.184-1.872c.565-.024.936-.031,1.338-.038a1.574,1.574,0,0,0,1.458-.958A1.171,1.171,0,0,0,42.2,4.966c-.1-.086-.206-.179-.347-.29-.065-.054-.158-.128-.231-.2a.862.862,0,0,1,.109-.087,1.491,1.491,0,0,1,1.149-.253,1,1,0,0,0,1.349.026c.03-.025.061-.052.1-.077a1.644,1.644,0,0,1,.715-.27c-.3.278-.562.508-.857.769a1.228,1.228,0,0,0-.334,1.484,1.344,1.344,0,0,0,1.534.647c.451-.1.866-.186,1.453-.3l-.069.022a1.373,1.373,0,0,1-.162.041.982.982,0,0,0-.727.544.926.926,0,0,0-.015.757,1.357,1.357,0,0,1-.57.323,1.267,1.267,0,0,1-.725.038c-.079-.029-.127-.1-.271-.385-.093-.187-.162-.314-.227-.424a1.275,1.275,0,0,0-1.024-.616,1.683,1.683,0,0,0-1.393.576l0,0c-.1.124-.206.258-.357.456a2.7,2.7,0,0,1-.839.829,1.729,1.729,0,0,1-.727.2A1,1,0,0,0,39,7.422,2.08,2.08,0,0,1,39.732,7.254Z"/></g></svg>