<svg xmlns="http://www.w3.org/2000/svg" viewBox="0 0 64 64"><g id="_10-balloon" data-name="10-balloon"><polygon points="47 35 46 38 52 38 51 35 47 35" style="fill:#e56e15"/><polygon points="13 46 12 49 18 49 17 46 13 46" style="fill:#418636"/><polygon points="31 52 30 55 36 55 35 52 31 52" style="fill:#dddddb"/><path d="M63,18a19.024,19.024,0,0,1-3.71,11.52,13.587,13.587,0,0,1-7.34,5.1,11.408,11.408,0,0,1-2.34.36c-.2.01-.41.02-.61.02-.13,0-.26,0-.39-.01-6.85-.22-12.48-6.43-13.45-14.47-.05-.37-.08-.76-.11-1.14-.03-.46-.05-.92-.05-1.38a19.973,19.973,0,0,1,.39-3.98v-.01C36.86,6.55,42.4,1,49,1,56.73,1,63,8.61,63,18Z" style="fill:#f88522"/><path d="M59.29,24.52a13.587,13.587,0,0,1-7.34,5.1,11.408,11.408,0,0,1-2.34.36c-.2.01-.41.02-.61.02-7.025,0-12.84-6.281-13.837-14.461A20.519,20.519,0,0,0,35,18c0,.46.02.92.05,1.38.03.38.06.77.11,1.14C36.15,28.71,41.97,35,49,35c.2,0,.41-.01.61-.02a11.408,11.408,0,0,0,2.34-.36,13.587,13.587,0,0,0,7.34-5.1A19.024,19.024,0,0,0,63,18a20.594,20.594,0,0,0-.167-2.492A18.569,18.569,0,0,1,59.29,24.52Z" style="fill:#ba641a"/><path d="M29,29c0,7.92-4.46,14.58-10.51,16.47A11.893,11.893,0,0,1,15,46C7.27,46,1,38.39,1,29S7.27,12,15,12a12.735,12.735,0,0,1,9.51,4.53A18.772,18.772,0,0,1,29,29Z" style="fill:#56b348"/><path d="M28.939,27.6c-.025-.357-.061-.709-.1-1.059h0a18.328,18.328,0,0,0-4.326-10C18.46,18.42,14,25.08,14,33v.087a3.8,3.8,0,0,1-6.111,3.1C4.7,33.653,1.628,30.28,1.168,26.5A20.524,20.524,0,0,0,1,29c0,9.39,6.27,17,14,17a11.893,11.893,0,0,0,3.49-.53C24.54,43.58,29,36.92,29,29,29,28.525,28.975,28.058,28.939,27.6Z" style="fill:#418636"/><path d="M54.958,14.583l-2.417-.4a.182.182,0,0,1,0-.36l2.417-.4a2.042,2.042,0,1,0,0-4.084,1.981,1.981,0,0,0-.319.028,1.981,1.981,0,0,0,.028-.319,2.042,2.042,0,0,0-4.084,0l-.4,2.417a.182.182,0,0,1-.36,0l-.4-2.417a2.042,2.042,0,0,0-4.084,0,1.981,1.981,0,0,0,.028.319,1.981,1.981,0,0,0-.319-.028,2.042,2.042,0,0,0,0,4.084l2.417.4a.182.182,0,0,1,0,.36l-2.417.4a2.042,2.042,0,0,0,0,4.084,1.981,1.981,0,0,0,.319-.028,1.981,1.981,0,0,0-.028.319,2.042,2.042,0,0,0,4.084,0l.4-2.417a.182.182,0,0,1,.36,0l.4,2.417a2.042,2.042,0,0,0,4.084,0,1.981,1.981,0,0,0-.028-.319,1.981,1.981,0,0,0,.319.028,2.042,2.042,0,1,0,0-4.084Z" style="fill:#4a8a3e"/><ellipse cx="33" cy="35" rx="14" ry="17" style="fill:#f9f9f2"/><path d="M37,49c-7.732,0-14-7.611-14-17a18.669,18.669,0,0,1,4.773-12.763C22.632,21.753,19,27.857,19,35c0,9.389,6.268,17,14,17a12.639,12.639,0,0,0,9.227-4.237A11.834,11.834,0,0,1,37,49Z" style="fill:#e5e5e3"/><path d="M31.5,37.906a.629.629,0,0,1,.806.806c-.09.25-.194.519-.35.906a4.813,4.813,0,0,0-.526,2.572,2.356,2.356,0,0,0,4.407.687,2.443,2.443,0,0,0,.143-.341,2.534,2.534,0,0,0,.311.2,2.356,2.356,0,0,0,3.179-.995,2.382,2.382,0,0,0-.752-3.005c-.689-.55-1.19-.92-1.734-1.32a.63.63,0,0,1,.278-1.13c.718-.11,1.387-.214,2.269-.385a2.382,2.382,0,0,0,2.06-2.314,2.338,2.338,0,0,0-2.724-2.323,2.354,2.354,0,0,0-4.191-1.8,4.819,4.819,0,0,0-.727,2.523c-.033.339-.064.607-.1.851a.629.629,0,0,1-1.131.291c-.368-.5-.708-.959-1.245-1.631a2.381,2.381,0,0,0-3.005-.752,2.355,2.355,0,0,0-.995,3.178,2.266,2.266,0,0,0,.2.312,2.283,2.283,0,0,0-.341.143,2.355,2.355,0,0,0,.687,4.406,4.814,4.814,0,0,0,2.572-.525C30.979,38.1,31.247,38,31.5,37.906Z" style="fill:#7ac147"/><path d="M9.691,26.685a.477.477,0,0,1,.61.611c-.068.19-.147.393-.265.686a3.656,3.656,0,0,0-.4,1.949,1.784,1.784,0,0,0,3.338.52,1.742,1.742,0,0,0,.108-.258,1.775,1.775,0,0,0,2.644-.6,1.806,1.806,0,0,0-.57-2.277c-.521-.416-.9-.7-1.313-1a.477.477,0,0,1,.21-.855c.545-.084,1.051-.162,1.719-.292a1.8,1.8,0,0,0,1.56-1.753,1.784,1.784,0,0,0-1.784-1.784,1.843,1.843,0,0,0-.279.024,1.7,1.7,0,0,0,.024-.279,1.783,1.783,0,0,0-3.2-1.086,3.641,3.641,0,0,0-.551,1.911c-.026.257-.049.459-.073.644a.477.477,0,0,1-.857.221c-.279-.379-.536-.726-.943-1.235a1.8,1.8,0,0,0-2.276-.57,1.784,1.784,0,0,0-.754,2.407,1.725,1.725,0,0,0,.151.236,1.806,1.806,0,0,0-.258.108,1.785,1.785,0,0,0,.52,3.339A3.651,3.651,0,0,0,9,26.951C9.3,26.832,9.5,26.754,9.691,26.685Z" style="fill:#f88522"/><path d="M18.269,44.489A10.738,10.738,0,0,1,15,45C7.832,45,2,37.822,2,29S7.832,13,15,13a11.841,11.841,0,0,1,9.222,4.73,1,1,0,1,0,1.556-1.255A13.8,13.8,0,0,0,15,11C6.729,11,0,19.075,0,29c0,8.589,5.042,15.78,11.758,17.565l-.706,2.119A1,1,0,0,0,12,50h2.01a6.586,6.586,0,0,0,.19,7.6c2.484,3.311,1.9,4.953,1.905,4.953h0a1,1,0,0,0,1.79.894c.13-.261,1.181-2.678-2.095-7.047-1.985-2.646-.283-5.284.649-6.4H18a1,1,0,0,0,.948-1.316l-.7-2.114c.212-.056.424-.109.634-.176a1,1,0,0,0-.609-1.905ZM16.612,48H13.388l.358-1.076c.415.041.831.076,1.254.076s.839-.029,1.256-.07Z"/><path d="M64,18C64,8.075,57.271,0,49,0,41.7,0,35.489,6.248,34.229,14.855a1,1,0,1,0,1.978.29C37.323,7.528,42.7,2,49,2c7.168,0,13,7.178,13,16S56.168,34,49,34c-.348,0-.7-.035-1.045-.069C47.49,24.5,40.971,17,33,17c-8.271,0-15,8.075-15,18,0,8.589,5.042,15.78,11.758,17.565l-.706,2.119A1,1,0,0,0,30,56h2.346c1.907,3.1-1.036,6.159-1.17,6.294a1,1,0,0,0,1.416,1.413c1.343-1.343,3.235-4.49,1.987-7.707H36a1,1,0,0,0,.948-1.316l-.706-2.119c5.64-1.5,10.088-6.813,11.372-13.565h.849c.794,1.331,2.711,5.647-.377,12.594-1.713,3.855-2.087,7.029-1.109,9.433a5.207,5.207,0,0,0,2.652,2.9.992.992,0,0,0,1.287-.547,1.007,1.007,0,0,0-.531-1.3,3.339,3.339,0,0,1-1.58-1.864c-.721-1.852-.338-4.552,1.109-7.807,2.907-6.54,1.785-11.152.791-13.406H52a1,1,0,0,0,.948-1.316l-.706-2.119C58.958,33.781,64,26.589,64,18ZM34.612,54H31.388l.358-1.076c.415.041.831.076,1.254.076s.839-.035,1.254-.076ZM33,51c-7.168,0-13-7.178-13-16s5.832-16,13-16,13,7.178,13,16S40.168,51,33,51ZM50.612,37H47.9c.032-.352.043-.711.059-1.069.346.028.693.069,1.039.069.423,0,.839-.035,1.254-.076Z"/><path d="M42,16.625A3.048,3.048,0,0,0,44.4,19.6a3.042,3.042,0,0,0,5.6.895,3.042,3.042,0,0,0,5.6-.895,3.041,3.041,0,0,0,.893-5.6A3.041,3.041,0,0,0,55.6,8.4,3.042,3.042,0,0,0,50,7.506a3.042,3.042,0,0,0-5.6.895,3.041,3.041,0,0,0-.893,5.6A3.043,3.043,0,0,0,42,16.625Zm5.622-1.458a1.183,1.183,0,0,0,0-2.334l-2.417-.4a1.019,1.019,0,0,0-.165-.013A1.044,1.044,0,0,1,44,11.375a1.063,1.063,0,0,1,1.2-1.027.986.986,0,0,0,.861-.276,1,1,0,0,0,.287-.859,1.077,1.077,0,0,1-.017-.171,1.042,1.042,0,0,1,2.084,0,1.009,1.009,0,0,0,.014.164l.4,2.419a1.183,1.183,0,0,0,2.334,0l.4-2.418a1.009,1.009,0,0,0,.014-.164,1.042,1.042,0,0,1,2.084,0,1.077,1.077,0,0,1-.017.171A1,1,0,0,0,54.8,10.348,1.063,1.063,0,0,1,56,11.375a1.044,1.044,0,0,1-1.042,1.042,1.019,1.019,0,0,0-.165.013l-2.415.4a1.183,1.183,0,0,0,0,2.334l2.417.4a1.019,1.019,0,0,0,.165.013A1.044,1.044,0,0,1,56,16.625a1.064,1.064,0,0,1-1.2,1.027,1,1,0,0,0-1.148,1.135,1.077,1.077,0,0,1,.017.171,1.042,1.042,0,0,1-2.084,0,1.009,1.009,0,0,0-.014-.164l-.4-2.419a1.183,1.183,0,0,0-2.334,0l-.4,2.418a1.009,1.009,0,0,0-.014.164,1.042,1.042,0,0,1-2.084,0,1.077,1.077,0,0,1,.017-.171A1,1,0,0,0,45.2,17.652,1.064,1.064,0,0,1,44,16.625a1.044,1.044,0,0,1,1.042-1.042,1.019,1.019,0,0,0,.165-.013Z"/><path d="M18.334,23.413a2.787,2.787,0,0,0-2.118-2.7A2.784,2.784,0,0,0,11.3,19.678a3.679,3.679,0,0,0-.674,1.747c-.056-.07-.113-.143-.175-.219a2.772,2.772,0,0,0-4.934,2.3A2.784,2.784,0,0,0,4.9,26.881a2.8,2.8,0,0,0,1.988,1.452,3.9,3.9,0,0,0,2.05-.28A3.891,3.891,0,0,0,8.653,30.1,2.809,2.809,0,0,0,10.1,32.091a2.79,2.79,0,0,0,3.379-.625,2.773,2.773,0,0,0,2.3-4.935c-.128-.1-.246-.2-.359-.282.171-.031.349-.064.542-.1A2.782,2.782,0,0,0,18.334,23.413ZM13.9,24.469a1.477,1.477,0,0,0-.651,2.651c.4.295.772.569,1.281.975a.849.849,0,0,1,.308,1.03.773.773,0,0,1-1.165.263,1,1,0,0,0-1.541.487.9.9,0,0,1-.045.112.787.787,0,0,1-1.059.331.8.8,0,0,1-.409-.56,2.967,2.967,0,0,1,.341-1.4c.124-.308.206-.522.277-.72a1.479,1.479,0,0,0-1.383-1.981,1.5,1.5,0,0,0-.507.09c-.2.072-.414.154-.72.278a2.962,2.962,0,0,1-1.4.341.8.8,0,0,1-.561-.41A.783.783,0,0,1,7,24.9a.811.811,0,0,1,.115-.046A1,1,0,0,0,7.6,23.309a.972.972,0,0,1-.07-.106.786.786,0,0,1,.331-1.058.846.846,0,0,1,1.032.308c.4.5.647.835.919,1.2a1.477,1.477,0,0,0,2.655-.687c.024-.193.049-.4.075-.672a2.96,2.96,0,0,1,.348-1.4.8.8,0,0,1,.623-.308.769.769,0,0,1,.772.905,1,1,0,0,0,1.147,1.146.8.8,0,0,1,.9.772c0,.6-.625.747-.75.771C14.932,24.311,14.436,24.388,13.9,24.469Z"/><path d="M36.542,27.54a3.379,3.379,0,0,0-2.661,1.311,5.511,5.511,0,0,0-.918,2.926c-.2-.269-.429-.56-.706-.906a3.343,3.343,0,0,0-5.9,2.949,3.355,3.355,0,0,0,1.493,5.946,5.658,5.658,0,0,0,3.118-.582l.1-.041-.04.1a5.682,5.682,0,0,0-.584,3.119,3.38,3.38,0,0,0,1.75,2.4,3.357,3.357,0,0,0,4.2-.9A3.356,3.356,0,0,0,40.354,42.2a3.36,3.36,0,0,0-1.014-4.25c-.4-.318-.736-.577-1.054-.816.439-.072.9-.151,1.434-.255a3.341,3.341,0,0,0,.122-6.6A3.359,3.359,0,0,0,36.542,27.54Zm4.047,6.046a1.408,1.408,0,0,1-1.25,1.332c-.867.169-1.525.27-2.231.379a1.629,1.629,0,0,0-.718,2.923c.534.393,1.026.757,1.7,1.3a1.409,1.409,0,0,1,.49,1.76,1.355,1.355,0,0,1-1.83.572,1.384,1.384,0,0,1-.18-.116,1,1,0,0,0-1.542.483,1.221,1.221,0,0,1-.082.2,1.353,1.353,0,0,1-1.828.572,1.359,1.359,0,0,1-.706-.968,4.092,4.092,0,0,1,.467-2.025c.163-.4.27-.682.363-.941a1.631,1.631,0,0,0-1.526-2.184,1.651,1.651,0,0,0-.559.1c-.261.094-.538.2-.942.364a4.091,4.091,0,0,1-2.025.467,1.35,1.35,0,0,1-.2-2.617,1,1,0,0,0,.483-1.542,1.352,1.352,0,0,1,.455-2.009,1.409,1.409,0,0,1,1.76.49c.527.659.86,1.108,1.221,1.6a1.63,1.63,0,0,0,2.93-.756c.032-.253.064-.529.1-.88a4.112,4.112,0,0,1,.524-2.011A1.356,1.356,0,0,1,37.9,30.9a1.189,1.189,0,0,1-.019.207,1,1,0,0,0,1.143,1.148A1.382,1.382,0,0,1,40.589,33.586Z"/></g></svg>