<svg xmlns="http://www.w3.org/2000/svg" viewBox="0 0 64 64"><g id="_25-barrel" data-name="25-barrel"><polygon points="51 26 63 26 63 34 59 34 59 30 51 30 51 26" style="fill:#875549"/><rect x="57" y="23" width="3" height="3" style="fill:#a68273"/><rect x="54" y="20" width="9" height="3" rx="1.5" style="fill:#a9dbd6"/><rect x="1" y="17" width="4" height="23" style="fill:#f88522"/><rect x="45" y="17" width="6" height="23" style="fill:#f88522"/><rect x="45" y="17" width="3" height="23" style="fill:#fad550"/><path d="M25,8C16.65,8,9.3,11.644,5,17.17V39.83C9.3,45.356,16.65,49,25,49s15.7-3.644,20-9.17V17.17C40.7,11.644,33.35,8,25,8Z" style="fill:#4daa3c"/><path d="M45,24A29.9,29.9,0,0,0,5,24v5H45Z" style="fill:#4a8a3e"/><rect x="1" y="53" width="50" height="4" style="fill:#692b1c"/><path d="M45,34.325a29.9,29.9,0,0,1-40,0V29H45Z" style="fill:#afda91"/><path d="M31,42c-8.35,0-15.7-3.644-20-9.17V11.85a22.547,22.547,0,0,0-6,5.32V39.83C9.3,45.356,16.65,49,25,49s15.7-3.644,20-9.17V38.15A26.736,26.736,0,0,1,31,42Z" style="opacity:0.15"/><path d="M13,7h0a2,2,0,0,1,2,2V53a0,0,0,0,1,0,0H11a0,0,0,0,1,0,0V9a2,2,0,0,1,2-2Z" style="fill:#b85c38"/><path d="M37,7h0a2,2,0,0,1,2,2V53a0,0,0,0,1,0,0H35a0,0,0,0,1,0,0V9a2,2,0,0,1,2-2Z" style="fill:#b85c38"/><path d="M63,25H61V24h.5a2.5,2.5,0,0,0,0-5h-6a2.5,2.5,0,0,0,0,5H56v1H52V17a1,1,0,0,0-1-1H45.315A23.472,23.472,0,0,0,40,11.309V9a3,3,0,0,0-5.945-.545,28.9,28.9,0,0,0-18.11,0A3,3,0,0,0,10,9v2.32A23.39,23.39,0,0,0,4.686,16H1a1,1,0,0,0-1,1V40a1,1,0,0,0,1,1H4.686A23.39,23.39,0,0,0,10,45.68V52H1a1,1,0,0,0-1,1v4a1,1,0,0,0,1,1H51a1,1,0,0,0,1-1V53a1,1,0,0,0-1-1H40V45.68A23.39,23.39,0,0,0,45.314,41H51a1,1,0,0,0,1-1V31h6v3a1,1,0,0,0,1,1h4a1,1,0,0,0,1-1V26A1,1,0,0,0,63,25ZM40,21.522a29.017,29.017,0,0,1,4,2.941V28H40ZM40,30h4v3.862A29.189,29.189,0,0,1,40,36.8Zm4-12.482v4.348a30.9,30.9,0,0,0-4-2.646V13.734A21.126,21.126,0,0,1,44,17.518ZM16,52V48.562a28.883,28.883,0,0,0,18,0V52ZM34,10.576v6.1a30.989,30.989,0,0,0-15.2-.727,1,1,0,0,0,.4,1.959,28.975,28.975,0,0,1,14.8.858V28H22a1,1,0,0,0,0,2H34V46.424a26.486,26.486,0,0,1-18,0V41.638a30.657,30.657,0,0,0,15.2.736,1,1,0,0,0-.4-1.959A28.988,28.988,0,0,1,16,39.556V30h2a1,1,0,0,0,0-2H16V10.576a26.486,26.486,0,0,1,18,0ZM10,28H6V24.463a29.1,29.1,0,0,1,4-2.941ZM6,30h4v6.8a29.189,29.189,0,0,1-4-2.942Zm4-16.275V19.22a30.932,30.932,0,0,0-4,2.646V17.518A21.074,21.074,0,0,1,10,13.725ZM2,18H4V39H2ZM6,39.482V36.459A30.829,30.829,0,0,0,10,39.1v4.17A21.074,21.074,0,0,1,6,39.482ZM12,9a1,1,0,0,1,2,0V52H12ZM50,56H2V54H50ZM36,52V9a1,1,0,0,1,2,0V52Zm4-8.725V39.1a30.829,30.829,0,0,0,4-2.646v3.023A21.074,21.074,0,0,1,40,43.275ZM50,39H49V36a1,1,0,0,0-2,0v3H46V18h1V32a1,1,0,0,0,2,0V18h1Zm5-17.5a.5.5,0,0,1,.5-.5h6a.5.5,0,0,1,0,1h-6A.5.5,0,0,1,55,21.5ZM58,24h1v1H58Zm4,9H60V30a1,1,0,0,0-1-1H52V27H62Z"/></g></svg>