<svg xmlns="http://www.w3.org/2000/svg" viewBox="0 0 64 64"><g id="_12-beer" data-name="12-beer"><path d="M47.849,32H55V44H48.387l-.3,4h7.825A3.087,3.087,0,0,0,59,44.913V31.087A3.087,3.087,0,0,0,55.913,28H47.186Z" style="fill:#e2c87f"/><circle cx="38" cy="3" r="2" style="fill:#7ac147"/><circle cx="52" cy="11" r="2" style="fill:#7ac147"/><circle cx="7" cy="8" r="2" style="fill:#7ac147"/><rect x="8" y="59" width="42" height="4" rx="2" style="fill:#eede89"/><path d="M48.41,39A66.474,66.474,0,0,0,46,23H12A66.474,66.474,0,0,0,9.59,39c-.03.67-.04,1.33-.04,2A67.059,67.059,0,0,0,12,59H46A66.789,66.789,0,0,0,48.41,39Z" style="fill:#eede89"/><path d="M14.59,39A66.474,66.474,0,0,1,17,23H12A66.474,66.474,0,0,0,9.59,39c-.03.67-.04,1.33-.04,2A67.059,67.059,0,0,0,12,59h5a67.059,67.059,0,0,1-2.45-18C14.55,40.33,14.56,39.67,14.59,39Z" style="fill:#e8d274"/><path d="M46,59H12A67.059,67.059,0,0,1,9.55,41c0-.67.01-1.33.04-2H48.41A66.789,66.789,0,0,1,46,59Z" style="fill:#4a8a3e"/><path d="M14.55,39.182V39H9.59c-.03.67-.04,1.33-.04,2A67.059,67.059,0,0,0,12,59H46c.185-.664.352-1.332.516-2H32.672A18.033,18.033,0,0,1,14.55,39.182Z" style="fill:#38682f"/><path d="M11.905,23a4,4,0,0,1,0-8c.033,0,.064.009.1.01A4.913,4.913,0,0,1,16.786,11a4.755,4.755,0,0,1,1.074.13A3.926,3.926,0,0,1,21.667,8c.033,0,.064.009.1.01a4.854,4.854,0,0,1,9.579.117A4.706,4.706,0,0,1,32.405,8a4.908,4.908,0,0,1,4.8,4.167A3.781,3.781,0,0,1,38.262,12a3.916,3.916,0,0,1,3.771,3.014c.045,0,.088-.014.134-.014a2.933,2.933,0,0,1,2.815,2.22A2.854,2.854,0,0,1,46.071,17a3,3,0,0,1,0,6H44v5.5A1.5,1.5,0,0,1,42.5,30h0A1.5,1.5,0,0,1,41,28.5V25H35v7.5A1.5,1.5,0,0,1,33.5,34h0A1.5,1.5,0,0,1,32,32.5V23Z" style="fill:#afda91"/><path d="M55.913,27H48c-.224-1.072-.481-2.138-.758-3.2A4,4,0,0,0,46.071,16a3.745,3.745,0,0,0-.5.033,3.937,3.937,0,0,0-2.811-1.986,4.833,4.833,0,0,0-4.822-3.034,5.844,5.844,0,0,0-5.856-4,5.836,5.836,0,0,0-11.1.039,4.966,4.966,0,0,0-3.815,2.965,5.874,5.874,0,0,0-5.947,4.034,5.01,5.01,0,0,0-.477,9.8A68.238,68.238,0,0,0,10.708,58H10a3,3,0,0,0,0,6H48a3,3,0,0,0,0-6h-.708a68.137,68.137,0,0,0,1.681-9h6.94A4.091,4.091,0,0,0,60,44.913V31.087A4.091,4.091,0,0,0,55.913,27Zm-6.94,6H54V43H49.419A68.223,68.223,0,0,0,48.973,33ZM9,19a2.959,2.959,0,0,1,2.858-3c.04,0,.087.009.115.01a.99.99,0,0,0,1.01-.807,3.921,3.921,0,0,1,3.8-3.2,3.773,3.773,0,0,1,.849.1,1,1,0,0,0,1.2-.761,2.9,2.9,0,0,1,2.73-2.349c.04.006.127.015.168.016A1.017,1.017,0,0,0,22.746,8.2a3.853,3.853,0,0,1,7.611.094,1,1,0,0,0,1.208.8,3.713,3.713,0,0,1,.84-.1,3.9,3.9,0,0,1,3.812,3.33,1,1,0,0,0,1.265.8,2.792,2.792,0,0,1,.78-.128,2.915,2.915,0,0,1,2.8,2.255,1.016,1.016,0,0,0,1.014.758c.054,0,.108-.009.091-.013a1.941,1.941,0,0,1,1.849,1.475,1,1,0,0,0,1.347.67A1.983,1.983,0,1,1,46.071,22H44a1,1,0,0,0-1,1v5.5a.5.5,0,0,1-1,0V25a1,1,0,0,0-1-1H35a1,1,0,0,0-1,1v7.5a.5.5,0,0,1-1,0V23a1,1,0,0,0-1-1H11.905A2.957,2.957,0,0,1,9,19Zm10.713,5A68,68,0,0,0,17.62,38h-7a66.264,66.264,0,0,1,2.15-14ZM10.564,40h7a68.53,68.53,0,0,0,.349,8.1,1,1,0,0,0,.994.9c.034,0,.069,0,.1-.005a1,1,0,0,0,.89-1.1,66.306,66.306,0,0,1-.338-7.9H28V58H21.774c-.539-2.028-.993-4.1-1.336-6.164a1,1,0,0,0-1.972.328c.324,1.955.754,3.91,1.25,5.836H12.773A66.216,66.216,0,0,1,10.564,40ZM49,61a1,1,0,0,1-1,1H10a1,1,0,0,1,0-2H48A1,1,0,0,1,49,61Zm-3.773-3H38.284a68.391,68.391,0,0,0,2.049-12.94,1,1,0,0,0-2-.12A66.319,66.319,0,0,1,36.226,58H30V40h6a1,1,0,0,0,0-2H30V32a1,1,0,0,0-2,0v6H19.623a66.066,66.066,0,0,1,2.15-14H28v4a1,1,0,0,0,2,0V24h1v8.5a2.5,2.5,0,0,0,5,0V26h.728a66.319,66.319,0,0,1,1.726,15,1,1,0,0,0,2,0,68.379,68.379,0,0,0-1.676-15H40v2.5a2.5,2.5,0,0,0,5,0V24h.227a66.264,66.264,0,0,1,2.15,14H43a1,1,0,0,0,0,2h4.436A66.216,66.216,0,0,1,45.227,58ZM58,44.913A2.09,2.09,0,0,1,55.913,47H49.18c.058-.666.109-1.333.148-2H55a1,1,0,0,0,1-1V32a1,1,0,0,0-1-1H48.708c-.1-.668-.206-1.335-.325-2h7.53A2.09,2.09,0,0,1,58,31.087Z"/><path d="M18,19a1,1,0,0,0,1-1,2.016,2.016,0,0,1,2.744-1.852.994.994,0,0,0,.818-.033,1.006,1.006,0,0,0,.519-.634A2,2,0,0,1,25,14a1,1,0,0,0,0-2,4,4,0,0,0-3.472,2.036A3.882,3.882,0,0,0,21,14a4,4,0,0,0-4,4A1,1,0,0,0,18,19Z"/><path d="M34.5,16a1.5,1.5,0,0,1,1.471,1.227,1,1,0,0,0,.8.8A1.5,1.5,0,0,1,38,19.5a1,1,0,0,0,2,0,3.494,3.494,0,0,0-2.239-3.261A3.494,3.494,0,0,0,34.5,14a1,1,0,0,0,0,2Z"/><path d="M38,6a3,3,0,1,0-3-3A3,3,0,0,0,38,6Zm0-4a1,1,0,1,1-1,1A1,1,0,0,1,38,2Z"/><path d="M52,14a3,3,0,1,0-3-3A3,3,0,0,0,52,14Zm0-4a1,1,0,1,1-1,1A1,1,0,0,1,52,10Z"/><path d="M10,8a3,3,0,1,0-3,3A3,3,0,0,0,10,8ZM6,8A1,1,0,1,1,7,9,1,1,0,0,1,6,8Z"/></g></svg>