<svg xmlns="http://www.w3.org/2000/svg" viewBox="0 0 64 64"><g id="_04-calendar" data-name="04-calendar"><path d="M55.565,62H8.435A7.435,7.435,0,0,1,1,54.565V25H63V54.565A7.435,7.435,0,0,1,55.565,62Z" style="fill:#b85c38"/><path d="M16.435,54A7.435,7.435,0,0,1,9,46.565V25H1V54.565A7.435,7.435,0,0,0,8.435,62h47.13A7.435,7.435,0,0,0,63,54.565V54Z" style="fill:#a03d1f"/><path d="M8.435,7h47.13A7.435,7.435,0,0,1,63,14.435V25a0,0,0,0,1,0,0H1a0,0,0,0,1,0,0V14.435A7.435,7.435,0,0,1,8.435,7Z" style="fill:#ffa540"/><path d="M9,18.435A7.435,7.435,0,0,1,16.435,11h45.72a7.429,7.429,0,0,0-6.59-4H8.435A7.435,7.435,0,0,0,1,14.435V25H9Z" style="fill:#f4902c"/><path d="M17.166,37.813c-1.821,1.82-1.575,5.018.549,7.142a6.244,6.244,0,0,0,1.49,1.1,6.244,6.244,0,0,0-1.49,1.1c-2.124,2.124-2.37,5.322-.549,7.142s5.018,1.575,7.142-.549L32,46.054l-7.692-7.692C22.184,36.238,18.986,35.992,17.166,37.813Z" style="fill:#4a8a3e"/><path d="M19.119,46c.029.016.056.038.086.054a6.244,6.244,0,0,0-1.49,1.1c-2.124,2.124-2.37,5.322-.549,7.142s5.018,1.575,7.142-.549L32,46.054,31.946,46Z" style="fill:#7ac147"/><path d="M23.759,31.22c1.82-1.821,5.018-1.575,7.142.549a6.244,6.244,0,0,1,1.1,1.49,6.244,6.244,0,0,1,1.1-1.49c2.124-2.124,5.322-2.37,7.142-.549s1.575,5.018-.549,7.142L32,46.054l-7.692-7.692C22.184,36.238,21.938,33.04,23.759,31.22Z" style="fill:#4a8a3e"/><path d="M32,33.259a6.224,6.224,0,0,0-1.1-1.49c-2.124-2.124-5.322-2.37-7.142-.549s-1.575,5.018.549,7.142L32,46.054Z" style="fill:#7ac147"/><path d="M46.834,54.3c1.821-1.82,1.575-5.018-.549-7.142a6.244,6.244,0,0,0-1.49-1.1,6.244,6.244,0,0,0,1.49-1.1c2.124-2.124,2.37-5.322.549-7.142s-5.018-1.575-7.142.549L32,46.054l7.692,7.692C41.816,55.87,45.014,56.116,46.834,54.3Z" style="fill:#4a8a3e"/><path d="M44.881,46a6.212,6.212,0,0,0,1.4-1.045c2.124-2.124,2.37-5.322.549-7.142s-5.018-1.575-7.142.549L32.054,46Z" style="fill:#7ac147"/><rect x="11" y="2" width="4" height="12" rx="2" style="fill:#692b1c"/><rect x="49" y="2" width="4" height="12" rx="2" style="fill:#692b1c"/><path d="M55.565,6H54V4a3,3,0,0,0-6,0V6H16V4a3,3,0,0,0-6,0V6H8.435A8.445,8.445,0,0,0,0,14.435v40.13A8.445,8.445,0,0,0,8.435,63h47.13A8.445,8.445,0,0,0,64,54.565V14.435A8.445,8.445,0,0,0,55.565,6ZM50,4a1,1,0,0,1,2,0v8a1,1,0,0,1-2,0ZM12,4a1,1,0,0,1,2,0v8a1,1,0,0,1-2,0ZM55.565,61H8.435A6.443,6.443,0,0,1,2,54.565V26H53a1,1,0,0,0,0-2H2V14.435A6.443,6.443,0,0,1,8.435,8H10v4a3,3,0,0,0,6,0V8H48v4a3,3,0,0,0,6,0V8h1.565A6.443,6.443,0,0,1,62,14.435V24H57a1,1,0,0,0,0,2h5V54.565A6.443,6.443,0,0,1,55.565,61Z"/><path d="M49.036,41.347a5.311,5.311,0,0,0-1.5-4.242,5.5,5.5,0,0,0-5.272-1.321,5.5,5.5,0,0,0-1.321-5.271,5.318,5.318,0,0,0-4.241-1.5,6.889,6.889,0,0,0-4.315,2.044q-.2.2-.392.424c-.125-.147-.255-.288-.392-.424a6.889,6.889,0,0,0-4.315-2.044,5.206,5.206,0,0,0-5.735,5.735,6.344,6.344,0,0,0,.177,1.032,5.509,5.509,0,0,0-5.276,1.32,5.311,5.311,0,0,0-1.495,4.242,6.894,6.894,0,0,0,2.044,4.316c.137.136.278.266.425.391-.147.125-.288.256-.425.392a6.889,6.889,0,0,0-2.044,4.315A5.307,5.307,0,0,0,16.459,55a5.238,5.238,0,0,0,3.767,1.513q.236,0,.474-.018a6.9,6.9,0,0,0,4.316-2.044L31,48.468V57a1,1,0,0,0,2,0V48.468l3.739,3.739a1,1,0,0,0,1.414-1.414l-4.739-4.739L40.4,39.069c1.731-1.731,4.3-1.976,5.729-.549a3.338,3.338,0,0,1,.915,2.673,4.887,4.887,0,0,1-1.464,3.055,5.244,5.244,0,0,1-1.252.922,1,1,0,0,0,0,1.767,5.248,5.248,0,0,1,1.252.923,4.887,4.887,0,0,1,1.464,3.055,3.34,3.34,0,0,1-.915,2.673c-1.428,1.427-4,1.182-5.729-.549a1,1,0,0,0-1.414,1.414,6.841,6.841,0,0,0,4.784,2.056,5.181,5.181,0,0,0,5.268-5.748,6.889,6.889,0,0,0-2.044-4.315c-.137-.136-.278-.267-.425-.392.147-.125.288-.256.425-.392A6.889,6.889,0,0,0,49.036,41.347ZM23.6,53.039A4.894,4.894,0,0,1,20.547,54.5a3.211,3.211,0,0,1-3.589-3.587,4.887,4.887,0,0,1,1.464-3.055,5.248,5.248,0,0,1,1.252-.923,1,1,0,0,0,0-1.767,5.244,5.244,0,0,1-1.252-.922,4.887,4.887,0,0,1-1.464-3.055,3.338,3.338,0,0,1,.915-2.673,3.286,3.286,0,0,1,2.362-.929A4.85,4.85,0,0,1,23.6,39.069l6.984,6.985Zm8.4-8.4-6.984-6.985A4.891,4.891,0,0,1,23.551,34.6a3.211,3.211,0,0,1,3.589-3.588,4.891,4.891,0,0,1,3.054,1.465,5.16,5.16,0,0,1,.922,1.25,1.041,1.041,0,0,0,1.768,0,5.185,5.185,0,0,1,.922-1.251,4.9,4.9,0,0,1,3.054-1.464,3.324,3.324,0,0,1,2.674.915c1.428,1.427,1.181,4-.55,5.728Z"/><path d="M23,16H41a1,1,0,0,0,0-2H23a1,1,0,0,0,0,2Z"/><path d="M43,18H21a1,1,0,0,0,0,2H43a1,1,0,0,0,0-2Z"/></g></svg>