<svg xmlns="http://www.w3.org/2000/svg" viewBox="0 0 64 64"><g id="_02-clover_leaf" data-name="02-clover leaf"><path d="M63,43.62a9.046,9.046,0,0,1-9.04,9.05,9.356,9.356,0,0,1-1.41-.12,9.356,9.356,0,0,1,.12,1.41,9.045,9.045,0,0,1-18.09,0L32.8,43.25a.812.812,0,0,0-1.6,0L29.42,53.96a9.045,9.045,0,0,1-18.09,0,9.356,9.356,0,0,1,.12-1.41,9.356,9.356,0,0,1-1.41.12,9.045,9.045,0,0,1,0-18.09L20.75,32.8a.813.813,0,0,0,0-1.6L10.04,29.42a9.045,9.045,0,0,1,0-18.09,9.356,9.356,0,0,1,1.41.12,9.356,9.356,0,0,1-.12-1.41,9.045,9.045,0,0,1,18.09,0L31.2,20.75a.812.812,0,0,0,1.6,0l1.78-10.71a9.045,9.045,0,0,1,18.09,0,9.356,9.356,0,0,1-.12,1.41,9.356,9.356,0,0,1,1.41-.12,9.045,9.045,0,0,1,0,18.09L43.25,31.2a.813.813,0,0,0,0,1.6l10.71,1.78A9.043,9.043,0,0,1,63,43.62Z" style="fill:#7ac147"/><path d="M32,32H21.42a.789.789,0,0,1-.67.8L10.04,34.58a9.045,9.045,0,0,0,0,18.09,9.356,9.356,0,0,0,1.41-.12,9.356,9.356,0,0,0-.12,1.41,9.045,9.045,0,0,0,18.09,0L31.2,43.25a.788.788,0,0,1,.8-.675Z" style="fill:#4a8a3e"/><path d="M63,20.38a9.043,9.043,0,0,1-9.04,9.04L43.25,31.2a.789.789,0,0,0-.67.8H32V21.43a.8.8,0,0,0,.8-.68l1.78-10.71a9.045,9.045,0,0,1,18.09,0,9.356,9.356,0,0,1-.12,1.41,9.356,9.356,0,0,1,1.41-.12A9.046,9.046,0,0,1,63,20.38Z" style="fill:#4a8a3e"/><circle cx="32" cy="32" r="2" style="fill:#b85c38"/><path d="M23.464,23.464h0a9.722,9.722,0,0,0,7.072,7.072h0a9.722,9.722,0,0,0-7.072-7.072Z" style="fill:#ff914e"/><path d="M40.536,23.464h0a9.722,9.722,0,0,1-7.072,7.072h0a9.722,9.722,0,0,1,7.072-7.072Z" style="fill:#ff914e"/><path d="M40.536,40.536h0a9.722,9.722,0,0,0-7.072-7.072h0a9.722,9.722,0,0,0,7.072,7.072Z" style="fill:#ff914e"/><path d="M23.464,40.536h0a9.722,9.722,0,0,1,7.072-7.072h0a9.722,9.722,0,0,1-7.072,7.072Z" style="fill:#ff914e"/><path d="M29.753,51.939h0a1,1,0,0,1-.822-1.15L30.2,43.181a1.881,1.881,0,0,1,1.718-1.6,1.785,1.785,0,0,1,1.868,1.511l1.283,7.7a1,1,0,0,1-.822,1.151h0a1,1,0,0,1-1.151-.822L32,44.541l-1.1,6.577A1,1,0,0,1,29.753,51.939Z"/><path d="M20.165,64a10.154,10.154,0,0,1-9.212-7.044,8.238,8.238,0,0,1-.614-3.293,8.29,8.29,0,0,1-3.32-.623,9.942,9.942,0,0,1,1.91-19.393,1.007,1.007,0,0,1,1.113,1h0a.99.99,0,0,1-.878.986A7.9,7.9,0,0,0,6.7,50.723a6.728,6.728,0,0,0,4.6.835A1,1,0,0,1,12.442,52.7a6.7,6.7,0,0,0,.824,4.579,8.01,8.01,0,0,0,6.722,4.711,8.052,8.052,0,0,0,8.381-7.155.99.99,0,0,1,.986-.878h0a1.007,1.007,0,0,1,1,1.113A10.055,10.055,0,0,1,20.165,64Z"/><path d="M12.051,34.249h0a1,1,0,0,1,.822-1.151L19.459,32l-6.6-1.1a1,1,0,0,1-.822-1.151h0a1,1,0,0,1,1.151-.821l7.63,1.271a1.881,1.881,0,0,1,1.605,1.718,1.785,1.785,0,0,1-1.511,1.868L13.2,35.07A1,1,0,0,1,12.051,34.249Z"/><path d="M8.929,30.355A10.056,10.056,0,0,1,0,20.311a10.135,10.135,0,0,1,7.019-9.349,8.29,8.29,0,0,1,3.32-.623,8.29,8.29,0,0,1,.623-3.32A10.135,10.135,0,0,1,20.311,0,10.056,10.056,0,0,1,30.355,8.929a1.007,1.007,0,0,1-1,1.113h0a.99.99,0,0,1-.986-.878A7.9,7.9,0,0,0,13.277,6.7a6.728,6.728,0,0,0-.835,4.6A1,1,0,0,1,11.3,12.442a6.728,6.728,0,0,0-4.6.835A7.9,7.9,0,0,0,9.164,28.369a.99.99,0,0,1,.878.986h0A1.007,1.007,0,0,1,8.929,30.355Z"/><path d="M31.917,22.424A1.882,1.882,0,0,1,30.2,20.819l-1.3-7.786a1,1,0,0,1,.821-1.151h0a1,1,0,0,1,1.151.822L32,19.458l1.108-6.647a1,1,0,0,1,1.151-.822h0a1,1,0,0,1,.822,1.151l-1.3,7.773A1.785,1.785,0,0,1,31.917,22.424Z"/><path d="M53.958,29.355h0a.99.99,0,0,1,.878-.986,7.9,7.9,0,0,0,2.469-15.092,6.728,6.728,0,0,0-4.6-.835A1,1,0,0,1,51.558,11.3a6.728,6.728,0,0,0-.835-4.6A7.9,7.9,0,0,0,35.631,9.164a.99.99,0,0,1-.986.878h0a1.007,1.007,0,0,1-1-1.113,9.942,9.942,0,0,1,19.393-1.91,8.29,8.29,0,0,1,.623,3.32,8.29,8.29,0,0,1,3.32.623A10.135,10.135,0,0,1,64,20.311a10.056,10.056,0,0,1-8.929,10.044A1.007,1.007,0,0,1,53.958,29.355Z"/><path d="M50.829,35.075,43.181,33.8a1.881,1.881,0,0,1-1.6-1.718,1.785,1.785,0,0,1,1.511-1.868l7.795-1.3a1,1,0,0,1,1.151.822h0a1,1,0,0,1-.822,1.151L44.542,32l6.616,1.1a1,1,0,0,1,.822,1.151h0A1,1,0,0,1,50.829,35.075Z"/><path d="M43.689,64a10.056,10.056,0,0,1-10.044-8.929,1.007,1.007,0,0,1,1-1.113h0a.99.99,0,0,1,.986.878,7.9,7.9,0,0,0,15.092,2.469,6.728,6.728,0,0,0,.835-4.6A1,1,0,0,1,52.7,51.558a6.728,6.728,0,0,0,4.6-.835,7.9,7.9,0,0,0-2.469-15.092.99.99,0,0,1-.878-.986h0a1.007,1.007,0,0,1,1.113-1,9.942,9.942,0,0,1,1.91,19.393,8.29,8.29,0,0,1-3.32.623,8.29,8.29,0,0,1-.623,3.32A10.135,10.135,0,0,1,43.689,64Z"/><path d="M34.857,32.867a2.7,2.7,0,0,0,0-1.734,10.686,10.686,0,0,0,6.649-7.426,1,1,0,0,0-1.213-1.213,10.686,10.686,0,0,0-7.426,6.649,2.7,2.7,0,0,0-1.734,0,10.686,10.686,0,0,0-7.426-6.649,1,1,0,0,0-1.213,1.213,10.686,10.686,0,0,0,6.649,7.426,2.7,2.7,0,0,0,0,1.734,10.688,10.688,0,0,0-6.649,7.426,1,1,0,0,0,1.213,1.213,10.688,10.688,0,0,0,7.426-6.649,2.7,2.7,0,0,0,1.734,0,10.686,10.686,0,0,0,7.426,6.649,1,1,0,0,0,1.213-1.213A10.686,10.686,0,0,0,34.857,32.867Zm3.958-7.682a8.691,8.691,0,0,1-3.63,3.63A8.691,8.691,0,0,1,38.815,25.185Zm-13.63,0a8.691,8.691,0,0,1,3.63,3.63A8.691,8.691,0,0,1,25.185,25.185Zm0,13.63a8.691,8.691,0,0,1,3.63-3.63A8.691,8.691,0,0,1,25.185,38.815ZM31,32a1,1,0,1,1,1,1A1,1,0,0,1,31,32Zm4.185,3.185a8.691,8.691,0,0,1,3.63,3.63A8.691,8.691,0,0,1,35.185,35.185Z"/></g></svg>