<svg id="_01-clovers" data-name="01-clovers" xmlns="http://www.w3.org/2000/svg" viewBox="0 0 64 64"><path d="M48.714,50.566s-3.48,6.892-7.376,9.61a1.515,1.515,0,0,0-.254,2.319l.058.06a1.5,1.5,0,0,0,2.1.031C45.479,60.455,50.246,55.223,48.714,50.566Z" style="fill:#a84527"/><path d="M40.864,38.994c-2.016.663-3.023,3.107-2.249,5.458a5.118,5.118,0,0,0,.687,1.361,5.152,5.152,0,0,0-1.5.255c-2.352.774-3.721,3.034-3.058,5.05s3.107,3.022,5.458,2.249l8.515-2.8-2.8-8.515C45.14,39.7,42.879,38.331,40.864,38.994Z" style="fill:#7ac147"/><path d="M48.162,36.594c2.016-.663,4.276.7,5.05,3.057a5.153,5.153,0,0,1,.255,1.5,5.15,5.15,0,0,1,1.361-.688c2.352-.773,4.795.234,5.458,2.249s-.706,4.276-3.057,5.05l-8.515,2.8-2.8-8.515C45.14,39.7,46.147,37.257,48.162,36.594Z" style="fill:#56b348"/><path d="M56.564,62.138c2.015-.663,3.022-3.106,2.249-5.457a5.141,5.141,0,0,0-.688-1.362,5.12,5.12,0,0,0,1.5-.255c2.352-.773,3.72-3.034,3.057-5.049s-3.106-3.023-5.457-2.249l-8.515,2.8,2.8,8.515C52.288,61.432,54.549,62.8,56.564,62.138Z" style="fill:#4a8a3e"/><path d="M56.564,62.138c2.015-.663,3.022-3.106,2.249-5.457a5.141,5.141,0,0,0-.688-1.362,5.12,5.12,0,0,0,1.5-.255c2.352-.773,3.72-3.034,3.057-5.049s-3.106-3.023-5.457-2.249l-8.515,2.8,2.8,8.515C52.288,61.432,54.549,62.8,56.564,62.138Z" style="fill:#4a8a3e"/><path d="M16,1c-3.314,0-6,3.134-6,7a8.025,8.025,0,0,0,.356,2.356A8.025,8.025,0,0,0,8,10c-3.866,0-7,2.686-7,6s3.134,6,7,6H22V8C22,4.134,19.314,1,16,1Z" style="fill:#7ac147"/><path d="M8,10c-3.866,0-7,2.686-7,6s3.134,6,7,6H22L10.356,10.356A8.025,8.025,0,0,0,8,10Z" style="fill:#67aa33"/><path d="M28,43c3.314,0,6-3.134,6-7a8.025,8.025,0,0,0-.356-2.356A8.025,8.025,0,0,0,36,34c3.866,0,7-2.686,7-6s-3.134-6-7-6H22V36C22,39.866,24.686,43,28,43Z" style="fill:#7ac147"/><path d="M36,22H22L33.644,33.644A8.025,8.025,0,0,0,36,34c3.866,0,7-2.686,7-6S39.866,22,36,22Z" style="fill:#67aa33"/><path d="M24.28,41.492v-.006A7.458,7.458,0,0,1,22,36a7.821,7.821,0,0,1-.973,3.814l0,.012a29.462,29.462,0,0,1-2.3,10.822A1.554,1.554,0,0,0,20.612,52.8a4.422,4.422,0,0,0,2.944-3.36C24.06,46.828,24.915,43.4,24.28,41.492Z" style="fill:#b85c38"/><path d="M16,43c-3.314,0-6-3.134-6-7a8.025,8.025,0,0,1,.356-2.356A8.025,8.025,0,0,1,8,34c-3.866,0-7-2.686-7-6s3.134-6,7-6H22V36C22,39.866,19.314,43,16,43Z" style="fill:#4a8a3e"/><path d="M28,1c3.314,0,6,3.134,6,7a8.025,8.025,0,0,1-.356,2.356A8.025,8.025,0,0,1,36,10c3.866,0,7,2.686,7,6s-3.134,6-7,6H22V8C22,4.134,24.686,1,28,1Z" style="fill:#4a8a3e"/><path d="M10.167,34.466A7.868,7.868,0,0,0,10,36c0,3.866,2.686,7,6,7s6-3.134,6-7V22.16Z" style="fill:#3a7c2d"/><path d="M34,8c0-3.866-2.686-7-6-7s-6,3.134-6,7V22L33.644,10.356A8.025,8.025,0,0,0,34,8Z" style="fill:#3a7c2d"/><path d="M63.636,49.7a4.659,4.659,0,0,0-3.26-2.963,4.666,4.666,0,0,0,.86-4.335c-.834-2.536-3.848-3.83-6.72-2.887-.091.03-.182.062-.271.1-.025-.092-.053-.183-.083-.275a5.858,5.858,0,0,0-2.491-3.2,4.553,4.553,0,0,0-3.821-.492,4.66,4.66,0,0,0-2.967,3.272,5.344,5.344,0,0,0-.51-.379,4.545,4.545,0,0,0-3.822-.493c-2.536.834-3.831,3.849-2.886,6.72.03.091.062.181.1.271-.092.026-.184.053-.275.084-2.871.944-4.528,3.775-3.694,6.311a4.916,4.916,0,0,0,4.813,3.2,6.094,6.094,0,0,0,1.907-.309l6.069-2c-1.312,2.184-3.508,5.426-5.815,7.035a2.576,2.576,0,0,0-1.1,1.881,2.535,2.535,0,0,0,4.267,2.075,22.123,22.123,0,0,0,5.438-7.55l1.2,3.633a5.854,5.854,0,0,0,2.491,3.2,4.736,4.736,0,0,0,2.456.711,4.34,4.34,0,0,0,1.364-.219,4.547,4.547,0,0,0,2.783-2.664,5.857,5.857,0,0,0,.1-4.056c-.03-.091-.062-.181-.1-.271.092-.025.184-.053.275-.083C62.813,55.069,64.47,52.238,63.636,49.7ZM39.887,52.417c-1.825.6-3.706-.123-4.2-1.612s.6-3.187,2.419-3.786a4.136,4.136,0,0,1,1.212-.206,1,1,0,0,0,.8-1.576,4.172,4.172,0,0,1-.555-1.1c-.6-1.824.124-3.705,1.612-4.195a2.578,2.578,0,0,1,2.16.3,3.855,3.855,0,0,1,1.626,2.113v.005l.97,2.947a1,1,0,0,0,1.9-.625l-.97-2.949c-.6-1.824.123-3.706,1.612-4.2a2.583,2.583,0,0,1,2.16.3,3.859,3.859,0,0,1,1.627,2.116,4.185,4.185,0,0,1,.2,1.213,1,1,0,0,0,1.577.795,4.132,4.132,0,0,1,1.1-.554c1.824-.6,3.706.123,4.2,1.612s-.6,3.187-2.42,3.787L49.351,49.3l-.532-1.616a1,1,0,1,0-1.9.625l.532,1.616Zm2.665,9.445a.523.523,0,0,1-.759-.071.459.459,0,0,1-.136-.375.576.576,0,0,1,.254-.42,24.767,24.767,0,0,0,5.86-6.786C46.921,57.38,44.045,60.44,42.552,61.862Zm16.765-7.748a4.124,4.124,0,0,1-1.212.205,1,1,0,0,0-.8,1.577,4.132,4.132,0,0,1,.554,1.1,3.853,3.853,0,0,1-.053,2.669,2.58,2.58,0,0,1-1.559,1.526h0a2.579,2.579,0,0,1-2.16-.3,3.863,3.863,0,0,1-1.627-2.116L49.976,51.2l7.565-2.489c1.825-.6,3.706.123,4.2,1.612S61.141,53.514,59.317,54.114Z"/><path d="M40,17a1,1,0,0,1-1-1,1,1,0,0,0-1-1,1,1,0,0,1,0-2,3,3,0,0,1,3,3A1,1,0,0,1,40,17Z"/><path d="M40.1,22A6.88,6.88,0,0,0,44,16c0-3.86-3.589-7-8-7a9,9,0,0,0-1.063.063A9,9,0,0,0,35,8c0-4.411-3.14-8-7-8a6.88,6.88,0,0,0-6,3.9A6.88,6.88,0,0,0,16,0C12.14,0,9,3.589,9,8a8.819,8.819,0,0,0,.064,1.064A8.819,8.819,0,0,0,8,9c-4.411,0-8,3.14-8,7a6.88,6.88,0,0,0,3.9,6A6.88,6.88,0,0,0,0,28c0,3.86,3.589,7,8,7a9,9,0,0,0,1.063-.063A9,9,0,0,0,9,36c0,4.411,3.14,8,7,8a6.347,6.347,0,0,0,3.81-1.3,25.253,25.253,0,0,1-1.994,7.519,2.553,2.553,0,0,0,3.112,3.524,5.432,5.432,0,0,0,3.61-4.119,1,1,0,0,0-1.964-.379,3.428,3.428,0,0,1-2.278,2.6.545.545,0,0,1-.426-.03.556.556,0,0,1-.246-.741,29.867,29.867,0,0,0,2.395-10.941,7.88,7.88,0,0,0,1.354,1.852,11.331,11.331,0,0,1-.138,3.847,1,1,0,0,0,.821,1.152.949.949,0,0,0,.167.014,1,1,0,0,0,.985-.834,19.531,19.531,0,0,0,.29-2.7A6.178,6.178,0,0,0,28,44c3.86,0,7-3.589,7-8a8.819,8.819,0,0,0-.064-1.064A8.819,8.819,0,0,0,36,35c4.411,0,8-3.14,8-7A6.88,6.88,0,0,0,40.1,22ZM28,2c2.757,0,5,2.691,5,6a7.01,7.01,0,0,1-.312,2.062,1,1,0,0,0,1.249,1.25A7.037,7.037,0,0,1,36,11c3.309,0,6,2.243,6,5s-2.691,5-6,5H23V8C23,4.691,25.243,2,28,2ZM2,16c0-2.757,2.691-5,6-5a7.037,7.037,0,0,1,2.063.312,1,1,0,0,0,1.249-1.249A7.037,7.037,0,0,1,11,8c0-3.309,2.243-6,5-6s5,2.691,5,6V21H8C4.691,21,2,18.757,2,16ZM16,42c-2.757,0-5-2.691-5-6a7.01,7.01,0,0,1,.312-2.062,1,1,0,0,0-1.249-1.25A7.037,7.037,0,0,1,8,33c-3.309,0-6-2.243-6-5s2.691-5,6-5H21V36C21,39.309,18.757,42,16,42Zm20-9a7.037,7.037,0,0,1-2.063-.312,1,1,0,0,0-1.249,1.249A7.037,7.037,0,0,1,33,36c0,3.309-2.243,6-5,6s-5-2.691-5-6V23H36c3.309,0,6,2.243,6,5S39.309,33,36,33Z"/><path d="M16,3a3,3,0,0,0-3,3,1,1,0,0,0,2,0,1,1,0,0,1,1-1,1,1,0,0,0,0-2Z"/><path d="M30,37a1,1,0,0,0-1,1,1,1,0,0,1-1,1,1,1,0,0,0,0,2,3,3,0,0,0,3-3A1,1,0,0,0,30,37Z"/><path d="M6,29a1,1,0,0,1-1-1,1,1,0,0,0-2,0,3,3,0,0,0,3,3,1,1,0,0,0,0-2Z"/></svg>