<svg xmlns="http://www.w3.org/2000/svg" viewBox="0 0 64 64"><g id="_18-coin" data-name="18-coin"><circle cx="35" cy="46" r="17" style="fill:#ee9d22"/><circle cx="35" cy="46" r="13" style="fill:#fad550"/><path d="M24,46A12.992,12.992,0,0,1,36,33.051c-.331-.026-.662-.051-1-.051a13,13,0,0,0,0,26c.338,0,.669-.025,1-.051A12.992,12.992,0,0,1,24,46Z" style="fill:#c9a42f"/><path d="M34.442,48.985a.616.616,0,0,1,1.116,0c.112.237.226.494.386.871A4.723,4.723,0,0,0,37.362,52a2.308,2.308,0,0,0,3.529-2.578,2.352,2.352,0,0,0-.137-.335,2.21,2.21,0,0,0,.353-.078A2.306,2.306,0,0,0,42.62,46.12a2.333,2.333,0,0,0-2.6-1.561c-.858.1-1.462.186-2.116.286a.617.617,0,0,1-.59-.975c.421-.574.813-1.109,1.3-1.839A2.334,2.334,0,0,0,38.44,39a2.306,2.306,0,0,0-3.263,0,2.425,2.425,0,0,0-.234.276,2.307,2.307,0,0,0-4.153,1.656,4.715,4.715,0,0,0,1.245,2.251c.212.259.376.465.523.656a.617.617,0,0,1-.582.987c-.6-.092-1.155-.174-1.993-.268a2.333,2.333,0,0,0-2.6,1.561,2.306,2.306,0,0,0,1.513,2.891,2.21,2.21,0,0,0,.353.078,2.352,2.352,0,0,0-.137.335A2.308,2.308,0,0,0,32.638,52a4.723,4.723,0,0,0,1.418-2.146C34.216,49.479,34.33,49.222,34.442,48.985Z" style="fill:#4a8a3e"/><circle cx="18" cy="24" r="17" style="fill:#ee9d22"/><circle cx="18" cy="24" r="13" style="fill:#fad550"/><path d="M7,24A12.992,12.992,0,0,1,19,11.051c-.331-.026-.662-.051-1-.051a13,13,0,0,0,0,26c.338,0,.669-.025,1-.051A12.992,12.992,0,0,1,7,24Z" style="fill:#c9a42f"/><path d="M17.442,26.985a.616.616,0,0,1,1.116,0c.112.237.226.494.386.871A4.723,4.723,0,0,0,20.362,30a2.308,2.308,0,0,0,3.529-2.578,2.352,2.352,0,0,0-.137-.335,2.21,2.21,0,0,0,.353-.078A2.306,2.306,0,0,0,25.62,24.12a2.333,2.333,0,0,0-2.6-1.561c-.858.1-1.462.186-2.116.286a.617.617,0,0,1-.59-.975c.421-.574.813-1.109,1.3-1.839A2.334,2.334,0,0,0,21.44,17a2.306,2.306,0,0,0-3.263,0,2.425,2.425,0,0,0-.234.276,2.307,2.307,0,0,0-4.153,1.656,4.715,4.715,0,0,0,1.245,2.251c.212.259.376.465.523.656a.617.617,0,0,1-.582.987c-.6-.092-1.155-.174-1.993-.268a2.333,2.333,0,0,0-2.6,1.561,2.306,2.306,0,0,0,1.513,2.891,2.21,2.21,0,0,0,.353.078,2.352,2.352,0,0,0-.137.335A2.308,2.308,0,0,0,15.638,30a4.723,4.723,0,0,0,1.418-2.146C17.216,27.479,17.33,27.222,17.442,26.985Z" style="fill:#4a8a3e"/><circle cx="46" cy="18" r="17" style="fill:#ee9d22"/><circle cx="46" cy="18" r="13" style="fill:#fad550"/><path d="M35,18A12.992,12.992,0,0,1,47,5.051C46.669,5.025,46.338,5,46,5a13,13,0,0,0,0,26c.338,0,.669-.025,1-.051A12.992,12.992,0,0,1,35,18Z" style="fill:#c9a42f"/><path d="M45.442,20.985a.616.616,0,0,1,1.116,0c.112.237.226.494.386.871A4.723,4.723,0,0,0,48.362,24a2.308,2.308,0,0,0,3.529-2.578,2.352,2.352,0,0,0-.137-.335,2.21,2.21,0,0,0,.353-.078A2.306,2.306,0,0,0,53.62,18.12a2.333,2.333,0,0,0-2.6-1.561c-.858.1-1.462.186-2.116.286a.617.617,0,0,1-.59-.975c.421-.574.813-1.109,1.3-1.839A2.334,2.334,0,0,0,49.44,11a2.306,2.306,0,0,0-3.263,0,2.425,2.425,0,0,0-.234.276,2.307,2.307,0,0,0-4.153,1.656,4.715,4.715,0,0,0,1.245,2.251c.212.259.376.465.523.656a.617.617,0,0,1-.582.987c-.6-.092-1.155-.174-1.993-.268a2.333,2.333,0,0,0-2.6,1.561,2.306,2.306,0,0,0,1.513,2.891,2.21,2.21,0,0,0,.353.078,2.352,2.352,0,0,0-.137.335A2.308,2.308,0,0,0,43.638,24a4.723,4.723,0,0,0,1.418-2.146C45.216,21.479,45.33,21.222,45.442,20.985Z" style="fill:#4a8a3e"/><path d="M49.528,37.111a1,1,0,0,0-.41,1.354A15.994,15.994,0,0,1,50.968,45H48.959a13.838,13.838,0,0,0-2.923-7.616,1,1,0,0,0-1.576,1.232A11.877,11.877,0,0,1,47,46a12,12,0,0,1-24,0,12.136,12.136,0,0,1,.141-1.848,1,1,0,1,0-1.976-.3c-.059.38-.1.765-.127,1.152h-1.98c.018-.3.017-.592.051-.884a1,1,0,1,0-1.986-.232A18.429,18.429,0,0,0,17,46a18,18,0,1,0,33.882-8.479A1,1,0,0,0,49.528,37.111ZM19.051,47h2A14,14,0,0,0,34,59.949v2A16,16,0,0,1,19.051,47ZM36,61.949v-2A14,14,0,0,0,48.949,47h2A16,16,0,0,1,36,61.949Z"/><path d="M43.574,45.82a3.31,3.31,0,0,0-3.67-2.256c-.476.054-.876.106-1.248.159.246-.342.5-.7.789-1.132a3.311,3.311,0,0,0-.3-4.3,3.387,3.387,0,0,0-4.2-.395,3.387,3.387,0,0,0-4.2.395,3.33,3.33,0,0,0-.941,2.768A5.328,5.328,0,0,0,31.162,43.7c-.314-.042-.658-.086-1.067-.132a3.295,3.295,0,0,0-2.07,6.164A3.3,3.3,0,0,0,31.3,53.419a3.329,3.329,0,0,0,1.909-.6,5.616,5.616,0,0,0,1.765-2.575L35,50.192l.023.056a5.613,5.613,0,0,0,1.764,2.572,3.336,3.336,0,0,0,2.89.451,3.313,3.313,0,0,0,2.3-3.542A3.314,3.314,0,0,0,43.574,45.82Zm-2.762,2.236a1.328,1.328,0,0,1-.206.045,1,1,0,0,0-.749,1.433,1.193,1.193,0,0,1,.08.19,1.308,1.308,0,0,1-2,1.46,4,4,0,0,1-1.073-1.718c-.166-.392-.285-.66-.4-.906a1.616,1.616,0,0,0-2.926,0c-.116.246-.235.514-.4.905a4,4,0,0,1-1.073,1.719,1.323,1.323,0,0,1-1.142.178,1.307,1.307,0,0,1-.857-1.641,1.246,1.246,0,0,1,.078-.187,1,1,0,0,0-.748-1.433,1.46,1.46,0,0,1-.2-.043,1.287,1.287,0,0,1,.475-2.517,1.741,1.741,0,0,1,.206.012c.821.092,1.363.172,1.953.261a1.617,1.617,0,0,0,1.526-2.583c-.153-.2-.323-.412-.543-.68A4,4,0,0,1,31.782,40.8a1.315,1.315,0,0,1,.372-1.095,1.339,1.339,0,0,1,1.849,0,1.484,1.484,0,0,1,.132.157,1.036,1.036,0,0,0,1.617,0,1.484,1.484,0,0,1,.132-.157,1.309,1.309,0,0,1,1.849,0,1.362,1.362,0,0,1,.054,1.764c-.483.716-.868,1.242-1.283,1.807a1.617,1.617,0,0,0,1.548,2.554c.642-.1,1.235-.186,2.076-.28a1.363,1.363,0,0,1,1.538.865A1.309,1.309,0,0,1,40.812,48.056Z"/><path d="M33.272,33.53a1,1,0,1,0-1.695-1.06A15.915,15.915,0,0,1,19,39.968v-2a13.96,13.96,0,0,0,11.422-7.5,1,1,0,1,0-1.773-.924,12,12,0,1,1-2.981-14.769,1,1,0,1,0,1.278-1.538A14.008,14.008,0,0,0,19,10.044V8.037a15.888,15.888,0,0,1,8.078,2.786,1,1,0,1,0,1.136-1.646A18,18,0,1,0,33.272,33.53ZM17,8.051v2A14,14,0,0,0,4.051,23h-2A16,16,0,0,1,17,8.051ZM2.051,25h2A14,14,0,0,0,17,37.949v2A16,16,0,0,1,2.051,25Z"/><path d="M26.575,23.82a3.324,3.324,0,0,0-3.67-2.256c-.476.054-.876.106-1.249.159.246-.342.5-.7.789-1.132a3.311,3.311,0,0,0-.3-4.3,3.385,3.385,0,0,0-4.2-.4,3.386,3.386,0,0,0-4.2.4,3.33,3.33,0,0,0-.941,2.768A5.328,5.328,0,0,0,14.162,21.7c-.314-.042-.658-.086-1.067-.132a3.295,3.295,0,0,0-2.07,6.164A3.3,3.3,0,0,0,14.3,31.419a3.329,3.329,0,0,0,1.909-.6,5.588,5.588,0,0,0,1.764-2.574L18,28.192c.008.018.015.037.023.055a5.59,5.59,0,0,0,1.764,2.573,3.335,3.335,0,0,0,2.89.451,3.31,3.31,0,0,0,2.3-3.543A3.314,3.314,0,0,0,26.575,23.82Zm-2.761,2.236a1.406,1.406,0,0,1-.208.045,1,1,0,0,0-.748,1.433,1.259,1.259,0,0,1,.079.19,1.306,1.306,0,0,1-.857,1.637,1.318,1.318,0,0,1-1.143-.177,3.989,3.989,0,0,1-1.073-1.719c-.166-.391-.285-.658-.4-.905a1.616,1.616,0,0,0-2.926,0h0c-.115.246-.234.513-.4.9a3.987,3.987,0,0,1-1.073,1.72,1.32,1.32,0,0,1-1.142.178,1.307,1.307,0,0,1-.857-1.641,1.246,1.246,0,0,1,.078-.187,1,1,0,0,0-.748-1.433,1.46,1.46,0,0,1-.2-.043,1.287,1.287,0,0,1,.475-2.517,1.741,1.741,0,0,1,.206.012c.821.092,1.363.172,1.953.261a1.617,1.617,0,0,0,1.526-2.583c-.153-.2-.323-.412-.543-.68A4,4,0,0,1,14.782,18.8,1.308,1.308,0,0,1,17,17.708a1.373,1.373,0,0,1,.132.157,1.036,1.036,0,0,0,1.617,0,1.373,1.373,0,0,1,.132-.157,1.339,1.339,0,0,1,1.849,0,1.362,1.362,0,0,1,.054,1.764c-.483.716-.868,1.242-1.282,1.806a1.617,1.617,0,0,0,1.546,2.555c.643-.1,1.236-.186,2.078-.28a1.357,1.357,0,0,1,1.537.865A1.309,1.309,0,0,1,23.814,26.056Z"/><path d="M46,36A18,18,0,1,0,28,18,18.021,18.021,0,0,0,46,36ZM30.051,19h2A14,14,0,0,0,45,31.949v2A16,16,0,0,1,30.051,19ZM46,6A12,12,0,1,1,34,18,12.013,12.013,0,0,1,46,6Zm1,27.949v-2A14,14,0,0,0,59.949,19h2A16,16,0,0,1,47,33.949ZM61.949,17h-2A14,14,0,0,0,47,4.051v-2A16,16,0,0,1,61.949,17ZM45,2.051v2A14,14,0,0,0,32.051,17h-2A16,16,0,0,1,45,2.051Z"/><path d="M39.025,21.728A3.3,3.3,0,0,0,42.3,25.42a3.335,3.335,0,0,0,1.91-.6,5.621,5.621,0,0,0,1.764-2.575L46,22.192l.023.056a5.613,5.613,0,0,0,1.764,2.572,3.337,3.337,0,0,0,2.89.451,3.313,3.313,0,0,0,2.3-3.542A3.3,3.3,0,0,0,50.9,15.564c-.476.054-.876.106-1.248.159.246-.342.5-.7.789-1.132a3.311,3.311,0,0,0-.3-4.3,3.388,3.388,0,0,0-4.2-.4,3.388,3.388,0,0,0-4.2.4,3.332,3.332,0,0,0-.94,2.768A5.335,5.335,0,0,0,42.161,15.7c-.314-.043-.657-.086-1.066-.132a3.295,3.295,0,0,0-2.07,6.164Zm.309-3.31a1.308,1.308,0,0,1,1.333-.877,1.724,1.724,0,0,1,.2.012c.82.092,1.363.172,1.952.261a1.616,1.616,0,0,0,1.528-2.581c-.153-.2-.324-.414-.544-.682A4,4,0,0,1,42.781,12.8a1.319,1.319,0,0,1,.372-1.1,1.34,1.34,0,0,1,1.85,0,1.484,1.484,0,0,1,.132.157,1.036,1.036,0,0,0,1.617,0,1.484,1.484,0,0,1,.132-.157,1.309,1.309,0,0,1,1.849,0,1.362,1.362,0,0,1,.054,1.764c-.483.716-.868,1.242-1.283,1.807a1.617,1.617,0,0,0,1.548,2.554c.642-.1,1.235-.186,2.076-.28a1.359,1.359,0,0,1,1.538.865,1.309,1.309,0,0,1-.854,1.638,1.328,1.328,0,0,1-.206.045,1,1,0,0,0-.749,1.433,1.193,1.193,0,0,1,.08.19,1.308,1.308,0,0,1-2,1.46,4,4,0,0,1-1.073-1.718c-.166-.392-.285-.66-.4-.906a1.616,1.616,0,0,0-2.926,0c-.116.246-.235.514-.4.905a4.01,4.01,0,0,1-1.072,1.719,1.328,1.328,0,0,1-1.143.178,1.306,1.306,0,0,1-.856-1.645,1.2,1.2,0,0,1,.078-.183,1,1,0,0,0-.749-1.433,1.46,1.46,0,0,1-.2-.043A1.311,1.311,0,0,1,39.334,18.418Z"/><path d="M9,45v1a1,1,0,0,0,2,0V45a1,1,0,0,0-2,0Z"/><path d="M10,49a1,1,0,0,0-1,1v1a1,1,0,0,0,2,0V50A1,1,0,0,0,10,49Z"/><path d="M13,47H12a1,1,0,0,0,0,2h1a1,1,0,0,0,0-2Z"/><path d="M8,47H7a1,1,0,0,0,0,2H8a1,1,0,0,0,0-2Z"/><path d="M58,36v1a1,1,0,0,0,2,0V36a1,1,0,0,0-2,0Z"/><path d="M59,40a1,1,0,0,0-1,1v1a1,1,0,0,0,2,0V41A1,1,0,0,0,59,40Z"/><path d="M62,38H61a1,1,0,0,0,0,2h1a1,1,0,0,0,0-2Z"/><path d="M57,38H56a1,1,0,0,0,0,2h1a1,1,0,0,0,0-2Z"/><path d="M5,3A1,1,0,0,0,6,2V1A1,1,0,0,0,4,1V2A1,1,0,0,0,5,3Z"/><path d="M5,5A1,1,0,0,0,4,6V7A1,1,0,0,0,6,7V6A1,1,0,0,0,5,5Z"/><path d="M7,5H8A1,1,0,0,0,8,3H7A1,1,0,0,0,7,5Z"/><path d="M2,5H3A1,1,0,0,0,3,3H2A1,1,0,0,0,2,5Z"/></g></svg>