<svg xmlns="http://www.w3.org/2000/svg" viewBox="0 0 64 64"><g id="_27-cross" data-name="27-cross"><circle cx="32" cy="26" r="23" style="fill:#fad550"/><path d="M11.058,27.635A23,23,0,0,1,32.365,3.058c.226-.016.45-.021.675-.031A22.97,22.97,0,0,0,9.058,27.635a23,23,0,0,0,23.9,21.338A23,23,0,0,1,11.058,27.635Z" style="fill:#efbe25"/><circle cx="32" cy="26" r="17" style="fill:#fffff3"/><path d="M17,26A16.987,16.987,0,0,1,33,9.05c-.333-.019-.662-.05-1-.05a17,17,0,0,0,0,34c.338,0,.667-.031,1-.05A16.987,16.987,0,0,1,17,26Z" style="fill:#efefe8"/><polygon points="37.871 35.228 42.5 63 21.5 63 26.117 35.296 37.871 35.228" style="fill:#4a8a3e"/><polygon points="23.5 61 27.786 35.287 26.117 35.296 21.5 63 42.5 63 42.167 61 23.5 61" style="fill:#2e6821"/><polygon points="41.812 21.022 59 19 59 33 41.812 30.978 41.812 21.022" style="fill:#4a8a3e"/><polygon points="57 19.235 57 31 41.812 29.213 41.812 30.978 59 33 59 19 57 19.235" style="fill:#2e6821"/><polygon points="26.863 16.271 24 1 40 1 37.137 16.271 26.863 16.271" style="fill:#4a8a3e"/><polygon points="40 1 24 1 26.863 16.271 28.488 16.271 26 3 39.625 3 40 1" style="fill:#2e6821"/><polygon points="22 21 5 19 5 33 22 31 22 21" style="fill:#4a8a3e"/><polygon points="7 31 7 19.235 5 19 5 33 22 31 22 29.235 7 31" style="fill:#2e6821"/><polygon points="29.054 36.601 26 59 38 59 34.946 36.601 29.054 36.601" style="fill:#ef8e2e"/><polygon points="28 57 30.782 36.601 29.054 36.601 26 59 38 59 37.727 57 28 57" style="fill:#cc6609"/><polygon points="42.821 24.015 55 23 55 29 42.821 27.985 42.821 24.015" style="fill:#ef8e2e"/><polygon points="53 23.167 53 27 42.821 26.152 42.821 27.985 55 29 55 23 53 23.167" style="fill:#cc6609"/><polygon points="30.035 15.175 28 5 36 5 33.965 15.175 30.035 15.175" style="fill:#ef8e2e"/><polygon points="30 7 35.6 7 36 5 28 5 30.035 15.175 31.635 15.175 30 7" style="fill:#cc6609"/><polygon points="21.179 24.015 9 23 9 29 21.179 27.985 21.179 24.015" style="fill:#ef8e2e"/><polygon points="11 27 11 23.167 9 23 9 29 21.179 27.985 21.179 26.152 11 27" style="fill:#cc6609"/><circle cx="32" cy="26" r="11" style="fill:#7ac147"/><path d="M35,35a10.99,10.99,0,0,1-7.5-19.03,10.994,10.994,0,1,0,12,18.06A10.953,10.953,0,0,1,35,35Z" style="fill:#66a535"/><path d="M36.25,26.5l-2.072-.345a.157.157,0,0,1,0-.31L36.25,25.5a1.75,1.75,0,1,0-.273-3.477A1.749,1.749,0,1,0,32.5,21.75l-.345,2.072a.157.157,0,0,1-.31,0L31.5,21.75a1.75,1.75,0,1,0-3.477.273A1.749,1.749,0,1,0,27.75,25.5l2.072.345a.157.157,0,0,1,0,.31L27.75,26.5a1.75,1.75,0,1,0,.273,3.477,1.749,1.749,0,1,0,3.477.273l.345-2.072a.157.157,0,0,1,.31,0L32.5,30.25a1.75,1.75,0,1,0,3.477-.273A1.749,1.749,0,1,0,36.25,26.5Z" style="fill:#317024"/><path d="M39,23.75a2.754,2.754,0,0,0-2.082-2.668A2.749,2.749,0,0,0,32,20.171a2.749,2.749,0,0,0-4.918.911A2.75,2.75,0,0,0,26.17,26a2.75,2.75,0,0,0,.912,4.918A2.749,2.749,0,0,0,32,31.829a2.749,2.749,0,0,0,4.918-.911A2.75,2.75,0,0,0,37.83,26,2.749,2.749,0,0,0,39,23.75Zm-4.982,1.108a1.157,1.157,0,0,0-.005,2.283l2.072.345a1.021,1.021,0,0,0,.165.014.751.751,0,0,1,.75.75.765.765,0,0,1-.872.738,1,1,0,0,0-1.139,1.146A.736.736,0,0,1,35,30.25a.75.75,0,0,1-1.5,0,.9.9,0,0,0-.014-.164l-.345-2.073a1.157,1.157,0,0,0-2.282,0l-.345,2.072a.9.9,0,0,0-.014.164.75.75,0,0,1-1.5,0,.736.736,0,0,1,.011-.116,1,1,0,0,0-1.139-1.146A.768.768,0,0,1,27,28.25a.751.751,0,0,1,.75-.75,1.021,1.021,0,0,0,.165-.014l2.067-.344a1.157,1.157,0,0,0,0-2.283l-2.072-.345a1.021,1.021,0,0,0-.165-.014.751.751,0,0,1-.75-.75.768.768,0,0,1,.872-.738,1,1,0,0,0,1.139-1.146A.736.736,0,0,1,29,21.75a.75.75,0,0,1,1.5,0,.9.9,0,0,0,.014.164l.345,2.073a1.157,1.157,0,0,0,2.282,0l.345-2.072a.9.9,0,0,0,.014-.164.75.75,0,0,1,1.5,0,.736.736,0,0,1-.011.116,1,1,0,0,0,1.139,1.146A.765.765,0,0,1,37,23.75a.751.751,0,0,1-.75.75,1.021,1.021,0,0,0-.165.014Z"/><path d="M59.665,18.253a1,1,0,0,0-.782-.246l-4.1.482A24.007,24.007,0,0,0,40.535,3.575l.448-2.39A1,1,0,0,0,40,0H24a1,1,0,0,0-.983,1.185l.448,2.389A24,24,0,0,0,9.211,18.488l-4.094-.481a.982.982,0,0,0-.782.246A1,1,0,0,0,4,19V33a1,1,0,0,0,1,1,.918.918,0,0,0,.117-.007l4.094-.481a24.083,24.083,0,0,0,13.738,14.71L20.514,62.836A1,1,0,0,0,21.5,64h21a1,1,0,0,0,.986-1.164L41.051,48.223A24.106,24.106,0,0,0,54.79,33.511l4.093.482A.918.918,0,0,0,59,34a1,1,0,0,0,1-1V19A1,1,0,0,0,59.665,18.253Zm-6.9.474L42.348,19.953a12.071,12.071,0,0,0-4.1-4.179l.777-4.144a16.182,16.182,0,0,1,6.553,5.9,1,1,0,1,0,1.7-1.06A18.18,18.18,0,0,0,39.4,9.6l.757-4.036A22.021,22.021,0,0,1,52.762,18.727ZM32,36A10,10,0,1,1,42,26,10.011,10.011,0,0,1,32,36Zm0,2a12.027,12.027,0,0,0,2.1-.2L36.854,58H27.146L29.9,37.8A12.027,12.027,0,0,0,32,38ZM20.055,27.076,10,27.913V24.087l10.055.837C20.023,25.279,20,25.637,20,26S20.023,26.721,20.055,27.076ZM29.22,6h5.56l-1.612,8.059C32.784,14.022,32.394,14,32,14s-.784.022-1.168.059ZM43.945,24.924,54,24.087v3.826l-10.055-.837c.032-.355.055-.713.055-1.076S43.977,25.279,43.945,24.924ZM38.8,2,36.387,14.842a11.85,11.85,0,0,0-1.253-.413L36.98,5.2A1,1,0,0,0,36,4H28a1,1,0,0,0-.98,1.2l1.846,9.233a11.85,11.85,0,0,0-1.253.413L25.205,2ZM23.839,5.568,24.6,9.6a18.18,18.18,0,0,0-7.868,6.866,1,1,0,1,0,1.695,1.06,16.2,16.2,0,0,1,6.553-5.9l.777,4.144a12.066,12.066,0,0,0-4.1,4.178L11.235,18.727A22.009,22.009,0,0,1,23.839,5.568ZM6,20.125,20.751,21.86q-.2.532-.343,1.087L9.083,22a.981.981,0,0,0-.76.26A1,1,0,0,0,8,23v6a1,1,0,0,0,1,1,.781.781,0,0,0,.083,0l11.325-.943q.147.555.343,1.087L6,31.875Zm5.234,13.148,10.419-1.225a12.065,12.065,0,0,0,3.375,3.7l-.714,4.285a16,16,0,0,1-5.891-5.563,1,1,0,0,0-1.7,1.06A18,18,0,0,0,23.969,42.1l-.683,4.1A22.093,22.093,0,0,1,11.234,33.273ZM22.681,62l4.194-25.166a11.569,11.569,0,0,0,1.077.448L25.009,58.865A1,1,0,0,0,26,60H38a1,1,0,0,0,.991-1.135L36.048,37.282a11.569,11.569,0,0,0,1.077-.448L41.319,62Zm18.033-15.8-.684-4.1a17.992,17.992,0,0,0,7.243-6.571,1,1,0,0,0-1.7-1.06,16.008,16.008,0,0,1-5.891,5.564l-.714-4.286a12.073,12.073,0,0,0,3.376-3.7l10.415,1.226A22.115,22.115,0,0,1,40.714,46.205ZM58,31.875,43.249,30.14q.2-.532.343-1.087L54.917,30A.781.781,0,0,0,55,30a1,1,0,0,0,1-1V23a1,1,0,0,0-.323-.736.98.98,0,0,0-.76-.26l-11.325.943q-.147-.553-.343-1.087L58,20.125Z"/></g></svg>