<svg xmlns="http://www.w3.org/2000/svg" viewBox="0 0 64 64"><g id="_14-flag" data-name="14-flag"><path d="M7,9H1V6.606A6.737,6.737,0,0,1,4,1H4A6.737,6.737,0,0,1,7,6.606Z" style="fill:#ee9d22"/><path d="M5,1.833A6.7,6.7,0,0,0,4,1,6.737,6.737,0,0,0,1,6.606V9H3V6.606A6.728,6.728,0,0,1,5,1.833Z" style="fill:#b3761a"/><rect x="1" y="9" width="6" height="54" style="fill:#692b1c"/><rect x="1" y="9" width="2" height="54" style="fill:#4f2015"/><path d="M23,52h0a13.709,13.709,0,0,0-12.695-1.322L7,52V10l3.305-1.322A13.709,13.709,0,0,1,23,10h0Z" style="fill:#fad550"/><path d="M63,58h0a24.844,24.844,0,0,0-18.3-.746h0a36.475,36.475,0,0,1-21.645.762L23,58V14h0a34.8,34.8,0,0,0,20,0h0a34.8,34.8,0,0,1,20,0h0Z" style="fill:#edbf2f"/><path d="M44.7,44.254h0a36.475,36.475,0,0,1-21.645.762L23,45V58l.059.016A36.475,36.475,0,0,0,44.7,57.254h0A24.844,24.844,0,0,1,63,58V45A24.844,24.844,0,0,0,44.7,44.254Z" style="fill:#dbae31"/><path d="M10,27.164V8.8L7,10V52l3.305-1.322A13.709,13.709,0,0,1,23,52V44.511l-.073-.024A18.341,18.341,0,0,1,10,27.164Z" style="fill:#eac349"/><path d="M26.8,31.5a3.586,3.586,0,0,0,.387,5.026,4.376,4.376,0,0,0,1.048.773,4.4,4.4,0,0,0-1.048.773A3.587,3.587,0,0,0,26.8,43.1a3.587,3.587,0,0,0,5.027-.387L37.243,37.3l-5.412-5.413A3.588,3.588,0,0,0,26.8,31.5Z" style="fill:#7ac147"/><path d="M31.444,26.858a3.586,3.586,0,0,1,5.026.387,4.376,4.376,0,0,1,.773,1.048,4.381,4.381,0,0,1,.774-1.048,3.586,3.586,0,0,1,5.026-.387,3.586,3.586,0,0,1-.387,5.026L37.243,37.3l-5.412-5.413A3.586,3.586,0,0,1,31.444,26.858Z" style="fill:#56b348"/><path d="M47.682,43.1A3.588,3.588,0,0,0,47.3,38.07a4.388,4.388,0,0,0-1.049-.773,4.361,4.361,0,0,0,1.049-.773,3.586,3.586,0,0,0,.386-5.026,3.586,3.586,0,0,0-5.026.386L37.243,37.3l5.413,5.413A3.586,3.586,0,0,0,47.682,43.1Z" style="fill:#4a8a3e"/><path d="M63,19a1,1,0,0,0,1-1V14a1,1,0,0,0-.713-.958,35.7,35.7,0,0,0-20.574,0A33.694,33.694,0,0,1,24,13.228V10a1,1,0,0,0-.445-.832A14.706,14.706,0,0,0,9.934,7.75L8,8.523V6.605A7.722,7.722,0,0,0,4.555.168a1,1,0,0,0-1.11,0A7.722,7.722,0,0,0,0,6.605V55a1,1,0,0,0,2,0V10H6V62H2V59a1,1,0,0,0-2,0v4a1,1,0,0,0,1,1H7a1,1,0,0,0,1-1V52.677l2.676-1.071A12.7,12.7,0,0,1,22,52.573V58a1.074,1.074,0,0,0,.8.981A37.3,37.3,0,0,0,45.034,58.2a23.753,23.753,0,0,1,17.56.717A1,1,0,0,0,64,58V22a1,1,0,0,0-2,0V56.509a25.731,25.731,0,0,0-17.626-.2A35.355,35.355,0,0,1,24,57.228V15.294a35.68,35.68,0,0,0,19.287-.336A33.7,33.7,0,0,1,62,14.752V18A1,1,0,0,0,63,19ZM2,6.605A5.725,5.725,0,0,1,4,2.252,5.725,5.725,0,0,1,6,6.605V8H2ZM9.934,49.75,8,50.523V10.677l2.676-1.071A12.713,12.713,0,0,1,22,10.548V50.263A14.706,14.706,0,0,0,9.934,49.75Z"/><path d="M48.39,30.791a4.1,4.1,0,0,0-3.562-1.074c.017-.116.051-.231.06-.349a4.032,4.032,0,0,0-1.138-3.217,4.583,4.583,0,0,0-6.44.387c-.023.022-.045.045-.067.067l-.066-.067a5.136,5.136,0,0,0-3.224-1.524A3.958,3.958,0,0,0,29.6,29.368c.009.118.042.233.06.35A4.091,4.091,0,0,0,26.1,30.791a4.026,4.026,0,0,0-1.138,3.216,5.143,5.143,0,0,0,1.523,3.223c.023.022.045.045.069.067l-.068.066a5.144,5.144,0,0,0-1.524,3.224A4.028,4.028,0,0,0,26.1,43.8a3.98,3.98,0,0,0,2.859,1.151c.118,0,.237,0,.357-.014a5.139,5.139,0,0,0,3.223-1.524l3.985-3.984.016.123a8.593,8.593,0,0,1-1.37,5.889,1,1,0,0,0,1.664,1.11,10.583,10.583,0,0,0,1.754-6.5l3.363,3.363a5.141,5.141,0,0,0,3.224,1.524c.12.01.239.014.357.014A3.98,3.98,0,0,0,48.39,43.8,4.585,4.585,0,0,0,48,37.363l-.067-.066L48,37.231A4.584,4.584,0,0,0,48.39,30.791ZM31.123,42a3.142,3.142,0,0,1-1.962.944,1.963,1.963,0,0,1-2.207-2.207,3.148,3.148,0,0,1,.945-1.963,3.347,3.347,0,0,1,.809-.6,1,1,0,0,0,0-1.766,3.426,3.426,0,0,1-.811-.6,3.15,3.15,0,0,1-.944-1.963,2.057,2.057,0,0,1,.558-1.649,2.6,2.6,0,0,1,3.611.386L35.829,37.3Zm6.12-6.12-4.706-4.706a3.141,3.141,0,0,1-.943-1.963A1.962,1.962,0,0,1,33.8,27.008a3.137,3.137,0,0,1,1.963.944,3.359,3.359,0,0,1,.6.809,1.041,1.041,0,0,0,1.768,0,3.337,3.337,0,0,1,.6-.809,2.6,2.6,0,0,1,3.612-.387,2.064,2.064,0,0,1,.558,1.649,3.149,3.149,0,0,1-.945,1.963Zm8.536,2.3a3.411,3.411,0,0,1,.81.6,2.6,2.6,0,0,1,.387,3.613,2.058,2.058,0,0,1-1.65.557A3.142,3.142,0,0,1,43.363,42L38.657,37.3l4.706-4.706a2.6,2.6,0,0,1,3.613-.386,2.6,2.6,0,0,1-.387,3.612,3.388,3.388,0,0,1-.811.6,1,1,0,0,0,0,1.767Z"/></g></svg>