<svg xmlns="http://www.w3.org/2000/svg" viewBox="0 0 64 64"><g id="_08-gold" data-name="08-gold"><path d="M51.667,31H54a3,3,0,0,1,3,3h0a3,3,0,0,1-3,3H53Z" style="fill:#4a8a3e"/><path d="M12.333,31H10a3,3,0,0,0-3,3H7a3,3,0,0,0,3,3h1Z" style="fill:#4a8a3e"/><path d="M10.457,45.266,5.338,53.46A2.218,2.218,0,0,0,5,54.637H5a2.221,2.221,0,0,0,3.792,1.571l4.493-4.495Z" style="fill:#b95a3a"/><path d="M8,54.637a2.218,2.218,0,0,1,.338-1.177l3.356-5.373-1.237-2.821L5.338,53.46a2.215,2.215,0,0,0,3.385,2.8A2.153,2.153,0,0,1,8,54.637Z" style="fill:#692b1c"/><path d="M25.813,58a15.629,15.629,0,0,1-12.5-6.25h0a15.63,15.63,0,0,1-2.753-12.766L13,28H51l2.441,10.984A15.63,15.63,0,0,1,50.688,51.75h0A15.629,15.629,0,0,1,38.187,58H25.813Z" style="fill:#4a8a3e"/><path d="M53.542,45.271l5.12,8.189A2.218,2.218,0,0,1,59,54.637h0a2.221,2.221,0,0,1-3.792,1.571l-4.494-4.493Z" style="fill:#b95a3a"/><path d="M58.662,53.46l-5.12-8.189L52.305,48.09l3.357,5.37A2.218,2.218,0,0,1,56,54.637a2.153,2.153,0,0,1-.723,1.622,2.215,2.215,0,0,0,3.385-2.8Z" style="fill:#692b1c"/><path d="M21.312,56.75a15.63,15.63,0,0,1-2.753-12.766h0A14.027,14.027,0,0,1,32.252,33H52.111L51,28H13L10.637,38.633a16.178,16.178,0,0,0,.551,9.249A15.6,15.6,0,0,0,21.948,57.5C21.735,57.252,21.51,57.014,21.312,56.75Z" style="fill:#38682f"/><rect x="10" y="22" width="44" height="6" rx="3" style="fill:#4a8a3e"/><path d="M13,22a3,3,0,0,0,0,6H51a3,3,0,0,0,3-3H16A3,3,0,0,1,13,22Z" style="fill:#2a4e23"/><path d="M13,22V20.5A1.5,1.5,0,0,1,14.5,19H17V17.5A1.5,1.5,0,0,1,18.5,16H21V14.5A1.5,1.5,0,0,1,22.5,13H24V11.5A1.5,1.5,0,0,1,25.5,10H28V8.5A1.5,1.5,0,0,1,29.5,7h6A1.5,1.5,0,0,1,37,8.5V9h7.5A1.5,1.5,0,0,1,46,10.5V12h2.5A1.5,1.5,0,0,1,50,13.5h0A1.5,1.5,0,0,1,48.5,15H48v3h1.5A1.5,1.5,0,0,1,51,19.5V22Z" style="fill:#f7ca02"/><rect x="34" y="19" width="7" height="3" rx="1.5" style="fill:#f88522"/><rect x="27" y="13" width="7" height="3" rx="1.5" style="fill:#e47d00"/><path d="M26.643,53.784l-1.3,6.493a2.3,2.3,0,0,0,1.226,2.509h0A2.3,2.3,0,0,0,29.8,61.405l1.947-6.33A2.635,2.635,0,0,0,28.794,51.7h0A2.636,2.636,0,0,0,26.643,53.784Z" style="fill:#b95a3a"/><path d="M28.571,60.786a2.3,2.3,0,0,1-1.226-2.509l1.3-6.493c0-.017.01-.033.014-.049a2.63,2.63,0,0,0-2.014,2.049l-1.3,6.493A2.3,2.3,0,0,0,29.8,61.405L29.924,61A2.28,2.28,0,0,1,28.571,60.786Z" style="fill:#692b1c"/><path d="M59.51,52.93l-4.934-7.891a16.585,16.585,0,0,0-.158-6.271l-.176-.792A3.991,3.991,0,0,0,54,30H52.469L52.2,28.8a3.977,3.977,0,0,0-.2-7.653V19.5A2.5,2.5,0,0,0,49.5,17H49V15.95A2.5,2.5,0,0,0,48.5,11H47v-.5A2.5,2.5,0,0,0,44.5,8H42a1,1,0,0,0,0,2h2.5a.5.5,0,0,1,.5.5V12a1,1,0,0,0,1,1h2.5a.5.5,0,0,1,0,1H48a1,1,0,0,0-1,1v3a1,1,0,0,0,1,1h1.5a.5.5,0,0,1,.5.5V21H14v-.5a.5.5,0,0,1,.5-.5H17a1,1,0,0,0,1-1V17.5a.5.5,0,0,1,.5-.5H21a1,1,0,0,0,1-1V14.5a.5.5,0,0,1,.5-.5H24a1,1,0,0,0,1-1V11.5a.5.5,0,0,1,.5-.5H28a1,1,0,0,0,1-1V8.5a.5.5,0,0,1,.5-.5h6a.5.5,0,0,1,.5.5V9a1,1,0,0,0,1,1h2a1,1,0,0,0,0-2H37.95A2.5,2.5,0,0,0,35.5,6h-6A2.5,2.5,0,0,0,27,8.5V9H25.5A2.5,2.5,0,0,0,23,11.5V12h-.5A2.5,2.5,0,0,0,20,14.5V15H18.5A2.5,2.5,0,0,0,16,17.5V18H14.5A2.5,2.5,0,0,0,12,20.5v.642a3.977,3.977,0,0,0-.2,7.653L11.531,30H10a3.991,3.991,0,0,0-.241,7.976l-.176.792a16.574,16.574,0,0,0-.16,6.265L4.49,52.93A3.211,3.211,0,0,0,4,54.637a3.171,3.171,0,0,0,1.989,2.976,3.251,3.251,0,0,0,1.253.254A3.181,3.181,0,0,0,9.5,56.915l3.706-3.708a16.725,16.725,0,0,0,11.385,5.742l-.227,1.132a3.3,3.3,0,0,0,6.39,1.618l.83-2.7h6.6a16.713,16.713,0,0,0,12.606-5.792L54.5,56.915a3.173,3.173,0,0,0,2.257.952,3.26,3.26,0,0,0,1.254-.254A3.171,3.171,0,0,0,60,54.637,3.211,3.211,0,0,0,59.51,52.93ZM54,32a2,2,0,0,1,0,4h-.2l-.889-4ZM11,25a2,2,0,0,1,2-2H51a2,2,0,0,1,0,4H46.922c.034-.329.041-.665.053-1H48a1,1,0,0,0,0-2H44a1,1,0,0,0,0,2h.975c-.014.337-.034.671-.074,1H20.1c-.04-.329-.06-.663-.074-1H21a1,1,0,0,0,0-2H17a1,1,0,0,0,0,2h1.025c.012.335.019.671.053,1H13A2,2,0,0,1,11,25Zm33.492,4a12.489,12.489,0,0,1-23.984,0ZM10,36a2,2,0,0,1,0-4h1.087L10.2,36ZM8.085,55.5A1.221,1.221,0,0,1,6,54.637a1.217,1.217,0,0,1,.186-.647l3.9-6.243A16.553,16.553,0,0,0,12,51.583Zm22.706-.72-1.948,6.33a1.3,1.3,0,0,1-2.518-.637l1.3-6.494a1.641,1.641,0,0,1,1.334-1.292,1.636,1.636,0,0,1,1.833,2.093ZM38.187,57H32.2l.5-1.631a3.635,3.635,0,0,0-4.072-4.654,3.652,3.652,0,0,0-2.967,2.872l-.673,3.364A14.59,14.59,0,0,1,11.535,39.2L13.8,29h4.643a14.479,14.479,0,0,0,28.11,0H50.2l2.267,10.2A14.627,14.627,0,0,1,38.187,57Zm19.059-1.234a1.2,1.2,0,0,1-1.331-.265L52,51.585a16.589,16.589,0,0,0,1.915-3.835l3.9,6.24a1.217,1.217,0,0,1,.186.647A1.2,1.2,0,0,1,57.246,55.766Z"/><path d="M39,16a1,1,0,0,0,1,1h4a1,1,0,0,0,0-2H40A1,1,0,0,0,39,16Z"/><path d="M38,12a1,1,0,0,0,0,2h2a1,1,0,0,0,0-2Z"/><path d="M23,18a1,1,0,0,0,0,2h3a1,1,0,0,0,0-2Z"/><path d="M7,12a1,1,0,0,1-1-1V10a1,1,0,0,1,2,0v1A1,1,0,0,1,7,12Z"/><path d="M7,18a1,1,0,0,1-1-1V16a1,1,0,0,1,2,0v1A1,1,0,0,1,7,18Z"/><path d="M10.5,14.5h-1a1,1,0,0,1,0-2h1a1,1,0,0,1,0,2Z"/><path d="M4.5,14.5h-1a1,1,0,0,1,0-2h1a1,1,0,0,1,0,2Z"/><path d="M20,3a1,1,0,0,1-1-1V1a1,1,0,0,1,2,0V2A1,1,0,0,1,20,3Z"/><path d="M20,9a1,1,0,0,1-1-1V7a1,1,0,0,1,2,0V8A1,1,0,0,1,20,9Z"/><path d="M23.5,5.5h-1a1,1,0,0,1,0-2h1a1,1,0,0,1,0,2Z"/><path d="M17.5,5.5h-1a1,1,0,0,1,0-2h1a1,1,0,0,1,0,2Z"/><path d="M56,8a1,1,0,0,1-1-1V6a1,1,0,0,1,2,0V7A1,1,0,0,1,56,8Z"/><path d="M56,14a1,1,0,0,1-1-1V12a1,1,0,0,1,2,0v1A1,1,0,0,1,56,14Z"/><path d="M59.5,10.5h-1a1,1,0,0,1,0-2h1a1,1,0,0,1,0,2Z"/><path d="M53.5,10.5h-1a1,1,0,0,1,0-2h1a1,1,0,0,1,0,2Z"/></g></svg>