<svg xmlns="http://www.w3.org/2000/svg" viewBox="0 0 64 64"><g id="_22-hand" data-name="22-hand"><polygon points="1 53 6 48 24 56 20 63 1 63 1 53" style="fill:#ef8e2e"/><path d="M7,52.5a7.646,7.646,0,0,1,.956-3.631L6,48,1,53V63H17.978C11.513,61.207,7,57.185,7,52.5Z" style="fill:#dd7e28"/><path d="M22.338,37.394S35,32,42,32s-6.157,5.15-6.157,5.15Z" style="fill:#e2c9c5"/><path d="M20.892,54.619S26,47,41,46c12.894-.86,18.6-5.452,21.111-8.544a3.841,3.841,0,0,0-.574-5.427h0a3.869,3.869,0,0,0-4.653-.1C51.439,35.743,40.093,37.864,28,37,14,36,8.845,49.264,8.845,49.264Z" style="fill:#efd4ce"/><path d="M28,39c12.093.864,23.439-1.257,28.884-5.073a3.867,3.867,0,0,1,4.652.1,3.8,3.8,0,0,1,1.3,2.007,3.83,3.83,0,0,0-5.952-4.109C51.439,35.743,40.093,37.864,28,37,14,36,8.845,49.264,8.845,49.264l.8.354C11.555,46.1,17.093,38.221,28,39Z" style="fill:#f9e0dc"/><path d="M20.377,10.282c.33-.422,1.14-.51,1.346-.145.1.181.208.38.352.672a2.829,2.829,0,0,0,1.43,1.6,3.686,3.686,0,0,0,2.39,0c1.515-.474,2.5-1.638,2.2-2.6a1.189,1.189,0,0,0-.122-.26c.144-.03.29-.066.436-.111,1.515-.475,2.5-1.638,2.2-2.6-.284-.908-1.547-1.213-2.936-.959-1.046.192-1.786.345-2.587.513-.666.139-1.034-.323-.585-.733.583-.532,1.124-1.028,1.813-1.7.9-.872,1.1-1.9.181-2.494a3.822,3.822,0,0,0-3.934.424,3.359,3.359,0,0,0-.317.26,1.542,1.542,0,0,0-.245-.2,3.824,3.824,0,0,0-3.934.425,2.159,2.159,0,0,0-1.042,1.69c.023.71.642,1.233,1.207,1.709.222.187.393.337.545.477.351.323-.178.893-.83.9-.713,0-1.37.006-2.367.036a4.055,4.055,0,0,0-3.341,1.636c-.617,1.06.031,2.047,1.448,2.2a3.38,3.38,0,0,0,.416.019,2.25,2.25,0,0,0-.209.3c-.617,1.06.031,2.047,1.448,2.205a4.332,4.332,0,0,0,2.471-.523A6.118,6.118,0,0,0,19.8,11.055C20.041,10.721,20.212,10.492,20.377,10.282Z" style="fill:#38682f"/><path d="M37.083,14.708l4.836.547c.407.046.407.444,0,.49l-4.836.547c-2.255,0-4.083,1.24-4.083,2.77s1.828,2.771,4.083,2.771a6.043,6.043,0,0,0,.638-.037,1.967,1.967,0,0,0-.054.433c0,1.53,1.828,2.771,4.083,2.771s4.083-1.241,4.083-2.771l.806-3.281c.068-.277.654-.277.722,0l.806,3.281C48.167,23.759,50,25,52.25,25s4.083-1.241,4.083-2.771a1.967,1.967,0,0,0-.054-.433,6.043,6.043,0,0,0,.638.037c2.255,0,4.083-1.24,4.083-2.771s-1.828-2.77-4.083-2.77l-4.836-.547c-.407-.046-.407-.444,0-.49l4.836-.547c2.255,0,4.083-1.24,4.083-2.77s-1.828-2.771-4.083-2.771a6.043,6.043,0,0,0-.638.037,1.967,1.967,0,0,0,.054-.433C56.333,7.241,54.505,6,52.25,6s-4.083,1.241-4.083,2.771l-.806,3.281c-.068.277-.654.277-.722,0l-.806-3.281C45.833,7.241,44.005,6,41.75,6s-4.083,1.241-4.083,2.771a1.967,1.967,0,0,0,.054.433,6.043,6.043,0,0,0-.638-.037c-2.255,0-4.083,1.24-4.083,2.771S34.828,14.708,37.083,14.708Z" style="fill:#4a8a3e"/><path d="M21.02,9.928l1.224-7.777a1.542,1.542,0,0,0-.245-.2,3.824,3.824,0,0,0-3.934.425,2.157,2.157,0,0,0-1.042,1.69c.023.71.642,1.233,1.207,1.709.222.187.393.337.545.477.351.323-.178.893-.83.9-.713,0-1.37.006-2.367.036a4.055,4.055,0,0,0-3.341,1.636c-.617,1.06.031,2.047,1.448,2.2a3.38,3.38,0,0,0,.416.019,2.309,2.309,0,0,0-.209.3c-.617,1.06.031,2.048,1.448,2.206a4.332,4.332,0,0,0,2.471-.523A6.118,6.118,0,0,0,19.8,11.055c.241-.334.412-.563.577-.773a1.041,1.041,0,0,1,.645-.346Z" style="fill:#4a8a3e"/><path d="M47,12.259a.347.347,0,0,1-.361-.207l-.806-3.281C45.833,7.241,44.005,6,41.75,6s-4.083,1.241-4.083,2.771a1.967,1.967,0,0,0,.054.433,6.043,6.043,0,0,0-.638-.037c-2.255,0-4.083,1.24-4.083,2.771s1.828,2.77,4.083,2.77l4.836.547c.407.046.407.444,0,.49l-4.836.547c-2.255,0-4.083,1.24-4.083,2.77s1.828,2.771,4.083,2.771a6.043,6.043,0,0,0,.638-.037,1.959,1.959,0,0,0-.054.433c0,1.53,1.828,2.771,4.083,2.771s4.083-1.241,4.083-2.771l.806-3.281A.347.347,0,0,1,47,18.741Z" style="fill:#7ac147"/><path d="M63.949,34.507a4.833,4.833,0,0,0-7.638-3.4c-3.181,2.229-8.485,3.821-14.681,4.579,3.659-1.909,3.5-2.832,3.4-3.343C44.776,31,42.9,31,42,31c-7.122,0-19.529,5.251-20.054,5.475l0,0C13.776,38.456,9.627,45.4,8.351,47.95l-1.945-.864a1,1,0,0,0-1.113.207l-5,5A1,1,0,0,0,0,53V63a1,1,0,0,0,1,1H14a1,1,0,0,0,0-2H2V53.414l4.222-4.222,16.361,7.273L19.42,62H18a1,1,0,0,0,0,2h2a1,1,0,0,0,.868-.5l4-7a1,1,0,0,0-.462-1.41l-1.883-.837c1.895-1.977,7.389-6.508,18.543-7.251,12.741-.85,18.9-5.314,21.821-8.911A4.83,4.83,0,0,0,63.949,34.507ZM42.283,33a47.046,47.046,0,0,1-6.613,3.138c-2.274.075-4.606.044-6.954-.1C32.872,34.6,38.3,33,42,33,42.1,33,42.2,33,42.283,33Zm19.052,3.822c-2.672,3.288-8.38,7.376-20.4,8.177-12.854.857-18.678,6.425-20.348,8.386L10.177,48.762C11.6,45.94,16.893,37.229,27.929,38c12.148.869,23.74-1.193,29.529-5.251a2.858,2.858,0,0,1,3.454.065,2.839,2.839,0,0,1,.423,4.014Z"/><path d="M52.25,26c-2.791,0-4.989-1.587-5.081-3.638L47,21.672l-.169.69C46.739,24.413,44.541,26,41.75,26c-2.577,0-4.649-1.354-5.023-3.176C34.049,22.692,32,21.088,32,19.062c0-1.669,1.394-3.054,3.384-3.562C33.394,14.992,32,13.607,32,11.938c0-2.026,2.049-3.63,4.727-3.762C37.1,6.354,39.173,5,41.75,5c2.791,0,4.989,1.587,5.081,3.638l.169.69.169-.69C47.261,6.587,49.459,5,52.25,5c2.577,0,4.649,1.354,5.023,3.176C59.951,8.308,62,9.912,62,11.938c0,1.669-1.394,3.054-3.384,3.562,1.99.508,3.384,1.893,3.384,3.562,0,2.026-2.049,3.63-4.727,3.762C56.9,24.646,54.827,26,52.25,26ZM47,17.741a1.318,1.318,0,0,1,1.332.969l.806,3.281a1.007,1.007,0,0,1,.029.238c0,.838,1.266,1.771,3.083,1.771s3.083-.933,3.083-1.771a.972.972,0,0,0-.028-.208A1,1,0,0,1,56.386,20.8a5.118,5.118,0,0,0,.531.031c1.817,0,3.083-.933,3.083-1.771s-1.266-1.77-3.083-1.77a1.055,1.055,0,0,1-.113-.006l-4.835-.547a1.239,1.239,0,0,1,0-2.477l4.837-.548a1.055,1.055,0,0,1,.113-.006c1.817,0,3.083-.933,3.083-1.77s-1.266-1.771-3.083-1.771a5.118,5.118,0,0,0-.531.031,1,1,0,0,1-1.081-1.219.972.972,0,0,0,.028-.208C55.333,7.933,54.067,7,52.25,7s-3.083.933-3.083,1.771a1.007,1.007,0,0,1-.029.238l-.806,3.281a1.4,1.4,0,0,1-2.664,0l-.806-3.281a1.007,1.007,0,0,1-.029-.238C44.833,7.933,43.567,7,41.75,7s-3.083.933-3.083,1.771a.972.972,0,0,0,.028.208A1,1,0,0,1,37.614,10.2a5.118,5.118,0,0,0-.531-.031c-1.817,0-3.083.933-3.083,1.771s1.266,1.77,3.083,1.77a1.055,1.055,0,0,1,.113.006l4.835.547a1.239,1.239,0,0,1,0,2.477l-4.837.548a1.055,1.055,0,0,1-.113.006c-1.817,0-3.083.933-3.083,1.77s1.266,1.771,3.083,1.771a5.118,5.118,0,0,0,.531-.031A1,1,0,0,1,38.7,22.021a.972.972,0,0,0-.028.208c0,.838,1.266,1.771,3.083,1.771s3.083-.933,3.083-1.771a1.007,1.007,0,0,1,.029-.238l.806-3.281A1.318,1.318,0,0,1,47,17.741Z"/><path d="M31.563,6.54c-.429-1.372-2.026-2.019-4.069-1.644-.318.057-.607.112-.88.165l.4-.383a3.038,3.038,0,0,0,1.07-2.413A2.2,2.2,0,0,0,27.041.629a4.706,4.706,0,0,0-4.835.3,4.921,4.921,0,0,0-4.725.64A3.1,3.1,0,0,0,16.023,4.1a2.949,2.949,0,0,0,1.116,2.051c-.461,0-.959.013-1.592.033a4.993,4.993,0,0,0-4.174,2.131,2.359,2.359,0,0,0-.138,2.274,2.567,2.567,0,0,0,1.448,1.223,2.18,2.18,0,0,0,.207,1.3,2.856,2.856,0,0,0,2.338,1.431,4.429,4.429,0,0,0,.5.027,5.411,5.411,0,0,0,2.561-.668,7.042,7.042,0,0,0,2.316-2.256c.184-.254.327-.446.456-.616l.113.226a3.756,3.756,0,0,0,1.951,2.083,4.638,4.638,0,0,0,3.064.026,3.812,3.812,0,0,0,2.954-3.128C30.955,9.5,32,7.939,31.563,6.54ZM28.109,8.482a3.1,3.1,0,0,1-.341.087,1.012,1.012,0,0,0-.7.6,1.043,1.043,0,0,0,.075.936c.084.27-.452,1-1.545,1.347a2.717,2.717,0,0,1-1.715.028c-.429-.173-.625-.537-.909-1.114-.156-.314-.268-.528-.379-.724a1.5,1.5,0,0,0-1.235-.73,2.1,2.1,0,0,0-1.769.752h0c-.17.219-.347.456-.6.8a5.206,5.206,0,0,1-1.66,1.678,3.291,3.291,0,0,1-1.879.4,1.011,1.011,0,0,1-.774-.341c-.054-.107.026-.276.082-.371a1.323,1.323,0,0,1,.118-.166,1,1,0,0,0-.776-1.63h-.007a2.116,2.116,0,0,1-.3-.013,1.011,1.011,0,0,1-.774-.341c-.055-.108.026-.277.079-.368a3.139,3.139,0,0,1,2.508-1.138c.985-.031,1.634-.034,2.339-.036A1.973,1.973,0,0,0,19.792,6.99a1.316,1.316,0,0,0-.341-1.475c-.162-.148-.343-.308-.576-.5-.356-.3-.844-.713-.853-.979a1.29,1.29,0,0,1,.627-.845,2.9,2.9,0,0,1,2.8-.4.653.653,0,0,1,.092.076,1,1,0,0,0,1.381.023,2.41,2.41,0,0,1,.222-.184,2.892,2.892,0,0,1,2.8-.4c.062.04.136.1.141.153.011.1-.076.4-.474.787-.68.662-1.215,1.151-1.789,1.676a1.414,1.414,0,0,0-.379,1.709,1.634,1.634,0,0,0,1.861.736c.787-.164,1.516-.315,2.544-.5,1.006-.184,1.727.036,1.8.275C29.738,7.406,29.2,8.14,28.109,8.482Z"/><polygon points="20.863 10.646 20.863 10.646 20.863 10.646 20.863 10.646"/></g></svg>