<svg xmlns="http://www.w3.org/2000/svg" viewBox="0 0 64 64"><g id="_21-harp" data-name="21-harp"><path d="M9,1H9a4,4,0,0,1,4,4V17a0,0,0,0,1,0,0H5a0,0,0,0,1,0,0V5A4,4,0,0,1,9,1Z" style="fill:#f88522"/><path d="M10,1.141A3.953,3.953,0,0,0,5,5V17H7V5A3.991,3.991,0,0,1,10,1.141Z" style="fill:#d6610b"/><path d="M6,47v1A15,15,0,0,0,21,63h0L16,51h0a4,4,0,0,1-4-4h0" style="fill:#f88522"/><path d="M8,47H6v1A15,15,0,0,0,21,63l-.511-1.227A14.991,14.991,0,0,1,8,47Z" style="fill:#db650e"/><path d="M13,15s11-6,20,3l7.329,7.329a4.605,4.605,0,0,1-.411,6.878L16,51l5,12L55,24c-6-5-5,7-16-9S13,6,13,6Z" style="fill:#4a8a3e"/><path d="M39,18c9.835,14.305,10.081,6.236,14.31,7.938L55,24c-6-5-5,7-16-9S13,6,13,6V9S28,2,39,18Z" style="fill:#2c771d"/><rect x="6" y="17" width="6" height="30" style="fill:#b95a3a"/><rect x="6" y="17" width="2" height="30" style="fill:#8b442c"/><rect x="5" y="8" width="8" height="4" style="fill:#efc53f"/><rect x="5" y="8" width="2" height="4" style="fill:#edb61b"/><path d="M55.64,23.231c-2.723-2.268-4.45-1.549-5.837-.975-1.758.733-3.577,1.488-9.979-7.822C30.434.777,18.047,3.273,13.958,4.584A4.987,4.987,0,0,0,4,5V17a1,1,0,0,0,1,1v2a1,1,0,0,0,2,0V18h4V46H7V24a1,1,0,0,0-2,0V48A16.019,16.019,0,0,0,21,64a.993.993,0,0,0,.748-.348l.006,0,34-39a1,1,0,0,0-.114-1.426ZM6,9h6v2H6ZM9,2a3,3,0,0,1,3,3V7H6V5A3,3,0,0,1,9,2ZM6,16V13h6v3Zm8,1V15.624a17.9,17.9,0,0,1,3-1.048V48.943l-1.306,1.026A2.994,2.994,0,0,1,13,47V18A1,1,0,0,0,14,17ZM7,48h4.107a5.008,5.008,0,0,0,4.207,3.953l4.151,9.963A14.02,14.02,0,0,1,7,48ZM21.3,61.13l-4.089-9.813L40.536,32.993a5.606,5.606,0,0,0,.5-8.371l-7.33-7.329C26.267,9.852,17.441,12.147,14,13.472v-6.8A20.33,20.33,0,0,1,21.826,5.5C28.3,5.814,33.8,9.2,38.176,15.566,44.97,25.448,47.6,25.337,50.571,24.1a2.683,2.683,0,0,1,2.962.057ZM19,47.371V14.183a16.974,16.974,0,0,1,2-.159V45.8Zm4-3.143V14.11a14.954,14.954,0,0,1,2,.352V42.657Zm4-3.142V15.121a14.8,14.8,0,0,1,2,1V39.514Zm4-3.143V17.54c.434.358.866.74,1.293,1.167l.707.707V36.371ZM35,34.8V21.414l4.623,4.622a3.606,3.606,0,0,1-.323,5.385Z"/><circle cx="16.5" cy="9.5" r="1.5"/><circle cx="21.5" cy="8.5" r="1.5"/><circle cx="26.5" cy="9.5" r="1.5"/><circle cx="31.5" cy="11.5" r="1.5"/><path d="M55.64,23.231c-2.723-2.268-4.45-1.549-5.837-.975-1.758.733-3.577,1.488-9.979-7.822C30.434.777,18.047,3.273,13.958,4.584A4.987,4.987,0,0,0,4,5V17a1,1,0,0,0,1,1v2a1,1,0,0,0,2,0V18h4V46H7V24a1,1,0,0,0-2,0V48A16.019,16.019,0,0,0,21,64a.993.993,0,0,0,.748-.348l.006,0,34-39a1,1,0,0,0-.114-1.426ZM6,9h6v2H6ZM9,2a3,3,0,0,1,3,3V7H6V5A3,3,0,0,1,9,2ZM6,16V13h6v3Zm8,1V15.624a17.9,17.9,0,0,1,3-1.048V48.943l-1.306,1.026A2.994,2.994,0,0,1,13,47V18A1,1,0,0,0,14,17ZM7,48h4.107a5.008,5.008,0,0,0,4.207,3.953l4.151,9.963A14.02,14.02,0,0,1,7,48ZM21.3,61.13l-4.089-9.813L40.536,32.993a5.606,5.606,0,0,0,.5-8.371l-7.33-7.329C26.267,9.852,17.441,12.147,14,13.472v-6.8A20.33,20.33,0,0,1,21.826,5.5C28.3,5.814,33.8,9.2,38.176,15.566,44.97,25.448,47.6,25.337,50.571,24.1a2.683,2.683,0,0,1,2.962.057ZM19,47.371V14.183a16.974,16.974,0,0,1,2-.159V45.8Zm4-3.143V14.11a14.954,14.954,0,0,1,2,.352V42.657Zm4-3.142V15.121a14.8,14.8,0,0,1,2,1V39.514Zm4-3.143V17.54c.434.358.866.74,1.293,1.167l.707.707V36.371ZM35,34.8V21.414l4.623,4.622a3.606,3.606,0,0,1-.323,5.385Z"/><circle cx="16.5" cy="9.5" r="1.5"/><circle cx="21.5" cy="8.5" r="1.5"/><circle cx="26.5" cy="9.5" r="1.5"/><circle cx="31.5" cy="11.5" r="1.5"/><path d="M53.316,5.052a.99.99,0,0,0-.9.136A1,1,0,0,0,52,6v5.184a2.766,2.766,0,0,0-2.648.367,2.966,2.966,0,0,0,2.233,5.393A3.075,3.075,0,0,0,54,13.885v-6.5l3.736,1.244A1,1,0,0,0,59,8h0a1,1,0,0,0-.632-1.264ZM51,15a1,1,0,1,1,1-1A1,1,0,0,1,51,15Z"/><path d="M58.976,46.217A1,1,0,0,0,58,45H48a1,1,0,0,0-.976.783l-1.48,6.658A2.968,2.968,0,0,0,44,52a3,3,0,1,0,2.98,3.2L48.8,47h7.951l-1.209,5.441A2.968,2.968,0,0,0,54,52a3,3,0,1,0,2.98,3.2ZM44,56a1,1,0,1,1,1-1A1,1,0,0,1,44,56Zm10,0a1,1,0,1,1,1-1A1,1,0,0,1,54,56Z"/></g></svg>