<svg xmlns="http://www.w3.org/2000/svg" viewBox="0 0 64 64"><g id="_05-hat" data-name="05-hat"><ellipse cx="32" cy="50" rx="31" ry="13" style="fill:#4a8a3e"/><path d="M42,60c-17.121,0-31-5.82-31-13,0-3.427,3.168-6.543,8.335-8.865C8.531,40.166,1,44.713,1,50c0,7.18,13.879,13,31,13,8.948,0,17.006-1.592,22.665-4.135A69.018,69.018,0,0,1,42,60Z" style="fill:#38682f"/><path d="M49.17,10.5,47.3,32l-.78,9L46,47a41.665,41.665,0,0,1-28,0l-.52-6-.78-9L14.83,10.5A8.737,8.737,0,0,1,23.54,1H40.46A8.737,8.737,0,0,1,49.17,10.5Z" style="fill:#4a8a3e"/><polygon points="47.3 32 46.52 41 17.48 41 16.7 32 47.3 32" style="fill:#b95a3a"/><path d="M30.634,44.765A8.673,8.673,0,0,1,23.48,37h0l-.78-9L20.83,6.5a8.67,8.67,0,0,1,1.287-5.373A8.729,8.729,0,0,0,14.83,10.5L16.7,32l.78,9L18,47a41.665,41.665,0,0,0,28,0l.208-2.4A41.726,41.726,0,0,1,30.634,44.765Z" style="opacity:0.2"/><path d="M38.543,30H25.457A1.457,1.457,0,0,0,24,31.457V41.543A1.457,1.457,0,0,0,25.457,43H38.543A1.457,1.457,0,0,0,40,41.543V31.457A1.457,1.457,0,0,0,38.543,30ZM37,40H27V33H37Z" style="fill:#fad550"/><path d="M47.8,37.792l2.366-27.2A9.742,9.742,0,0,0,40.463,0H23.537A9.742,9.742,0,0,0,13.83,10.588l2.366,27.2C6.047,40.266,0,44.8,0,50c0,7.851,14.056,14,32,14s32-6.149,32-14C64,44.8,57.953,40.266,47.8,37.792ZM45.605,40H41V33h5.214ZM17.829,4.511A7.66,7.66,0,0,1,23.537,2H40.463a7.745,7.745,0,0,1,7.715,8.415L46.387,31H40.954a2.458,2.458,0,0,0-2.411-2H25.457a2.458,2.458,0,0,0-2.411,2H17.613L15.822,10.415A7.663,7.663,0,0,1,17.829,4.511ZM39,31.457V41.543a.458.458,0,0,1-.457.457H25.457A.458.458,0,0,1,25,41.543V31.457A.458.458,0,0,1,25.457,31H38.543A.458.458,0,0,1,39,31.457ZM23,40H18.4l-.609-7H23Zm9,22C15.738,62,2,56.505,2,50c0-4.041,5.615-7.994,14.371-10.191L17,47.086a1,1,0,0,0,.66.856,42.7,42.7,0,0,0,14.35,2.481,42.544,42.544,0,0,0,7.154-.605,1,1,0,0,0-.336-1.972A40.7,40.7,0,0,1,18.94,46.269L18.569,42h4.477a2.458,2.458,0,0,0,2.411,2H38.543a2.458,2.458,0,0,0,2.411-2h4.477l-.371,4.269c-.765.259-1.544.5-2.325.712a1,1,0,1,0,.53,1.929c1.034-.284,2.067-.609,3.072-.969A1,1,0,0,0,47,47.086l.633-7.277C56.385,42.006,62,45.959,62,50,62,56.505,48.262,62,32,62Z"/><path d="M37,32H27a1,1,0,0,0-1,1v7a1,1,0,0,0,1,1H37a1,1,0,0,0,1-1V33A1,1,0,0,0,37,32Zm-1,7H28V38h4a1,1,0,0,0,0-2H28V34h8Z"/></g></svg>