<svg xmlns="http://www.w3.org/2000/svg" viewBox="0 0 64 64"><g id="_09-heart" data-name="09-heart"><path d="M56,22.34c0,.23,0,.46-.02.69A18.618,18.618,0,0,1,49.3,36.65L39,45.23l-6.68,5.56L28.5,53.98,18,45.23,7.7,36.65A18.651,18.651,0,0,1,1,22.34C1,14.09,7.51,7.07,15.76,7A13.823,13.823,0,0,1,18,7.15a14.946,14.946,0,0,1,10.5,6.83A14.946,14.946,0,0,1,39,7.15,13.823,13.823,0,0,1,41.24,7a14.6,14.6,0,0,1,10.47,4.6A15.614,15.614,0,0,1,56,22.34Z" style="fill:#56b348"/><path d="M39,7.15V45.23L28.5,53.98,18,45.23V7.15a14.946,14.946,0,0,1,10.5,6.83A14.946,14.946,0,0,1,39,7.15Z" style="fill:#f9f9f2"/><path d="M56,22.34a18.646,18.646,0,0,1-6.7,14.31L39,45.23V7.15A13.823,13.823,0,0,1,41.24,7a14.6,14.6,0,0,1,10.47,4.6A15.614,15.614,0,0,1,56,22.34Z" style="fill:#f88522"/><path d="M49.3,28.65,39,37.23h0a16.4,16.4,0,0,1-21,0h0L7.7,28.65a18.585,18.585,0,0,1-6.213-10.1A15.54,15.54,0,0,0,1,22.34,18.651,18.651,0,0,0,7.7,36.65L18,45.23l10.5,8.75,3.82-3.19L39,45.23l10.3-8.58a18.618,18.618,0,0,0,6.68-13.62c.02-.23.02-.46.02-.69a15.53,15.53,0,0,0-.495-3.824A18.624,18.624,0,0,1,49.3,28.65Z" style="opacity:0.15"/><path d="M63,39.01a11.167,11.167,0,0,1-4.02,8.59L52,53.42,46.5,58,41,53.42,34.02,47.6a11.175,11.175,0,0,1-2.97-3.84A11.321,11.321,0,0,1,30,39.01a9.12,9.12,0,0,1,8.86-9.2,8.832,8.832,0,0,1,2.14.24A9.008,9.008,0,0,1,46.5,34,9.008,9.008,0,0,1,52,30.05a8.757,8.757,0,0,1,8.43,2.53A9.343,9.343,0,0,1,63,39.01Z" style="fill:#7ac147"/><path d="M63,39.01a11.167,11.167,0,0,1-4.02,8.59L52,53.42V30.05a8.757,8.757,0,0,1,8.43,2.53A9.343,9.343,0,0,1,63,39.01Z" style="fill:#ee9d22"/><path d="M52,30.05V53.42L46.5,58,41,53.42V30.05A9.008,9.008,0,0,1,46.5,34,9.008,9.008,0,0,1,52,30.05Z" style="fill:#fcffff"/><path d="M58.98,43.6,52,49.42h0a8.594,8.594,0,0,1-11,0h0L34.02,43.6a11.175,11.175,0,0,1-2.97-3.84,11.394,11.394,0,0,1-.843-2.681A9.346,9.346,0,0,0,30,39.01a11.321,11.321,0,0,0,1.05,4.75,11.175,11.175,0,0,0,2.97,3.84L41,53.42,46.5,58,52,53.42l6.98-5.82A11.167,11.167,0,0,0,63,39.01a9.327,9.327,0,0,0-.207-1.929A11.14,11.14,0,0,1,58.98,43.6Z" style="opacity:0.15"/><path d="M30.667,50.872l-2.167,1.8L19,44.761V21a1,1,0,0,0-2,0V43.094L8.344,35.881A17.584,17.584,0,0,1,2,22.336,14.166,14.166,0,0,1,15.769,8c.413,0,.823.017,1.231.049V17a1,1,0,0,0,2,0V8.354a13.861,13.861,0,0,1,8.653,6.161.992.992,0,0,0,1.694,0A13.789,13.789,0,0,1,38,8.335V26a1,1,0,0,0,2,0V8.041c.407-.03.817-.048,1.231-.041A14.166,14.166,0,0,1,55,22.336a17.637,17.637,0,0,1-.18,2.513,1,1,0,1,0,1.979.286,19.581,19.581,0,0,0,.2-2.8A16.171,16.171,0,0,0,41.249,6,15.806,15.806,0,0,0,28.5,12.231,15.73,15.73,0,0,0,15.751,6,16.171,16.171,0,0,0,0,22.336,19.581,19.581,0,0,0,7.062,37.417l20.8,17.33a1,1,0,0,0,1.282,0l2.806-2.338a1,1,0,0,0-1.28-1.537Z"/><path d="M54.153,28.813h-.091a9.855,9.855,0,0,0-7.562,3.5,9.857,9.857,0,0,0-7.563-3.5h-.09A10.1,10.1,0,0,0,29,39.015a12.148,12.148,0,0,0,4.382,9.355l12.477,10.4a1,1,0,0,0,1.282,0l12.476-10.4A12.145,12.145,0,0,0,64,39.015,10.1,10.1,0,0,0,54.153,28.813Zm4.184,18.02L53,51.281V41a1,1,0,0,0-2,0V52.948L46.5,56.7,42,52.948V48a1,1,0,0,0-2,0v3.282l-5.338-4.449A10.15,10.15,0,0,1,31,39.015a8.1,8.1,0,0,1,7.864-8.2h.073A7.952,7.952,0,0,1,40,30.886V44a1,1,0,0,0,2,0V31.432a7.92,7.92,0,0,1,3.653,3.1,1.04,1.04,0,0,0,1.694,0A7.92,7.92,0,0,1,51,31.432V37a1,1,0,0,0,2,0V30.886a7.948,7.948,0,0,1,1.062-.073h.074A8.1,8.1,0,0,1,62,39.015,10.148,10.148,0,0,1,58.337,46.833Z"/></g></svg>