<svg xmlns="http://www.w3.org/2000/svg" viewBox="0 0 64 64"><g id="_16-horseshoe" data-name="16-horseshoe"><rect x="9" y="57" width="16" height="6" rx="3" style="fill:#b95a3a"/><path d="M22,61H12a2.99,2.99,0,0,1-2.816-2A2.962,2.962,0,0,0,9,60a3,3,0,0,0,3,3H22a3,3,0,0,0,3-3,2.962,2.962,0,0,0-.184-1A2.99,2.99,0,0,1,22,61Z" style="fill:#a53f23"/><rect x="39" y="57" width="16" height="6" rx="3" style="fill:#b95a3a"/><path d="M52,61H42a2.99,2.99,0,0,1-2.816-2A2.962,2.962,0,0,0,39,60a3,3,0,0,0,3,3H52a3,3,0,0,0,3-3,2.962,2.962,0,0,0-.184-1A2.99,2.99,0,0,1,52,61Z" style="fill:#a53f23"/><path d="M32,1A31,31,0,0,0,13.675,57h8.877A20.53,20.53,0,0,1,14,40c0-11.046,8.059-20,18-20s18,8.954,18,20a20.53,20.53,0,0,1-8.552,17h8.877A31,31,0,0,0,32,1Z" style="fill:#ef8e2e"/><path d="M34.371,4.033a2,2,0,0,0-2.234,1.238.146.146,0,0,1-.274,0,2,2,0,0,0-2.234-1.238A2.074,2.074,0,0,0,28,6.107h0a2.156,2.156,0,0,0,.632,1.525L32,11l3.369-3.369A2.155,2.155,0,0,0,36,6.107h0A2.075,2.075,0,0,0,34.371,4.033Z" style="fill:#4a8a3e"/><path d="M22.533,10.129a2,2,0,0,0,1.238,2.234.146.146,0,0,1,0,.274,2,2,0,0,0-1.238,2.234A2.074,2.074,0,0,0,24.607,16.5h0a2.156,2.156,0,0,0,1.525-.632L29.5,12.5,26.131,9.131A2.155,2.155,0,0,0,24.607,8.5h0A2.075,2.075,0,0,0,22.533,10.129Z" style="fill:#56b348"/><path d="M41.467,14.871a2,2,0,0,0-1.238-2.234.146.146,0,0,1,0-.274,2,2,0,0,0,1.238-2.234A2.074,2.074,0,0,0,39.393,8.5h0a2.156,2.156,0,0,0-1.525.632L34.5,12.5l3.369,3.369a2.155,2.155,0,0,0,1.524.631h0A2.075,2.075,0,0,0,41.467,14.871Z" style="fill:#7ac147"/><path d="M5,32A31,31,0,0,1,34,1.071C33.338,1.029,32.673,1,32,1A31,31,0,0,0,13.675,57h4A30.951,30.951,0,0,1,5,32Z" style="fill:#e07a1e"/><path d="M54,40c0-11.046-8.059-20-18-20a16.319,16.319,0,0,0-2,.13C43,21.237,50,29.706,50,40a20.53,20.53,0,0,1-8.552,17h4A20.53,20.53,0,0,0,54,40Z" style="fill:#e07a1e"/><circle cx="50" cy="19" r="2" style="fill:#692b1c"/><circle cx="14" cy="19" r="2" style="fill:#692b1c"/><circle cx="55" cy="30" r="2" style="fill:#692b1c"/><circle cx="9" cy="30" r="2" style="fill:#692b1c"/><circle cx="55" cy="42" r="2" style="fill:#692b1c"/><circle cx="9" cy="42" r="2" style="fill:#692b1c"/><path d="M32,12a1,1,0,0,1-.707-.293L27.924,8.339A3.137,3.137,0,0,1,27,6.106a3,3,0,0,1,5-2.338,3.018,3.018,0,0,1,2.548-.719h0A3.054,3.054,0,0,1,37,6.107a3.179,3.179,0,0,1-.924,2.232l-3.369,3.368A1,1,0,0,1,32,12ZM30,5a1.028,1.028,0,0,0-.2.018A1.072,1.072,0,0,0,29,6.106a1.171,1.171,0,0,0,.338.819L32,9.586l2.662-2.661A1.168,1.168,0,0,0,35,6.107a1.073,1.073,0,0,0-.806-1.089h0a1,1,0,0,0-1.126.617,1.146,1.146,0,0,1-2.137,0A1,1,0,0,0,30,5Zm1.205-.1v0Zm1.585,0,0,0Z"/><path d="M24.607,17.5a3,3,0,0,1-2.339-5,3.031,3.031,0,0,1-.719-2.548h0A3.055,3.055,0,0,1,24.607,7.5a3.131,3.131,0,0,1,2.231.925l3.369,3.368a1,1,0,0,1,0,1.414l-3.369,3.368A3.131,3.131,0,0,1,24.607,17.5Zm-1.089-7.193a1,1,0,0,0,.618,1.126,1.145,1.145,0,0,1,0,2.135,1,1,0,0,0-.616,1.126,1.073,1.073,0,0,0,1.089.806,1.164,1.164,0,0,0,.817-.339L28.085,12.5,25.424,9.839a1.164,1.164,0,0,0-.817-.339,1.073,1.073,0,0,0-1.089.807ZM23.4,13.293l0,0Zm0-1.587h0Z"/><path d="M39.393,17.5a3.131,3.131,0,0,1-2.231-.925l-3.369-3.368a1,1,0,0,1,0-1.414l3.369-3.368A3.131,3.131,0,0,1,39.393,7.5a3,3,0,0,1,2.339,5,3.031,3.031,0,0,1,.719,2.548h0A3.055,3.055,0,0,1,39.393,17.5Zm-3.478-5,2.661,2.661a1.164,1.164,0,0,0,.817.339,1.073,1.073,0,0,0,1.089-.807,1,1,0,0,0-.618-1.126,1.145,1.145,0,0,1,0-2.135,1,1,0,0,0,.616-1.126A1.073,1.073,0,0,0,39.393,9.5a1.164,1.164,0,0,0-.817.339Zm5.552,2.371h0ZM40.6,13.293h0Zm0-1.588,0,0Z"/><path d="M52.981,56.136a32,32,0,1,0-41.962,0A3.992,3.992,0,0,0,12,64H22a3.989,3.989,0,0,0,1.123-7.82l0,0A19.457,19.457,0,0,1,15,40c0-10.477,7.626-19,17-19a16.591,16.591,0,0,1,14.175,8.511,1,1,0,0,0,1.72-1.022A18.574,18.574,0,0,0,32,19c-10.477,0-19,9.421-19,21a21.79,21.79,0,0,0,6.727,16H14.018a30,30,0,1,1,35.964,0H44.273A21.79,21.79,0,0,0,51,40a22.755,22.755,0,0,0-1.567-8.366,1,1,0,0,0-1.862.732A20.744,20.744,0,0,1,49,40a19.457,19.457,0,0,1-8.119,16.176l0,0A3.989,3.989,0,0,0,42,64H52a3.992,3.992,0,0,0,.981-7.864ZM22,62H12a2,2,0,0,1,0-4H22a2,2,0,0,1,0,4Zm30,0H42a2,2,0,0,1,0-4H52a2,2,0,0,1,0,4Z"/><path d="M50,16a3,3,0,1,0,3,3A3,3,0,0,0,50,16Zm0,4a1,1,0,1,1,1-1A1,1,0,0,1,50,20Z"/><path d="M17,19a3,3,0,1,0-3,3A3,3,0,0,0,17,19Zm-4,0a1,1,0,1,1,1,1A1,1,0,0,1,13,19Z"/><path d="M55,27a3,3,0,1,0,3,3A3,3,0,0,0,55,27Zm0,4a1,1,0,1,1,1-1A1,1,0,0,1,55,31Z"/><path d="M9,27a3,3,0,1,0,3,3A3,3,0,0,0,9,27Zm0,4a1,1,0,1,1,1-1A1,1,0,0,1,9,31Z"/><path d="M55,39a3,3,0,1,0,3,3A3,3,0,0,0,55,39Zm0,4a1,1,0,1,1,1-1A1,1,0,0,1,55,43Z"/><path d="M9,39a3,3,0,1,0,3,3A3,3,0,0,0,9,39Zm0,4a1,1,0,1,1,1-1A1,1,0,0,1,9,43Z"/></g></svg>