<svg xmlns="http://www.w3.org/2000/svg" viewBox="0 0 64 64"><g id="_15-Ireland" data-name="15-Ireland"><path d="M7,9H1V6.606A6.737,6.737,0,0,1,4,1H4A6.737,6.737,0,0,1,7,6.606Z" style="fill:#ee9d22"/><path d="M5,1.833A6.7,6.7,0,0,0,4,1,6.737,6.737,0,0,0,1,6.606V9H3V6.606A6.728,6.728,0,0,1,5,1.833Z" style="fill:#b3761a"/><rect x="1" y="9" width="6" height="54" style="fill:#692b1c"/><rect x="1" y="9" width="2" height="54" style="fill:#4f2015"/><path d="M23,52h0a13.709,13.709,0,0,0-12.695-1.322L7,52V10l3.305-1.322A13.709,13.709,0,0,1,23,10h0Z" style="fill:#56b348"/><path d="M10,27.164V8.8L7,10V52l3.305-1.322A13.709,13.709,0,0,1,23,52V44.511l-.073-.024A18.341,18.341,0,0,1,10,27.164Z" style="fill:#418636"/><path d="M63,14V58a24.848,24.848,0,0,0-18.3-.75c-.56.2-1.13.38-1.7.54a36.388,36.388,0,0,1-19.94.23L23,58V14a34.737,34.737,0,0,0,10,1.47A34.737,34.737,0,0,0,43,14a34.749,34.749,0,0,1,20,0Z" style="fill:#f9f9f2"/><path d="M43,44.79A36.528,36.528,0,0,1,32.64,46.3a36.66,36.66,0,0,1-9.58-1.28L23,45V58l.06.02A36.388,36.388,0,0,0,43,57.79Z" style="fill:#e2e2e0"/><path d="M63,14V58a24.848,24.848,0,0,0-18.3-.75c-.56.2-1.13.38-1.7.54V14a34.749,34.749,0,0,1,20,0Z" style="fill:#f88522"/><path d="M44.7,44.25c-.56.2-1.13.38-1.7.54v13c.57-.16,1.14-.34,1.7-.54A24.848,24.848,0,0,1,63,58V45A24.848,24.848,0,0,0,44.7,44.25Z" style="fill:#e5711a"/><path d="M63.287,13.042a35.7,35.7,0,0,0-20.574,0A33.713,33.713,0,0,1,24,13.232V10a1,1,0,0,0-.445-.832A14.706,14.706,0,0,0,9.934,7.75L8,8.523V6.605A7.722,7.722,0,0,0,4.555.168a1,1,0,0,0-1.11,0A7.722,7.722,0,0,0,0,6.605V55a1,1,0,0,0,2,0V10H6V62H2V59a1,1,0,0,0-2,0v4a1,1,0,0,0,1,1H7a1,1,0,0,0,1-1V52.677l2.676-1.071A12.769,12.769,0,0,1,22,52.549V58a1.074,1.074,0,0,0,.8.981A37.3,37.3,0,0,0,45.034,58.2a23.753,23.753,0,0,1,17.56.717A1,1,0,0,0,64,58V14A1,1,0,0,0,63.287,13.042ZM2,8V6.605A5.725,5.725,0,0,1,4,2.252,5.725,5.725,0,0,1,6,6.605V8ZM22,50.288A14.772,14.772,0,0,0,9.934,49.75L8,50.523V10.677l2.676-1.071A12.713,12.713,0,0,1,22,10.548Zm40,6.221a25.731,25.731,0,0,0-17.626-.2c-.124.043-.25.074-.374.115V23a1,1,0,0,0-2,0V57c0,.015.008.028.009.043A35.348,35.348,0,0,1,24,57.228V15.294a35.687,35.687,0,0,0,18,0V19a1,1,0,0,0,2,0V14.771a33.69,33.69,0,0,1,18-.019Z"/></g></svg>