<svg xmlns="http://www.w3.org/2000/svg" viewBox="0 0 64 64"><g id="_03-clover" data-name="03-clover"><path d="M34.409,42.98a2.416,2.416,0,0,0-4.375,0c-.221.469-.445.961-.693,1.522,3.009,4.214,2.76,9.347-.113,13.656l-.078.117a3.039,3.039,0,1,0,5.461,2.485l.219-.8a29.3,29.3,0,0,0,.312-15.364C34.878,44,34.641,43.473,34.409,42.98Z" style="fill:#a84527"/><path d="M31.15,58.275l.078-.117a11.772,11.772,0,0,0,.9-12.4,3.062,3.062,0,0,1-.1-2.767l.007-.014a2.347,2.347,0,0,1,1.187-1.153,2.4,2.4,0,0,0-3.187,1.153c-.221.469-.445.961-.693,1.522,3.009,4.214,2.76,9.347-.113,13.656L29.2,58.2a2.973,2.973,0,0,0,1.408,4.609,3.041,3.041,0,0,0,2.071.021A3.039,3.039,0,0,1,31.15,58.275Z" style="fill:#692b1c"/><path d="M30.034,42.98a2.416,2.416,0,0,1,4.375,0c.436.926.883,1.935,1.509,3.409,1.3,3.066,2.735,6.43,5.557,8.41a9.02,9.02,0,0,0,13.29-11.411,8.986,8.986,0,0,0,7.313-11.636c-1.409-4.5-5.739-6.617-10.2-6.116-3.36.377-5.726.731-8.29,1.122a2.417,2.417,0,0,1-2.312-3.82c1.651-2.25,3.185-4.347,5.114-7.2C48.9,12.012,49.035,7.194,45.7,3.86A8.984,8.984,0,0,0,32,4.944,9.036,9.036,0,0,0,15.728,11.43c.446,3.418,2.762,6.246,4.875,8.822.831,1.013,1.474,1.82,2.05,2.57a2.418,2.418,0,0,1-2.281,3.864c-2.358-.36-4.526-.682-7.807-1.05-4.461-.5-8.791,1.615-10.2,6.116A8.986,8.986,0,0,0,9.678,43.388,9.036,9.036,0,0,0,22.968,54.8c2.822-1.98,4.254-5.344,5.557-8.41C29.151,44.915,29.6,43.906,30.034,42.98Z" style="fill:#7ac147"/><path d="M62.078,31.752c-1.409-4.5-5.739-6.617-10.2-6.116-3.36.377-5.726.731-8.29,1.122a2.417,2.417,0,0,1-2.312-3.82c1.651-2.25,3.185-4.347,5.114-7.2C48.9,12.012,49.035,7.194,45.7,3.86A8.984,8.984,0,0,0,32,4.944V41.62a2.376,2.376,0,0,1,2.409,1.36c.436.926.883,1.935,1.509,3.409,1.3,3.066,2.735,6.43,5.557,8.41a9.02,9.02,0,0,0,13.29-11.411,8.986,8.986,0,0,0,7.313-11.636Z" style="fill:#4a8a3e"/><path d="M40.536,38.536h0a9.722,9.722,0,0,0-7.072-7.072h0a9.722,9.722,0,0,0,7.072,7.072Z" style="fill:#ffa540"/><path d="M32,28h0a9.716,9.716,0,0,0,0-10h0a9.716,9.716,0,0,0,0,10Z" style="fill:#ffa540"/><path d="M23.464,38.536h0a9.722,9.722,0,0,1,7.072-7.072h0a9.722,9.722,0,0,1-7.072,7.072Z" style="fill:#ffa540"/><circle cx="32" cy="30" r="2" style="fill:#b85c38"/><path d="M63.032,31.453c-1.461-4.667-5.995-7.408-11.265-6.811-3.272.367-5.611.713-8.329,1.127a1.417,1.417,0,0,1-1.356-2.239c1.545-2.106,3.144-4.284,5.138-7.238,2.971-4.4,2.645-9.682-.813-13.14a10.052,10.052,0,0,0-14.2,0c-.07.07-.139.141-.207.214-.068-.073-.137-.144-.207-.214a10.042,10.042,0,0,0-17.057,8.407c.485,3.709,2.933,6.693,5.094,9.327.823,1,1.459,1.8,2.03,2.545A1.417,1.417,0,0,1,20.523,25.7c-2.45-.374-4.583-.689-7.846-1.055-5.288-.594-9.806,2.145-11.266,6.811A10.053,10.053,0,0,0,7.994,44.036c.094.029.189.057.286.084-.034.094-.065.188-.094.281A10.042,10.042,0,0,0,14.77,56.984a10.11,10.11,0,0,0,8.773-1.367c3.061-2.149,4.57-5.7,5.9-8.837l.037-.088a10.353,10.353,0,0,1,.145,8.613,1,1,0,0,0,.543,1.306.988.988,0,0,0,.381.076,1,1,0,0,0,.925-.619,12.265,12.265,0,0,0-.95-11.6c-.014-.022-.036-.033-.051-.053.159-.354.314-.693.463-1.011h0a1.417,1.417,0,0,1,2.567,0c.229.489.465,1.008.725,1.6.005.028,0,.054,0,.082a28.3,28.3,0,0,1-.368,14.606l-.219.806A2.044,2.044,0,0,1,31.679,62a2.039,2.039,0,0,1-1.7-3.17,1,1,0,0,0-1.664-1.11A4.04,4.04,0,0,0,31.679,64a4.047,4.047,0,0,0,3.9-2.976l.22-.8A32.257,32.257,0,0,0,37,51.033a13.4,13.4,0,0,0,3.9,4.585,10.117,10.117,0,0,0,5.794,1.819A10.025,10.025,0,0,0,56.257,44.4c-.028-.093-.06-.188-.094-.282.1-.027.191-.055.285-.084A10.054,10.054,0,0,0,63.032,31.453ZM55.851,42.127a7.914,7.914,0,0,1-1.233.271,1,1,0,0,0-.749,1.435A8.036,8.036,0,0,1,42.049,53.98c-2.592-1.819-3.923-4.952-5.21-7.981-.624-1.47-1.08-2.5-1.525-3.444a3.416,3.416,0,0,0-6.185,0c-.443.942-.9,1.971-1.525,3.443-1.287,3.03-2.617,6.162-5.21,7.982a8.091,8.091,0,0,1-7.027,1.1A8.042,8.042,0,0,1,10.094,45a8.158,8.158,0,0,1,.48-1.168,1,1,0,0,0-.75-1.433,7.964,7.964,0,0,1-1.232-.271A8.049,8.049,0,0,1,3.32,32.051c1.345-4.3,5.552-5.827,9.134-5.422,3.226.363,5.339.675,7.767,1.045a3.417,3.417,0,0,0,3.225-5.461c-.582-.757-1.231-1.573-2.07-2.6-2.087-2.544-4.246-5.176-4.656-8.317A8.021,8.021,0,0,1,31.192,5.533a1.036,1.036,0,0,0,1.616,0,8.261,8.261,0,0,1,.813-.967,8.053,8.053,0,0,1,11.372,0c3.188,3.188,2.582,7.624.569,10.607C43.59,18.1,42,20.256,40.469,22.347a3.418,3.418,0,0,0,3.269,5.4c2.7-.412,5.017-.755,8.251-1.118,3.574-.4,7.787,1.12,9.135,5.422A8.052,8.052,0,0,1,55.851,42.127Z"/><path d="M41.505,38.293a10.693,10.693,0,0,0-6.645-7.434,2.916,2.916,0,0,0-1.418-3.474,10.7,10.7,0,0,0-.585-9.9,1.039,1.039,0,0,0-1.714,0,10.709,10.709,0,0,0-.585,9.9,2.913,2.913,0,0,0-1.418,3.472,10.7,10.7,0,0,0-6.646,7.435,1,1,0,0,0,1.213,1.213,10.7,10.7,0,0,0,7.434-6.646,2.7,2.7,0,0,0,1.717,0,10.7,10.7,0,0,0,7.435,6.646,1,1,0,0,0,1.212-1.213ZM32,20.436a8.7,8.7,0,0,1,0,5.128A8.711,8.711,0,0,1,32,20.436ZM25.186,36.814a8.694,8.694,0,0,1,3.627-3.627A8.694,8.694,0,0,1,25.186,36.814ZM32,31a1,1,0,1,1,1-1A1,1,0,0,1,32,31Zm3.187,2.187a8.692,8.692,0,0,1,3.626,3.627A8.7,8.7,0,0,1,35.187,33.187Z"/></g></svg>