<svg xmlns="http://www.w3.org/2000/svg" viewBox="0 0 64 64"><g id="_06-man" data-name="06-man"><path d="M17,49l-6.295,3.389A21.811,21.811,0,0,0,1,63H63a21.811,21.811,0,0,0-9.7-10.611L47,49Z" style="fill:#38682f"/><path d="M53.3,52.389,47,49H43l6.3,3.389A21.816,21.816,0,0,1,59,63h4A21.816,21.816,0,0,0,53.3,52.389Z" style="fill:#306026"/><path d="M14.705,52.389,21,49H17l-6.295,3.389A21.816,21.816,0,0,0,1,63H5A21.816,21.816,0,0,1,14.705,52.389Z" style="fill:#306026"/><polygon points="32 63 26 63 22.45 53.164 32 59 32 63" style="fill:#edede8"/><polygon points="45.004 63 43.004 59 47.187 55.137 41.554 53.164 38.004 63 45.004 63" style="fill:#7ac147"/><polygon points="32 63 38 63 41.55 53.164 32 59 32 63" style="fill:#edede8"/><polygon points="19 63 21 59 16.817 55.137 22.45 53.164 26 63 19 63" style="fill:#7ac147"/><path d="M19,25l-3.616,7.956A15.433,15.433,0,0,0,14,39.343h0a15.434,15.434,0,0,0,7.387,13.171L32,59l10.613-6.486A15.434,15.434,0,0,0,50,39.343h0a15.433,15.433,0,0,0-1.384-6.387L45,25H41l2.02,6.059a13.146,13.146,0,0,1,.542,6.01h0a6.428,6.428,0,0,1-4.329,5.187h0a6.431,6.431,0,0,1-4.418-.13L32,41l-2.815,1.126a6.431,6.431,0,0,1-4.418.13h0a6.428,6.428,0,0,1-4.329-5.187h0a13.146,13.146,0,0,1,.542-6.01L23,25Z" style="fill:#ef8e2e"/><path d="M41,25l2.02,6.059a13.146,13.146,0,0,1,.542,6.01h0a6.428,6.428,0,0,1-4.329,5.187h0a6.431,6.431,0,0,1-4.418-.13L32,41l-2.815,1.126a6.431,6.431,0,0,1-4.418.13h0a6.428,6.428,0,0,1-4.329-5.187h0a13.146,13.146,0,0,1,.542-6.01L23,25Z" style="fill:#f9e8d7"/><path d="M22.438,39.069a13.146,13.146,0,0,1,.542-6.01h0A8.862,8.862,0,0,1,31.387,27h10.28L41,25H23l-2.02,6.059a13.146,13.146,0,0,0-.542,6.01,6.414,6.414,0,0,0,2.916,4.5A6.415,6.415,0,0,1,22.438,39.069Z" style="fill:#edd8c5"/><path d="M17,35.5A16.663,16.663,0,0,1,20.86,25H19l-3.617,7.956a15.437,15.437,0,0,0,6,19.558L32,59l6.751-4.125C26.514,53.786,17,45.529,17,35.5Z" style="fill:#e07719"/><path d="M27,38h.764A9.468,9.468,0,0,0,32,37h0a9.468,9.468,0,0,0,4.236,1H37l-1.8-2.4A4,4,0,0,0,32,34h0a4,4,0,0,0-3.2,1.6Z" style="fill:#ef8e2e"/><rect x="15" y="19" width="34" height="6" rx="3" style="fill:#4a8a3e"/><path d="M48,23H20a2.96,2.96,0,0,1-2.86-3.86A2.992,2.992,0,0,0,18,25H46a2.99,2.99,0,0,0,2.86-2.14A2.983,2.983,0,0,1,48,23Z" style="fill:#3a7c2d"/><rect x="20" y="15" width="24" height="4" style="fill:#b85c38"/><path d="M20,15,18.4,3.785A2.44,2.44,0,0,1,20.813,1H43.187A2.44,2.44,0,0,1,45.6,3.785L44,15Z" style="fill:#4a8a3e"/><path d="M22.4,6.785A2.44,2.44,0,0,1,24.813,4H45.571l.031-.215A2.44,2.44,0,0,0,43.187,1H20.813A2.44,2.44,0,0,0,18.4,3.785L20,15h3.571Z" style="fill:#3a7c2d"/><rect x="28" y="13" width="8" height="6" style="fill:#f7ca02"/><path d="M63.919,62.606a22.894,22.894,0,0,0-10.15-11.1L48.186,48.5a16.366,16.366,0,0,0,1.341-15.961l-3-6.6A3.99,3.99,0,0,0,46,18H45V15.07L46.592,3.927A3.44,3.44,0,0,0,43.187,0H20.813a3.44,3.44,0,0,0-3.4,3.927L19,15.07V18H18a3.99,3.99,0,0,0-.529,7.947l-3,6.6A16.366,16.366,0,0,0,15.814,48.5l-5.583,3.006a22.894,22.894,0,0,0-10.15,11.1A1,1,0,0,0,1,64H55a1,1,0,0,0,0-2H45.623l-1.388-2.775,3.631-3.354a1,1,0,0,0-.348-1.678L43.839,52.9a16.32,16.32,0,0,0,3.12-2.791L52.82,53.27A20.889,20.889,0,0,1,61.42,62H59a1,1,0,0,0,0,2h4a1,1,0,0,0,.919-1.394ZM29,17h2a1,1,0,0,0,0-2H29V14h6v4H29Zm8-1h6v2H37ZM19.726,2.5A1.416,1.416,0,0,1,20.813,2H43.187a1.441,1.441,0,0,1,1.425,1.644L43.133,14H37V13a1,1,0,0,0-1-1H28a1,1,0,0,0-1,1v1H20.867L19.388,3.644A1.418,1.418,0,0,1,19.726,2.5ZM21,16h6v2H21Zm-5,6a2,2,0,0,1,2-2H46a2,2,0,0,1,0,4H38a1,1,0,0,0,0,2h2.279l1.792,5.375a12.187,12.187,0,0,1,.5,5.552,5.424,5.424,0,0,1-7.385,4.27l-2.815-1.126a1.017,1.017,0,0,0-.744,0L28.813,41.2a5.426,5.426,0,0,1-7.385-4.271,12.187,12.187,0,0,1,.5-5.552L23.721,26H34a1,1,0,0,0,0-2H18A2,2,0,0,1,16,22ZM11.18,53.27l5.861-3.157a16.4,16.4,0,0,0,3.121,2.793l-3.675,1.287a1,1,0,0,0-.348,1.678l3.631,3.354L18.382,62H2.58A20.889,20.889,0,0,1,11.18,53.27ZM33,59.561,39.649,55.5,37.3,62H33ZM31,62H26.7l-2.345-6.5L31,59.561Zm-9.321-3.734-2.961-2.735,3.128-1.1L24.576,62H20.618L21.9,59.447A1,1,0,0,0,21.679,58.266Zm20.647,0a1,1,0,0,0-.216,1.181L43.386,62H39.428l2.731-7.565,3.128,1.1Zm-.234-6.6L32,57.828,21.908,51.661A14.525,14.525,0,0,1,15,39.343a14.349,14.349,0,0,1,1.293-5.973L19.644,26h1.968l-1.58,4.743a14.186,14.186,0,0,0-.583,6.467,7.428,7.428,0,0,0,10.108,5.845L32,42.077l2.443.977A7.423,7.423,0,0,0,44.551,37.21a14.186,14.186,0,0,0-.583-6.467L42.388,26h1.968l3.35,7.37A14.334,14.334,0,0,1,49,39.343,14.525,14.525,0,0,1,42.092,51.661Z"/><path d="M28,33a1,1,0,0,0,1-1V31a1,1,0,0,0-2,0v1A1,1,0,0,0,28,33Z"/><path d="M35,32a1,1,0,0,0,2,0V31a1,1,0,0,0-2,0Z"/><path d="M32,33a5.025,5.025,0,0,0-4,2l-1.8,2.4A1,1,0,0,0,27,39h.764A10.544,10.544,0,0,0,32,38.1a10.544,10.544,0,0,0,4.236.9H37a1,1,0,0,0,.8-1.6L36,35A5.025,5.025,0,0,0,32,33Zm.447,3.1a1,1,0,0,0-.894,0,8.491,8.491,0,0,1-2.475.791l.522-.7a3,3,0,0,1,4.8,0l.522.7A8.491,8.491,0,0,1,32.447,36.1Z"/><path d="M29.994,10.337A2,2,0,0,0,32,8.343a2,2,0,1,0,2.006-1.994,2,2,0,1,0-4-.012,2,2,0,1,0-.012,4Z" style="fill:#ef8e2e"/><path d="M34,11.349h-.009a2.989,2.989,0,0,1-2-.771,2.819,2.819,0,0,1-2,.759h0a3,3,0,0,1-.853-5.874,3,3,0,0,1,5.743.018A3,3,0,0,1,34,11.349Zm-1-3a1,1,0,0,0,1,1h0a1,1,0,0,0,0-2,1,1,0,0,1-1-1,1,1,0,0,0-1-1h0a1,1,0,0,0-1,1,1,1,0,0,1-1,1H30a1,1,0,0,0,0,2,1.226,1.226,0,0,0,.708-.291A.991.991,0,0,0,31,8.34a1,1,0,0,1,1-1h0a1,1,0,0,1,1,1Z"/></g></svg>