<svg xmlns="http://www.w3.org/2000/svg" viewBox="0 0 64 64"><g id="_30-outfit" data-name="30-outfit"><polygon points="29.22 17.61 21.73 21.29 7.68 28.18 1.51 15.61 15.56 8.72 23.06 5.04 29.22 17.61" style="fill:#7ac147"/><polygon points="29.22 17.61 21.73 21.29 15.56 8.72 23.06 5.04 29.22 17.61" style="fill:#f88522"/><rect x="11.429" y="9.68" width="7.606" height="14" transform="translate(-5.789 8.412) rotate(-26.128)" style="fill:#f9f9f2"/><path d="M23.73,17.29l-3.912,1.918A11.3,11.3,0,0,1,4.7,14.043h0L1.51,15.61,7.68,28.18l14.05-6.89,7.49-3.68-1.192-2.432Z" style="opacity:0.1"/><ellipse cx="32" cy="51.972" rx="31" ry="7" style="fill:#4daa3c"/><path d="M32,56.972c-15.617,0-28.53-2.607-30.68-6a1.865,1.865,0,0,0-.32,1c0,3.866,13.879,7,31,7s31-3.134,31-7a1.865,1.865,0,0,0-.32-1C60.53,54.365,47.617,56.972,32,56.972Z" style="fill:#3a802d"/><path d="M49.7,49.1A55.788,55.788,0,0,1,32,51.97,55.788,55.788,0,0,1,14.3,49.1a4.311,4.311,0,0,1-2.93-4.56l.01-.06a3.067,3.067,0,0,1,.07-.42C13.46,35.46,21.9,29,32,29s18.54,6.46,20.55,15.06a3.067,3.067,0,0,1,.07.42A4.306,4.306,0,0,1,49.7,49.1Z" style="fill:#4daa3c"/><path d="M52.55,44.06c-.022-.095-.056-.185-.079-.279A56.034,56.034,0,0,1,41,44.97,55.788,55.788,0,0,1,23.3,42.1a4.311,4.311,0,0,1-2.93-4.56l.01-.06a3.067,3.067,0,0,1,.07-.42,17.948,17.948,0,0,1,2.938-6.383A19.567,19.567,0,0,0,11.45,44.06a3.067,3.067,0,0,0-.07.42l-.01.06A4.311,4.311,0,0,0,14.3,49.1,55.788,55.788,0,0,0,32,51.97,55.788,55.788,0,0,0,49.7,49.1a4.306,4.306,0,0,0,2.92-4.62A3.067,3.067,0,0,0,52.55,44.06Z" style="fill:#3a802d"/><path d="M49.7,49.1A55.788,55.788,0,0,1,32,51.97,55.788,55.788,0,0,1,14.3,49.1a4.311,4.311,0,0,1-2.93-4.56l.01-.06a64.272,64.272,0,0,0,41.24,0A4.306,4.306,0,0,1,49.7,49.1Z" style="fill:#692b1c"/><rect x="34.632" y="9.613" width="24" height="14" transform="translate(81.183 52.065) rotate(-153.872)" style="fill:#4a8a3e"/><path d="M42.181,6.633h0l-3.24-1.589L32.776,17.613l21.547,10.57,1.761-3.589-9.328-4.576A10,10,0,0,1,42.181,6.633Z" style="fill:#38682f"/><path d="M36.25,39.5l-2.072-.345a.157.157,0,0,1,0-.31L36.25,38.5a1.75,1.75,0,1,0-.273-3.477A1.749,1.749,0,1,0,32.5,34.75l-.345,2.072a.157.157,0,0,1-.31,0L31.5,34.75a1.75,1.75,0,1,0-3.477.273A1.749,1.749,0,1,0,27.75,38.5l2.072.345a.157.157,0,0,1,0,.31L27.75,39.5a1.75,1.75,0,1,0,.273,3.477,1.749,1.749,0,1,0,3.477.273l.345-2.072a.157.157,0,0,1,.31,0L32.5,43.25a1.75,1.75,0,1,0,3.477-.273A1.749,1.749,0,1,0,36.25,39.5Z" style="fill:#fad550"/><path d="M39,36.75a2.756,2.756,0,0,0-2.082-2.668A2.749,2.749,0,0,0,32,33.171a2.749,2.749,0,0,0-4.918.911A2.749,2.749,0,0,0,26.171,39a2.749,2.749,0,0,0,.911,4.918A2.749,2.749,0,0,0,32,44.829a2.749,2.749,0,0,0,4.918-.911A2.749,2.749,0,0,0,37.829,39,2.748,2.748,0,0,0,39,36.75Zm-4.982,1.108a1.157,1.157,0,0,0-.005,2.283l2.073.345a1,1,0,0,0,.164.014.752.752,0,0,1,.75.75.775.775,0,0,1-.871.738,1,1,0,0,0-1.141,1.141A.787.787,0,0,1,35,43.25a.75.75,0,0,1-1.5,0,1,1,0,0,0-.014-.164l-.344-2.068a1.157,1.157,0,0,0-2.283-.005l-.345,2.073a1,1,0,0,0-.014.164.75.75,0,0,1-1.5,0,.787.787,0,0,1,.012-.121,1,1,0,0,0-1.141-1.141A.774.774,0,0,1,27,41.25a.752.752,0,0,1,.75-.75,1,1,0,0,0,.164-.014l2.068-.344a1.157,1.157,0,0,0,0-2.283l-2.073-.345a1,1,0,0,0-.164-.014.752.752,0,0,1-.75-.75.774.774,0,0,1,.871-.738,1,1,0,0,0,1.141-1.141A.787.787,0,0,1,29,34.75a.75.75,0,0,1,1.5,0,1,1,0,0,0,.014.164l.344,2.068a1.157,1.157,0,0,0,2.283.005l.345-2.073a1,1,0,0,0,.014-.164.75.75,0,0,1,1.5,0,.787.787,0,0,1-.012.121,1,1,0,0,0,1.141,1.141A.775.775,0,0,1,37,36.75a.752.752,0,0,1-.75.75,1,1,0,0,0-.164.014Z"/><path d="M53.57,45.952a5.26,5.26,0,0,0-.049-2.121,18.731,18.731,0,0,0-.928-2.887,1,1,0,1,0-1.848.766,16.458,16.458,0,0,1,.7,2.1,63.739,63.739,0,0,1-38.879,0C14.7,35.781,22.773,30,32,30a20.556,20.556,0,0,1,17.375,9.08,1,1,0,1,0,1.687-1.072A22.2,22.2,0,0,0,35.6,28.282L32.114,21.2l1.108-2.254L53.883,29.08a1,1,0,0,0,.44.1.986.986,0,0,0,.323-.054,1,1,0,0,0,.575-.506l6.165-12.569a1,1,0,0,0-.457-1.338L39.382,4.146a1,1,0,0,0-1.338.457h0L31,18.933,23.956,4.6h0a1,1,0,0,0-1.338-.457L1.071,14.716a1,1,0,0,0-.457,1.338L6.779,28.623a1,1,0,0,0,.575.506.986.986,0,0,0,.323.054,1,1,0,0,0,.44-.1l20.66-10.134L29.885,21.2l-3.7,7.525C18.426,30.679,12.2,36.434,10.479,43.832a5.255,5.255,0,0,0-.049,2.12C3.513,47.431,0,49.463,0,52c0,5.252,16.1,8,32,8s32-2.748,32-8C64,49.463,60.487,47.431,53.57,45.952Zm.3-19.107L34.114,17.156,39.4,6.382,59.15,16.07ZM15.106,10.058l5.285,10.774L15.357,23.3,10.073,12.527ZM2.85,16.07l5.428-2.662,5.284,10.774L8.134,26.845Zm19.337,3.882L16.9,9.178l5.7-2.8,5.284,10.774ZM31,23.467l2.247,4.571C32.833,28.016,32.418,28,32,28a23.792,23.792,0,0,0-3.351.25Zm20.524,22.41a3.337,3.337,0,0,1-2.141,2.275,55.321,55.321,0,0,1-34.766,0,3.335,3.335,0,0,1-2.141-2.275A65.513,65.513,0,0,0,32,48.855,65.513,65.513,0,0,0,51.524,45.877ZM32,58C13.687,58,2,54.446,2,52c0-.794,1.953-2.651,9.172-4.159a5.307,5.307,0,0,0,2.812,2.208A57.051,57.051,0,0,0,32,52.953a57.051,57.051,0,0,0,18.016-2.9,5.3,5.3,0,0,0,2.812-2.208C60.047,49.348,62,51.206,62,52,62,54.446,50.313,58,32,58Z"/></g></svg>