<svg xmlns="http://www.w3.org/2000/svg" viewBox="0 0 64 64"><g id="_28-parade" data-name="28-parade"><path d="M42,20v5A10,10,0,0,1,32,35h0A10,10,0,0,1,22,25V20Z" style="fill:#ffece9"/><path d="M24,25V20H22v5A10,10,0,0,0,32,35c.338,0,.671-.018,1-.05A10,10,0,0,1,24,25Z" style="fill:#f9dad7"/><path d="M6.356,29.186a.35.35,0,0,1,.633,0c.063.134.128.28.219.493a2.674,2.674,0,0,0,.8,1.217,1.308,1.308,0,0,0,2-1.461,1.282,1.282,0,0,0-.078-.19,1.3,1.3,0,1,0-.417-2.569c-.487.055-.829.106-1.2.163a.35.35,0,0,1-.334-.553c.239-.326.46-.629.74-1.043a1.325,1.325,0,0,0-.1-1.718,1.31,1.31,0,0,0-1.85,0,1.277,1.277,0,0,0-.132.157,1.383,1.383,0,0,0-.133-.157,1.308,1.308,0,0,0-2.222,1.1A2.677,2.677,0,0,0,4.992,25.9c.12.147.213.264.3.372a.35.35,0,0,1-.33.559c-.341-.052-.655-.1-1.129-.152a1.324,1.324,0,0,0-1.476.885A1.307,1.307,0,0,0,3.211,29.2a1.281,1.281,0,0,0,.2.045,1.282,1.282,0,0,0-.078.19,1.308,1.308,0,0,0,2,1.461,2.684,2.684,0,0,0,.8-1.217C6.228,29.466,6.293,29.32,6.356,29.186Z" style="fill:#56b348"/><polygon points="52.128 13.735 52.128 21 44.254 15.75 52.128 13.735" style="fill:#fad550"/><polygon points="60.043 8.7 62.128 16 53.916 12.92 60.043 8.7" style="fill:#7ac147"/><polygon points="12 13.579 12 21 19 16.333 12 13.579" style="fill:#fad550"/><polygon points="4.06 8.789 2 16 10.339 12.873 4.06 8.789" style="fill:#7ac147"/><path d="M3,47,1.427,43.854A4.044,4.044,0,0,1,1,42.045H1A4.045,4.045,0,0,1,5.045,38h.91A4.045,4.045,0,0,1,10,42.045h0a4.044,4.044,0,0,1-.427,1.809L8,47Z" style="fill:#f2cfcc"/><path d="M55,63H47L43,53V63H21V53l-2.06,5.15L17,63H9l2.17-8.68.39-1.56a19.672,19.672,0,0,1,11.78-13.5l5.6-2.24h6.12l5.6,2.24a19.672,19.672,0,0,1,11.78,13.5Z" style="fill:#afda91"/><path d="M33.5,37.6l-4.16,1.66a19.672,19.672,0,0,0-11.78,13.5h0a5.3,5.3,0,0,0,.54,3.922l.84,1.468L17,63H9l2.17-8.68.39-1.56a19.672,19.672,0,0,1,11.78-13.5l5.6-2.24h3.12Z" style="fill:#9dc67d"/><polygon points="17 63 11.67 52.34 9 47 1 47 9 63 17 63" style="fill:#afda91"/><path d="M57,63H42l-1-2L33.16,45.32,32,43l9-7A23.912,23.912,0,0,1,55.33,53.79l.96,5.3Z" style="fill:#4a8a3e"/><path d="M57,63H42l-1-2L33.16,45.32,32,43l9-7a22.963,22.963,0,0,1,4.51,2.49,23.83,23.83,0,0,1,9.82,15.3L56.09,58l.05.29.15.8Z" style="fill:#4a8a3e"/><path d="M32.637,44.794,22.258,38.327a5.861,5.861,0,0,0-3.141-.886h0a5.859,5.859,0,0,0-5.064,2.99h0a2.241,2.241,0,0,0,1.4,3.27l9.558,2.428A9.447,9.447,0,0,0,32.637,44.8Z" style="fill:#4a8a3e"/><path d="M15.052,43.431a5.858,5.858,0,0,1,8.206-2.1l7.265,4.527a9.4,9.4,0,0,0,2.114-1.06L22.258,38.327a5.858,5.858,0,0,0-8.206,2.1,2.236,2.236,0,0,0,.958,3.1C15.027,43.5,15.034,43.463,15.052,43.431Z" style="fill:#447a38"/><path d="M57,63H42l-1-2L33.16,45.32,32,43l9-7h0a23.811,23.811,0,0,0,1.012,17.6h0a9.427,9.427,0,0,0,9.972,5.331l4.156-.638.15.8Z" style="fill:#447a38"/><circle cx="31.5" cy="44.5" r="2.5" style="fill:#b95a3a"/><path d="M28.058,34.193l.724,2.412A3.359,3.359,0,0,0,32,39h0a3.359,3.359,0,0,0,3.218-2.4l.724-2.412Z" style="fill:#f2cfcc"/><path d="M22,23H20.5A1.5,1.5,0,0,0,19,24.5h0A1.5,1.5,0,0,0,20.5,26H22Z" style="fill:#f4dad7"/><path d="M42,23h1.5A1.5,1.5,0,0,1,45,24.5h0A1.5,1.5,0,0,1,43.5,26H42Z" style="fill:#f4dad7"/><polygon points="23 20 26 24 29 20 23 20" style="fill:#ffa540"/><polygon points="29 20 32 24 35 20 29 20" style="fill:#ffa540"/><polygon points="35 20 38 24 41 20 35 20" style="fill:#ffa540"/><path d="M43.371,20H20.629a1.263,1.263,0,0,1-.987-2.053L22,15H42l2.358,2.947A1.263,1.263,0,0,1,43.371,20Z" style="fill:#7ac147"/><path d="M44.166,17.707a1.224,1.224,0,0,1-.795.293H20.629a1.224,1.224,0,0,1-.8-.293l-.192.24A1.263,1.263,0,0,0,20.629,20H43.371a1.263,1.263,0,0,0,.987-2.053Z" style="fill:#66a534"/><rect x="22" y="12" width="20" height="3" style="fill:#b95a3a"/><path d="M29,12H22L20,2h0A69.1,69.1,0,0,1,44,2h0L42,12H29Z" style="fill:#7ac147"/><path d="M31.557,9A7.58,7.58,0,0,1,24,1.443h0c-1.311.153-2.636.33-4,.557l2,10H42l.6-3Z" style="fill:#66a534"/><rect x="29" y="10" width="6" height="5" style="fill:#ef8e2e"/><path d="M1.039,15.726A1,1,0,0,0,2,17a1.016,1.016,0,0,0,.351-.063l7.964-2.987c.225.1.454.2.685.294V21a1,1,0,0,0,1.555.832l4.28-2.853a1,1,0,0,0-1.109-1.665L13,19.132V15.02q.831.294,1.707.563c.429.132.865.26,1.308.381a1.02,1.02,0,0,0,.266.036,1,1,0,0,0,.264-1.964q-.636-.175-1.252-.365C6.97,11.113,2,6.938,2,2.5a1,1,0,0,0-2,0A9.554,9.554,0,0,0,2.943,9.062Zm2.467-1.359,1.087-3.8a23.006,23.006,0,0,0,3.269,2.169Z"/><path d="M61.156,8.959a9.575,9.575,0,0,0,2.8-6.682,1,1,0,0,0-2,.055C62.075,6.7,57.1,11.118,48.971,13.86c-.408.138-.823.271-1.242.4a1,1,0,1,0,.585,1.912c.44-.135.873-.274,1.3-.417.52-.175,1.023-.359,1.518-.546v3.922l-2.613-1.742a1,1,0,0,0-1.11,1.664l4.168,2.779A1,1,0,0,0,53.128,21V14.385c.281-.125.555-.253.826-.382l7.822,2.934a1.026,1.026,0,0,0,.352.063,1,1,0,0,0,.962-1.274Zm-4.838,3.794a23.125,23.125,0,0,0,3.2-2.235l1.1,3.849Z"/><path d="M35,28a1,1,0,0,0,1-1V26a1,1,0,0,0-2,0v1A1,1,0,0,0,35,28Z"/><path d="M29,25a1,1,0,0,0-1,1v1a1,1,0,0,0,2,0V26A1,1,0,0,0,29,25Z"/><path d="M55.7,55.871a1,1,0,0,0-.8,1.162L55.8,62H42.618L34.633,46.029a3.413,3.413,0,0,0-.3-3.573l6.819-5.3a22.822,22.822,0,0,1,13.2,16.817,1,1,0,0,0,.982.821.921.921,0,0,0,.18-.017,1,1,0,0,0,.8-1.162A24.815,24.815,0,0,0,41.385,35.077a1,1,0,0,0-1,.134L37.952,37.1l-1.642-.657.466-1.553A11.023,11.023,0,0,0,42.809,27H43.5a2.5,2.5,0,0,0,0-5H43V21h.371a2.265,2.265,0,0,0,1.769-3.678L43,14.648V12.1l1.98-9.9a1,1,0,0,0-.816-1.182,69.956,69.956,0,0,0-24.329,0A1,1,0,0,0,19.02,2.2L21,12.1v2.55l-2.139,2.673A2.264,2.264,0,0,0,20.628,21H21v1h-.5a2.5,2.5,0,0,0,0,5h.691a11.023,11.023,0,0,0,6.033,7.894l.466,1.552-4,1.6-.908-.565a7.137,7.137,0,0,0-3.678-1.038,6.876,6.876,0,0,0-5.929,3.5,3.219,3.219,0,0,0,1.466,4.516,20.557,20.557,0,0,0-3.1,5.16c-.019.045-.034.092-.052.137l-1.6-3.2a1,1,0,0,0-.357-.393l.929-1.858a5.033,5.033,0,0,0-3.649-7.215A22.753,22.753,0,0,0,7.77,31.9a2.3,2.3,0,0,0,3.3-2.054,2.314,2.314,0,0,0,.874-2.578,2.362,2.362,0,0,0-2.309-1.6,2.3,2.3,0,0,0-3-3.268A2.31,2.31,0,0,0,3.294,24.75a2.617,2.617,0,0,0,.309.916A2.3,2.3,0,0,0,2.272,29.84a2.283,2.283,0,0,0,3.5,1.942A21.24,21.24,0,0,1,4.749,37.03,5.027,5.027,0,0,0,.533,44.3L1.382,46H1a1,1,0,0,0-.895,1.447l8,16A1,1,0,0,0,9,64h8a1,1,0,0,0,.851-.475,1.06,1.06,0,0,0,.071-.157l.006,0L20,58.193V63a1,1,0,0,0,1,1H57a1,1,0,0,0,.983-1.179l-1.117-6.145A1,1,0,0,0,55.7,55.871ZM31.5,43A1.5,1.5,0,1,1,30,44.5,1.5,1.5,0,0,1,31.5,43Zm12-19a.5.5,0,0,1,0,1H43V24ZM23,14V13h5v1Zm11,0H30V11h4Zm2-1h5v1H36ZM42.815,2.822,41.181,11H36V10a1,1,0,0,0-1-1H29a1,1,0,0,0-1,1v1H22.82L21.184,2.822A67.433,67.433,0,0,1,42.815,2.822ZM20.392,18.851a.246.246,0,0,1,.031-.279L22.48,16H41.52l2.057,2.571a.264.264,0,0,1-.206.429H20.628A.247.247,0,0,1,20.392,18.851ZM39,21l-1,1.333L37,21Zm-6,0-1,1.333L31,21Zm-6,0-1,1.333L25,21Zm-6.5,4a.5.5,0,0,1,0-1H21v1ZM23,25V21.666L25.2,24.6a1,1,0,0,0,1.6,0L29,21.666,31.2,24.6a1,1,0,0,0,1.6,0L35,21.666,37.2,24.6a1,1,0,0,0,1.6,0L41,21.666V25a9,9,0,0,1-18,0Zm9,11a10.978,10.978,0,0,0,2.441-.282l-.18.6A2.375,2.375,0,0,1,32,38a2.345,2.345,0,0,1-2.26-1.682l-.18-.6A10.962,10.962,0,0,0,32,36Zm-3.474,2.267a4.349,4.349,0,0,0,6.948,0l.649.26-3.456,2.688a3.391,3.391,0,0,0-3.185.435L25.8,39.357Zm-13.6,2.654a4.868,4.868,0,0,1,4.2-2.48,4.67,4.67,0,0,1,2.605.735l6.516,4.06a3.283,3.283,0,0,0-.122,2.135,8.426,8.426,0,0,1-2.865-.211L15.7,42.732a1.24,1.24,0,0,1-.776-1.811ZM5.452,28.758v0c-.067.142-.136.3-.234.528a2.094,2.094,0,0,1-.458.789.313.313,0,0,1-.269.043.307.307,0,0,1-.181-.151.335.335,0,0,1,0-.282,1.015,1.015,0,0,0-.039-.907,1.06,1.06,0,0,0-.76-.534.3.3,0,0,1-.181-.151.3.3,0,0,1-.021-.235.317.317,0,0,1,.333-.2.536.536,0,0,1,.076.005c.459.052.763.1,1.091.146a1.349,1.349,0,0,0,1.276-2.153c-.09-.118-.189-.242-.318-.4a2.1,2.1,0,0,1-.487-.771.322.322,0,0,1,.087-.26.318.318,0,0,1,.469.041,1.01,1.01,0,0,0,.821.391h0a1.043,1.043,0,0,0,.822-.432.311.311,0,0,1,.436,0c.152.153.035.367-.022.452-.271.4-.486.7-.718,1.01a1.35,1.35,0,0,0,1.292,2.133c.359-.055.69-.1,1.16-.157.1-.015.346-.016.411.19a.3.3,0,0,1-.022.235.34.34,0,0,1-.241.163,1.008,1.008,0,0,0-.719.552,1.047,1.047,0,0,0,0,.923.312.312,0,0,1-.021.236.306.306,0,0,1-.181.15.309.309,0,0,1-.271-.043,2.115,2.115,0,0,1-.458-.79c-.1-.227-.166-.384-.233-.528a1.35,1.35,0,0,0-2.442,0ZM2.322,43.407A3.044,3.044,0,0,1,5.045,39h.91a3.044,3.044,0,0,1,2.723,4.407L7.382,46H3.618ZM9.618,62l-7-14H8.382l7,14Zm11.571-9.982a1,1,0,0,0-1.118.611L16.9,60.561,12.743,52.25a18.149,18.149,0,0,1,4.022-7.185l8,2.033a10.427,10.427,0,0,0,2.571.321,10.532,10.532,0,0,0,1.978-.207,3.4,3.4,0,0,0,3.847.349L40.382,62H22V53A1,1,0,0,0,21.189,52.018Z"/></g></svg>