<?xml version="1.0" encoding="UTF-8"?>
<svg id="katman_2" data-name="katman 2" xmlns="http://www.w3.org/2000/svg" viewBox="0 0 140.23 120.9">
  <defs>
    <style>
      .cls-1 {
        fill: #4b939b;
      }

      .cls-1, .cls-2, .cls-3, .cls-4, .cls-5, .cls-6, .cls-7 {
        stroke-width: 0px;
      }

      .cls-2 {
        fill: #6db5ad;
      }

      .cls-3 {
        fill: #aad0ad;
      }

      .cls-4 {
        fill: #1e3442;
      }

      .cls-5 {
        fill: #fdfdfd;
      }

      .cls-6 {
        fill: #f0815c;
      }

      .cls-7 {
        fill: #fbbe52;
      }
    </style>
  </defs>
  <g id="katman_1" data-name="katman 1">
    <g>
      <path class="cls-2" d="M82.23,86.52c1.27.11,3.85.05,5.27,0-.44,4.62.34,2.79,6.54,3.12l.29-5.47c2.62,5.38,6.9,11.29,10.94,15.72l-4.79,5.18c-5.07-1.72-7.42-3.42-10.45-7.91l4.1,15.04-4.98,6.15-7.32-4-2.44-17.87-1.07,17.29-5.76,6.54-7.32-5.18,4.59-17.68c-4.67,8.4-8.88,17.53-16.8,23.44-.78-1-6.08-6.2-5.96-6.93,8.58-9.53,16.7-19.8,23.05-30.96.05.94.09,2.12-.2,3.03l5.18.29.2,3.32,6.84.2.1-3.32Z"/>
      <path class="cls-1" d="M28.71,26.95c4.57.99,9.02,2.48,13.67,3.12,0,2.64,0,5.27,0,7.91l4.3.39-.2,9.18,5.57.1.29,7.71,6.15.1.1,6.54,5.96.1.2,4.49,5.37.29c-.09,1.34-.2,2.65-.2,4l-12.79-.2-.2-6.05h-9.57l-.39-8.59-11.91.2-.1-8.5,3.03-.1v-.39c-2.05-.11-17.51-1.57-17.87-2.44l.29-8.11c4.53.2,9.04.85,13.57.49-8.76-2.12-17.62-3.76-26.27-6.35l-.1-8.5c6.95,1.94,14.07,3.06,21.09,4.59Z"/>
      <path class="cls-3" d="M42.58,22.66c-.34,2.46-.19,4.95-.2,7.42-4.65-.64-9.1-2.13-13.67-3.12C18.55,22.81,8.71,17.73,0,11.04L.1,0c13.74,10.46,26.16,17.05,42.48,22.66Z"/>
      <path class="cls-3" d="M119.53,31.25c-9.22,3.96-5,1.61-5.86-4.59,0-.03-.27-.49-.39-.49,12.5-6.98,16.9-11.33,26.66-21.68l.29,8.89c-6.25,6.69-13.43,12.35-20.7,17.87Z"/>
      <path class="cls-1" d="M119.73,37.89l4.88.29v7.03c-.36.9-7.22,1.08-8.4,1.37l-.29,8.3h-8.4l-.39,7.62-6.35-.2c.22-2.34.06-4.7.39-7.03,1.84.05,3.71.37,5.57.2l.29-7.32,5.86-.39.1-9.28c.22-.26,4.84-.23,6.74-.59Z"/>
      <path class="cls-1" d="M122.46,36.91c1.15-.7.35-4.61.59-7.23,3.82-1.84,7.44-4.14,11.23-6.05l.29,6.93c-3.76,2.45-7.82,4.92-12.11,6.35Z"/>
      <g>
        <path class="cls-6" d="M101.17,55.27c-.34,2.33-.17,4.69-.39,7.03-.63,6.88-3.18,15.46-6.64,21.48-.25.43-1.24,2.46-1.46,2.54-1.73-.17-3.46.14-5.18.2-1.42.05-4,.11-5.27,0-.38-.03-2.45-.22-2.54-.49,6.29-9.06,6.57-20.03,6.25-30.66.31-.7,13.53-.14,15.23-.1Z"/>
        <path class="cls-7" d="M94.34,84.18l-.29,5.47c-6.2-.34-6.98,1.5-6.54-3.12,1.71-.06,3.45-.36,5.18-.2.23-.08,1.22-2.11,1.46-2.54.31-.01.15.29.2.39Z"/>
        <g>
          <path class="cls-7" d="M113.28,26.17c.12,0,.39.46.39.49.86,6.2-3.36,8.55,5.86,4.59,1.19-.51,2.35-1,3.52-1.56-.23,2.61.57,6.53-.59,7.23-.62.21-2.54.94-2.73.98-1.9.36-6.52.33-6.74.59l-.1,9.28-5.86.39-.29,7.32c-1.86.17-3.72-.15-5.57-.2-1.7-.05-14.93-.6-15.23.1.32,10.64.04,21.61-6.25,30.66.09.27,2.16.46,2.54.49l-.1,3.32-6.84-.2-.2-3.32-5.18-.29c.29-.9.25-2.08.2-3.03-.23-4.06-.18-8.05-.2-12.11,0-1.35.11-2.66.2-4l-5.37-.29-.2-4.49-5.96-.1-.1-6.54-6.15-.1-.29-7.71-5.57-.1.2-9.18-4.3-.39c0-2.64,0-5.27,0-7.91,0-2.47-.15-4.97.2-7.42,4.88,1.67,11.5,2.46,15.72,5.47,3.64,2.59,16.69,18.86,20.7,23.63.57.02.75-5.96,1.27-8.69,1.2-6.31,3.47-14.22,10.84-15.33,5.91-.89,10.74.49,12.89,6.45,2.45-6.35,6.89-6.67,9.28-8.01Z"/>
          <path class="cls-4" d="M98.05,51.56c-.43-.43-3.47-4.11-3.52-4.39.21-1.69.6-4.37.39-5.96,3.08.05,5.92-.86,8.79-1.86.36,3.51,1.51,11.05-2.44,12.79-2.21.98-2.3.34-3.22-.59Z"/>
          <g>
            <path class="cls-5" d="M94.92,41.21c.21,1.59-.18,4.27-.39,5.96.05.28,3.08,3.96,3.52,4.39-7,1.45-13.83-4.01-14.45-10.25-.92-9.27,10.21-8.61,11.33-.1Z"/>
            <path class="cls-4" d="M88.18,37.89c3.96-1.14,3.55,5.66-.2,4.1-1.87-.78-1.02-3.75.2-4.1Z"/>
          </g>
        </g>
      </g>
    </g>
  </g>
</svg>