<svg xmlns="http://www.w3.org/2000/svg" viewBox="0 0 64 64"><g id="_19-Patrick" data-name="19-Patrick"><rect x="1" y="2" width="4" height="10" rx="2" style="fill:#692b1c"/><rect x="59" y="2" width="4" height="10" rx="2" style="fill:#692b1c"/><rect x="5" y="4" width="4" height="6" style="fill:#b95a3a"/><rect x="55" y="4" width="4" height="6" style="fill:#b95a3a"/><polygon points="55 1 55 44 43 53.91 32 63 21 53.43 9 43 9 1 55 1" style="fill:#7ac147"/><polygon points="55 1 55 44 43 53.91 43 1 55 1" style="fill:#f88522"/><polygon points="43 1 43 53.91 32 63 21 53.43 21 1 43 1" style="fill:#f9f9f2"/><path d="M28,53.43h0A34.882,34.882,0,0,1,16,27.1V1H9V43L21,53.43,32,63l3.59-2.967Z" style="opacity:0.1"/><path d="M33,33.736a1.105,1.105,0,0,0-2,0c-.1.215-.2.439-.316.7a5.332,5.332,0,0,1-.051,6.238l-.036.054a1.389,1.389,0,1,0,2.495,1.136l.1-.368a13.388,13.388,0,0,0,.142-7.019C33.214,34.2,33.1,33.961,33,33.736Z" style="fill:#692b1c"/><path d="M42.93,33.78a3.562,3.562,0,0,1-.63.14,5.389,5.389,0,0,1,.25.6,4.135,4.135,0,0,1-6.32,4.62,8.462,8.462,0,0,1-2.54-3.85c-.29-.67-.49-1.13-.69-1.55a1.1,1.1,0,0,0-2,0c-.2.42-.4.88-.69,1.55a8.462,8.462,0,0,1-2.54,3.85,4.135,4.135,0,0,1-6.32-4.62,5.389,5.389,0,0,1,.25-.6,3.562,3.562,0,0,1-.63-.14,4.127,4.127,0,0,1-2.71-5.17,4.174,4.174,0,0,1,4.66-2.8c1.5.17,2.49.32,3.57.48a1.1,1.1,0,0,0,1.04-1.76c-.26-.35-.56-.71-.94-1.18a8.526,8.526,0,0,1-2.23-4.03,4.189,4.189,0,0,1,1.18-3.46,4.134,4.134,0,0,1,5.84,0,4.839,4.839,0,0,1,.42.5,1.059,1.059,0,0,1,.1-.12,2.8,2.8,0,0,1,.32-.38,4.134,4.134,0,0,1,5.84,0,4.187,4.187,0,0,1,.31,5.43c-.88,1.3-1.58,2.26-2.33,3.29a1.1,1.1,0,0,0,1.05,1.74c1.17-.17,2.26-.34,3.79-.51a4.174,4.174,0,0,1,4.66,2.8A4.127,4.127,0,0,1,42.93,33.78Z" style="fill:#418636"/><path d="M32,16.24V33.1a1.1,1.1,0,0,0-1,.64c-.2.42-.4.88-.69,1.55a8.462,8.462,0,0,1-2.54,3.85,4.135,4.135,0,0,1-6.32-4.62,5.389,5.389,0,0,1,.25-.6,3.562,3.562,0,0,1-.63-.14,4.127,4.127,0,0,1-2.71-5.17,4.174,4.174,0,0,1,4.66-2.8c1.5.17,2.49.32,3.57.48a1.1,1.1,0,0,0,1.04-1.76c-.26-.35-.56-.71-.94-1.18a8.526,8.526,0,0,1-2.23-4.03,4.189,4.189,0,0,1,1.18-3.46,4.134,4.134,0,0,1,5.84,0,4.839,4.839,0,0,1,.42.5A1.059,1.059,0,0,1,32,16.24Z" style="fill:#37722b"/><path d="M61,1a3,3,0,0,0-2.816,2H56V1a1,1,0,0,0-1-1H9A1,1,0,0,0,8,1V3H5.816A2.993,2.993,0,0,0,0,4v6a2.993,2.993,0,0,0,5.816,1H8V43a1,1,0,0,0,.344.755l23,20a1,1,0,0,0,1.293.016l23-19A1,1,0,0,0,56,44V11h2.184A2.993,2.993,0,0,0,64,10V4A3,3,0,0,0,61,1ZM3,11a1,1,0,0,1-1-1V4A1,1,0,0,1,4,4v6A1,1,0,0,1,3,11ZM6,9V5H8V9ZM54,43.529l-9.974,8.24L44,42a1,1,0,0,0-1-1h0a1,1,0,0,0-1,1l.03,11.415L32.017,61.689,22,52.979V42a1,1,0,0,0-2,0v9.24l-10-8.7V2H20V22a1,1,0,0,0,2,0V2H42V22a1,1,0,0,0,2,0V2H54V43.529ZM56,5h2V9H56Zm6,5a1,1,0,0,1-2,0V4a1,1,0,0,1,2,0Z"/><path d="M40.869,24.818c-1.506.169-2.58.328-3.826.519a.1.1,0,0,1-.1-.166c.714-.974,1.453-1.981,2.36-3.323a5.109,5.109,0,0,0-7.4-6.96,5.13,5.13,0,0,0-8.424,4.563,9.253,9.253,0,0,0,2.444,4.536c.372.453.66.814.917,1.149a.091.091,0,0,1,.008.118.092.092,0,0,1-.106.05c-1.072-.164-2.084-.315-3.6-.486a5.157,5.157,0,0,0-5.727,3.49A5.131,5.131,0,0,0,20.4,34.6a5.138,5.138,0,0,0,3.467,6.048,5.074,5.074,0,0,0,1.522.232,5.168,5.168,0,0,0,2.961-.93,7.284,7.284,0,0,0,2.281-2.92,4.8,4.8,0,0,1-.863,3.135,2.389,2.389,0,1,0,4.292,1.952l.1-.365a16.283,16.283,0,0,0,.505-2.7,5.679,5.679,0,0,0,.992.9A5.131,5.131,0,0,0,43.6,34.6a5.131,5.131,0,0,0,2.992-6.3A5.163,5.163,0,0,0,40.869,24.818ZM32.227,41.23l-.1.366a.389.389,0,0,1-.375.287.377.377,0,0,1-.343-.205.413.413,0,0,1,.056-.453,6.3,6.3,0,0,0,.345-6.858l.1-.2c.02-.043.17-.042.19,0,.089.191.181.393.281.617A12.43,12.43,0,0,1,32.227,41.23Zm12.246-9.938a3.087,3.087,0,0,1-2.32,1.642,1,1,0,0,0-.75,1.432,3.1,3.1,0,0,1-1.865,4.378,3.156,3.156,0,0,1-2.736-.427A7.653,7.653,0,0,1,34.61,34.9c-.293-.688-.5-1.159-.7-1.592a2.105,2.105,0,0,0-3.81,0h0c-.2.432-.412.9-.7,1.591A7.653,7.653,0,0,1,27.2,38.317a3.131,3.131,0,0,1-4.788-3.5,3.11,3.11,0,0,1,.187-.452,1,1,0,0,0-.75-1.432,3.093,3.093,0,0,1,.6-6.154,3.829,3.829,0,0,1,.46.027c1.486.166,2.476.312,3.528.473a2.1,2.1,0,0,0,1.985-3.363c-.269-.349-.568-.727-.956-1.2a7.667,7.667,0,0,1-2.009-3.528,3.131,3.131,0,0,1,5.318-2.621,3.059,3.059,0,0,1,.314.375,1,1,0,0,0,.808.414h0a1,1,0,0,0,.809-.411,3.015,3.015,0,0,1,.316-.378,3.112,3.112,0,0,1,4.622,4.159c-.885,1.31-1.58,2.257-2.314,3.259a2.1,2.1,0,0,0,2.014,3.325c1.223-.186,2.277-.342,3.748-.506a3.192,3.192,0,0,1,3.594,2.1A3.113,3.113,0,0,1,44.473,31.292Z"/></g></svg>