<svg xmlns="http://www.w3.org/2000/svg" viewBox="0 0 64 64"><g id="_11-pipe" data-name="11-pipe"><rect x="60" y="14" width="3" height="8" rx="1.5" style="fill:#692b1c"/><path d="M60,16v4a5.922,5.922,0,0,0-3.71-.45,8.765,8.765,0,0,0-6.5,5.43L40.72,47.36l-.03.08a18.465,18.465,0,0,1-4.62,6.66,19.322,19.322,0,0,1-2.2,1.74A18.522,18.522,0,0,1,5,40.48V28H26a15.592,15.592,0,0,0,1.08,3,16.977,16.977,0,0,0,1.14,2,12.2,12.2,0,0,0,.73,1c3.68,4.57,9.66,5.69,14.05-6C49,12,60,16,60,16Z" style="fill:#ef8e2e"/><path d="M36.07,54.1a19.322,19.322,0,0,1-2.2,1.74,18.521,18.521,0,0,1-11.958,3.091C12.254,58.1,5,49.693,5,40V31H27.08a16.977,16.977,0,0,0,1.14,2H12.082A4.043,4.043,0,0,0,8,36.959V37c0,10.49,8.76,19,19.58,19A20.042,20.042,0,0,0,36.07,54.1Z" style="fill:#e2791a"/><path d="M27.08,31H5V28H26A15.592,15.592,0,0,0,27.08,31Z" style="fill:#f9f9f2"/><rect x="1" y="24" width="30" height="4" rx="2" style="fill:#b95a3a"/><path d="M11.323,7.936l-1.3,2.589a3.084,3.084,0,0,0,.44,3.4h0a3.084,3.084,0,0,1,.384,3.508h0c-.725,1.286.255,3.088,1.316,2.419l1.022-.644c1.84-1.161,2.288-4.579.864-6.6h0a5.226,5.226,0,0,1-.8-3.548h0C13.429,7.483,11.98,6.632,11.323,7.936Z" style="fill:#a2a2a2"/><path d="M19.323,4.936l-1.3,2.589a3.084,3.084,0,0,0,.44,3.4h0a3.084,3.084,0,0,1,.384,3.508h0c-.725,1.286.255,3.088,1.316,2.419l1.022-.644c1.84-1.161,2.288-4.579.864-6.6h0a5.226,5.226,0,0,1-.8-3.548h0C21.429,4.483,19.98,3.632,19.323,4.936Z" style="fill:#a2a2a2"/><path d="M24,36a2.186,2.186,0,0,1,2,2.333,2.659,2.659,0,0,1-.119.786A2.659,2.659,0,0,1,26.667,39a2.024,2.024,0,1,1,0,4H22V38.333A2.186,2.186,0,0,1,24,36Z" style="fill:#38682f"/><path d="M17,53a2.186,2.186,0,0,1-2-2.333,2.659,2.659,0,0,1,.119-.786,2.659,2.659,0,0,1-.786.119,2.024,2.024,0,1,1,0-4H19v4.667A2.186,2.186,0,0,1,17,53Z" style="fill:#38682f"/><path d="M17,36a2.186,2.186,0,0,0-2,2.333,2.659,2.659,0,0,0,.119.786A2.659,2.659,0,0,0,14.333,39a2.024,2.024,0,1,0,0,4H19V38.333A2.186,2.186,0,0,0,17,36Z" style="fill:#4a8a3e"/><path d="M24,53a2.186,2.186,0,0,0,2-2.333,2.659,2.659,0,0,0-.119-.786,2.659,2.659,0,0,0,.786.119,2.024,2.024,0,1,0,0-4H22v4.667A2.186,2.186,0,0,0,24,53Z" style="fill:#4a8a3e"/><path d="M61.5,13a2.5,2.5,0,0,0-2.378,1.768c-3.2-.557-11.973-.682-17.059,12.881-2.136,5.7-4.877,8.751-7.749,8.582-2.976-.17-5.71-3.622-6.967-7.231H29a3,3,0,0,0,0-6H3a3,3,0,0,0,0,6H4V40.478a19.523,19.523,0,0,0,37.615,7.334l7.879-19.437a1,1,0,1,0-1.853-.75l-7.88,19.436A17.522,17.522,0,0,1,6,40.478V32H19a1,1,0,0,0,0-2H6V29H25.243c.1.333.211.667.335,1H23a1,1,0,0,0,0,2h3.48c1.725,3.286,4.51,6.045,7.721,6.228.111.006.225.01.341.01,2.673,0,6.36-1.8,9.395-9.887,4.8-12.8,12.722-12.11,15.063-11.59V18.6a7.476,7.476,0,0,0-2.878-.035,9.8,9.8,0,0,0-7.258,6.044,1,1,0,1,0,1.853.751,7.783,7.783,0,0,1,5.745-4.824,5.222,5.222,0,0,1,2.556.145A2.494,2.494,0,0,0,64,20.5v-5A2.5,2.5,0,0,0,61.5,13ZM2,26a1,1,0,0,1,1-1H29a1,1,0,0,1,0,2H3A1,1,0,0,1,2,26Zm60-5.5a.5.5,0,0,1-1,0v-5a.5.5,0,0,1,1,0Z"/><path d="M9.972,16.945a3,3,0,0,0,.44,3.518,1.818,1.818,0,0,0,2.28.239l1.022-.644A4.866,4.866,0,0,0,15.756,16.8a6.27,6.27,0,0,0-.894-4.766,4.222,4.222,0,0,1-.626-2.855,2.509,2.509,0,0,0-1.547-2.807A1.891,1.891,0,0,0,10.43,7.486l-1.3,2.59a4.063,4.063,0,0,0,.646,4.579A2.127,2.127,0,0,1,9.972,16.945Zm.94-5.97,1.282-2.544a1.03,1.03,0,0,1,.056.516,6.262,6.262,0,0,0,.977,4.241A4.3,4.3,0,0,1,13.8,16.41a2.948,2.948,0,0,1-1.148,1.955l-.916.577a1.073,1.073,0,0,1-.017-1.014,4.071,4.071,0,0,0-.568-4.726A2.1,2.1,0,0,1,10.912,10.975Z"/><path d="M17.972,13.945a3,3,0,0,0,.44,3.518,1.818,1.818,0,0,0,2.28.239l1.022-.644A4.866,4.866,0,0,0,23.756,13.8a6.27,6.27,0,0,0-.894-4.766,4.222,4.222,0,0,1-.626-2.855,2.509,2.509,0,0,0-1.547-2.807A1.892,1.892,0,0,0,18.43,4.486l-1.3,2.59a4.063,4.063,0,0,0,.646,4.579A2.127,2.127,0,0,1,17.972,13.945Zm.94-5.97,1.282-2.544a1.03,1.03,0,0,1,.056.516,6.262,6.262,0,0,0,.977,4.241A4.3,4.3,0,0,1,21.8,13.41a2.948,2.948,0,0,1-1.148,1.955l-.916.577a1.073,1.073,0,0,1-.017-1.014,4.071,4.071,0,0,0-.568-4.726A2.1,2.1,0,0,1,18.912,7.975Z"/><path d="M20,38.333A3.184,3.184,0,0,0,17,35a3.146,3.146,0,0,0-2.986,3.014A3.146,3.146,0,0,0,11,41a3.184,3.184,0,0,0,3.333,3H19a1,1,0,0,0,1-1ZM18,42H14.333C13.611,42,13,41.542,13,41s.611-1,1.333-1a1.671,1.671,0,0,1,.493.075,1,1,0,0,0,1.249-1.249A1.671,1.671,0,0,1,16,38.333c0-.722.458-1.333,1-1.333s1,.611,1,1.333Z"/><path d="M26.986,38.014A3.146,3.146,0,0,0,24,35a3.184,3.184,0,0,0-3,3.333V43a1,1,0,0,0,1,1h4.667A3.184,3.184,0,0,0,30,41,3.146,3.146,0,0,0,26.986,38.014ZM26.667,42H23V38.333c0-.722.458-1.333,1-1.333s1,.611,1,1.333a1.675,1.675,0,0,1-.074.491,1,1,0,0,0,1.248,1.251C27.048,39.808,28,40.334,28,41,28,41.542,27.389,42,26.667,42Z"/><path d="M26.667,45H22a1,1,0,0,0-1,1v4.667A3.184,3.184,0,0,0,24,54a3.146,3.146,0,0,0,2.986-3.014A3.146,3.146,0,0,0,30,48,3.184,3.184,0,0,0,26.667,45Zm-.491,3.926a1,1,0,0,0-1.251,1.248,1.671,1.671,0,0,1,.075.493C25,51.389,24.542,52,24,52s-1-.611-1-1.333V47h3.667c.722,0,1.333.458,1.333,1C28,48.666,27.034,49.19,26.176,48.926Z"/><path d="M19,45H14.333A3.184,3.184,0,0,0,11,48a3.146,3.146,0,0,0,3.014,2.986A3.146,3.146,0,0,0,17,54a3.184,3.184,0,0,0,3-3.333V46A1,1,0,0,0,19,45Zm-1,5.667C18,51.389,17.542,52,17,52s-1-.611-1-1.333a1.675,1.675,0,0,1,.074-.491,1,1,0,0,0-1.25-1.25C13.965,49.19,13,48.666,13,48c0-.542.611-1,1.333-1H18Z"/></g></svg>