<svg xmlns="http://www.w3.org/2000/svg" viewBox="0 0 64 64"><g id="_20-pope" data-name="20-pope"><path d="M63,63H11l2.1-11.77.29-1.64A16.8,16.8,0,0,1,18.91,40H55.09a17.808,17.808,0,0,1,2.71,3,16.127,16.127,0,0,1,2.81,6.59Z" style="fill:#7ac147"/><path d="M63,63H11l2.1-11.77A12.3,12.3,0,0,0,24.54,59,32.722,32.722,0,0,0,54.25,40h.84a17.808,17.808,0,0,1,2.71,3,16.127,16.127,0,0,1,2.81,6.59Z" style="fill:#68a03c"/><path d="M42.905,34.125,55.087,40h0a37.942,37.942,0,0,1-36.174,0h0L31.08,34.1" style="fill:#b85c38"/><path d="M51.7,48H63a0,0,0,0,1,0,0v9.348A5.652,5.652,0,0,1,57.348,63h0A5.652,5.652,0,0,1,51.7,57.348V48a0,0,0,0,1,0,0Z" style="fill:#7ac147"/><polygon points="53.957 48 51.696 43 52.826 38 61.87 38 63 43 60.739 48 53.957 48" style="fill:#fcecd6"/><path d="M58.356,29.186a.35.35,0,0,1,.633,0c.063.134.128.28.219.493a2.674,2.674,0,0,0,.8,1.217,1.308,1.308,0,0,0,2-1.461,1.282,1.282,0,0,0-.078-.19,1.3,1.3,0,1,0-.417-2.569c-.487.055-.829.106-1.2.163a.35.35,0,0,1-.334-.553c.239-.326.46-.629.74-1.043a1.325,1.325,0,0,0-.1-1.718,1.31,1.31,0,0,0-1.85,0,1.277,1.277,0,0,0-.132.157,1.383,1.383,0,0,0-.133-.157,1.308,1.308,0,0,0-2.222,1.1,2.677,2.677,0,0,0,.706,1.276c.12.147.213.264.3.372a.35.35,0,0,1-.33.559c-.341-.052-.655-.1-1.129-.152a1.324,1.324,0,0,0-1.476.885,1.307,1.307,0,0,0,.858,1.639,1.281,1.281,0,0,0,.2.045,1.282,1.282,0,0,0-.078.19,1.308,1.308,0,0,0,2,1.461,2.684,2.684,0,0,0,.8-1.217C58.228,29.466,58.293,29.32,58.356,29.186Z" style="fill:#7ac147"/><path d="M51.08,28.97,49.435,28l1.718-1.52a3.417,3.417,0,0,0,1.1-3.511,3.917,3.917,0,0,0-2.733-2.611L48.3,20H46.046l0,.036v8.256a6.545,6.545,0,0,1-.791,3.088L45,34.988l2.5,1.353,3.159-1.382a3.453,3.453,0,0,0,2.167-3.1A3.383,3.383,0,0,0,51.08,28.97Z" style="fill:#d1d1cf"/><path d="M27.957,28.292V20H25.7l-1.215.358a3.917,3.917,0,0,0-2.733,2.611,3.417,3.417,0,0,0,1.1,3.511L24.565,28l-1.645.97a3.383,3.383,0,0,0-1.746,2.886,3.453,3.453,0,0,0,2.167,3.1l3.12,1.382L29,35.11l-.246-3.718A6.545,6.545,0,0,1,27.957,28.292Z" style="fill:#d1d1cf"/><path d="M37,36h0a9.333,9.333,0,0,1-8.18-4.472h0a6.563,6.563,0,0,1-.863-3.236V20H46.043v8.292a6.563,6.563,0,0,1-.863,3.236h0A9.333,9.333,0,0,1,37,36Z" style="fill:#fff4e3"/><path d="M37.023,32l2.256-1,2.256,1,2.255-4h2.256v1.969A13.6,13.6,0,0,1,39.7,41.219h0a4.931,4.931,0,0,1-5.358,0h0A13.6,13.6,0,0,1,28,29.969V29l2.256-1,2.256,4,2.255-1Z" style="fill:#ee9d22"/><path d="M35,47a2.186,2.186,0,0,0-2,2.333,2.659,2.659,0,0,0,.119.786A2.659,2.659,0,0,0,32.333,50a2.024,2.024,0,1,0,0,4H37V49.333A2.186,2.186,0,0,0,35,47Z" style="fill:#fad550"/><path d="M39,61a2.186,2.186,0,0,0,2-2.333,2.659,2.659,0,0,0-.119-.786,2.659,2.659,0,0,0,.786.119,2.024,2.024,0,1,0,0-4H37v4.667A2.186,2.186,0,0,0,39,61Z" style="fill:#fad550"/><path d="M39,47a2.186,2.186,0,0,1,2,2.333,2.659,2.659,0,0,1-.119.786A2.659,2.659,0,0,1,41.667,50a2.024,2.024,0,1,1,0,4H37V49.333A2.186,2.186,0,0,1,39,47Z" style="fill:#f88522"/><path d="M35,61a2.186,2.186,0,0,1-2-2.333,2.659,2.659,0,0,1,.119-.786,2.659,2.659,0,0,1-.786.119,2.024,2.024,0,1,1,0-4H37v4.667A2.186,2.186,0,0,1,35,61Z" style="fill:#f88522"/><path d="M34,34h6a0,0,0,0,1,0,0v0a3,3,0,0,1-3,3h0a3,3,0,0,1-3-3v0a0,0,0,0,1,0,0Z" transform="translate(74 71) rotate(180)" style="fill:#a02d24"/><polygon points="48.304 20 25.696 20 24.565 16 49.435 16 48.304 20" style="fill:#692b1c"/><path d="M49.43,16H24.57A14.283,14.283,0,0,1,26.5,8.87a16.353,16.353,0,0,1,5.38-5.58A9.111,9.111,0,0,1,35,2.03a9.629,9.629,0,0,1,4,0,9.111,9.111,0,0,1,3.12,1.26A16.353,16.353,0,0,1,47.5,8.87,14.283,14.283,0,0,1,49.43,16Z" style="fill:#7ac147"/><path d="M39,2.03V16H35V2.03a9.629,9.629,0,0,1,4,0Z" style="fill:#692b1c"/><rect x="7" y="26" width="4" height="37" style="fill:#f88522"/><polygon points="17 8 12.31 8.586 13 1 5 1 5.69 8.586 1 8 1 16 5.757 15.405 5 26 13 26 12.243 15.405 17 16 17 8" style="fill:#418636"/><path d="M50,62H15a1,1,0,0,0,0,2H50a1,1,0,0,0,0-2Z"/><path d="M14.725,48.277a15.906,15.906,0,0,1,4.362-7.066A38.43,38.43,0,0,0,36.974,45.6a39.251,39.251,0,0,0,11.314-1.665,1,1,0,0,0-.576-1.915,36.964,36.964,0,0,1-26.566-1.993L28.63,36.4a15.548,15.548,0,0,0,5.16,5.652,5.9,5.9,0,0,0,6.466,0A15.564,15.564,0,0,0,45.4,36.436l4.168,2.011a1,1,0,0,0,.87-1.8l-.542-.261,1.169-.512a4.476,4.476,0,0,0,2.764-4.017,4.364,4.364,0,0,0-2.238-3.747l-.461-.271.688-.609a4.425,4.425,0,0,0,1.4-4.533A4.891,4.891,0,0,0,49.8,19.4l-.267-.078.861-3.05a.753.753,0,0,0,.005-.106A.93.93,0,0,0,50.435,16,16.256,16.256,0,0,0,42.662,2.454a10.621,10.621,0,0,0-11.324,0A16.256,16.256,0,0,0,23.565,16a.93.93,0,0,0,.034.165.753.753,0,0,0,0,.106l.861,3.05L24.2,19.4a4.891,4.891,0,0,0-3.413,3.3,4.424,4.424,0,0,0,1.4,4.533l.687.609-.461.271a4.364,4.364,0,0,0-2.238,3.747,4.476,4.476,0,0,0,2.763,4.017l1.147.509L18.477,39.1a1,1,0,0,0-.226.15h0l-.006.006A18.012,18.012,0,0,0,12.8,47.723a1,1,0,0,0,.683,1.238,1.036,1.036,0,0,0,.278.039A1,1,0,0,0,14.725,48.277ZM25.887,17H48.113l-.565,2h-21.1Zm19.157,4v6H43.79a1,1,0,0,0-.871.509l-1.81,3.209-1.425-.632a1,1,0,0,0-.811,0l-1.85.82-1.85-.82a1,1,0,0,0-.811,0l-1.425.632-1.81-3.209a1,1,0,0,0-1.276-.423l-.858.38L28.961,21Zm-5.9,19.386a3.932,3.932,0,0,1-4.251,0A12.667,12.667,0,0,1,29,29.969V29.65l.831-.368,1.81,3.209a1,1,0,0,0,1.276.423l1.851-.82,1.85.82a1,1,0,0,0,.811,0l1.849-.82,1.851.82a1,1,0,0,0,1.276-.423L44.374,29h.672v.969A12.665,12.665,0,0,1,39.148,40.386ZM51.29,23.241a2.413,2.413,0,0,1-.8,2.49l-1.718,1.52a1,1,0,0,0,.155,1.61l1.645.971a2.387,2.387,0,0,1,1.254,2.024,2.448,2.448,0,0,1-1.568,2.187l-2.738,1.2-1.308-.632a13.543,13.543,0,0,0,.834-4.64V28l0-.01V21h1.117l1.075.317A2.908,2.908,0,0,1,51.29,23.241ZM48.4,15H40V3.37a8.14,8.14,0,0,1,1.58.766A14.416,14.416,0,0,1,48.4,15ZM38,2.882V15H36V2.882A8.687,8.687,0,0,1,38,2.882ZM32.42,4.136A8.14,8.14,0,0,1,34,3.37V15H25.6A14.416,14.416,0,0,1,32.42,4.136ZM23.746,34.045a2.451,2.451,0,0,1-1.572-2.189,2.387,2.387,0,0,1,1.254-2.024l1.645-.971a1,1,0,0,0,.155-1.61l-1.717-1.52a2.412,2.412,0,0,1-.8-2.49,2.907,2.907,0,0,1,2.055-1.924L25.84,21h1.121l.039,8v.964a13.543,13.543,0,0,0,.819,4.6l-1.377.668Z"/><path d="M39,62a3.145,3.145,0,0,0,2.986-3.014A3.145,3.145,0,0,0,45,56a2.821,2.821,0,0,0-.867-2A2.821,2.821,0,0,0,45,52a3.145,3.145,0,0,0-3.014-2.986A3.145,3.145,0,0,0,39,46a2.821,2.821,0,0,0-2,.867A2.821,2.821,0,0,0,35,46a3.145,3.145,0,0,0-2.986,3.014A3.145,3.145,0,0,0,29,52a2.821,2.821,0,0,0,.867,2A2.821,2.821,0,0,0,29,56a3.145,3.145,0,0,0,3.014,2.986A3.145,3.145,0,0,0,35,62a2.821,2.821,0,0,0,2-.867A2.821,2.821,0,0,0,39,62Zm2.175-5.074a1,1,0,0,0-1.249,1.249,1.686,1.686,0,0,1,.074.492C40,59.39,39.542,60,39,60s-1-.61-1-1.333V55h3.667C42.39,55,43,55.458,43,56,43,56.666,42.036,57.188,41.175,56.926ZM39,48c.542,0,1,.61,1,1.333a1.686,1.686,0,0,1-.074.492,1,1,0,0,0,1.249,1.249c.86-.262,1.825.259,1.825.926,0,.542-.61,1-1.333,1H38V49.333C38,48.61,38.458,48,39,48Zm-6.667,3a1.686,1.686,0,0,1,.492.074,1,1,0,0,0,1.249-1.249A1.686,1.686,0,0,1,34,49.333C34,48.61,34.458,48,35,48s1,.61,1,1.333V53H32.333C31.61,53,31,52.542,31,52S31.61,51,32.333,51ZM35,60c-.542,0-1-.61-1-1.333a1.686,1.686,0,0,1,.074-.492,1,1,0,0,0-1.249-1.249C31.962,57.187,31,56.666,31,56c0-.542.61-1,1.333-1H36v3.667C36,59.39,35.542,60,35,60Z"/><path d="M11,30a1,1,0,0,0,1-1V27h1a1,1,0,0,0,1-1.071l-.67-9.38,3.549.443a1.015,1.015,0,0,0,.786-.242A1,1,0,0,0,18,16V8a1,1,0,0,0-.338-.75,1.015,1.015,0,0,0-.786-.242l-3.457.431L14,1.091A1,1,0,0,0,13,0H5A1,1,0,0,0,4,1.091l.577,6.348L1.124,7.008a1.015,1.015,0,0,0-.786.242A1,1,0,0,0,0,8v8a1,1,0,0,0,.338.75,1.015,1.015,0,0,0,.786.242l3.549-.443L4,25.929A1,1,0,0,0,5,27H6V63a1,1,0,0,0,1,1h4a1,1,0,0,0,1-1V32a1,1,0,0,0-2,0V62H8V27h2v2A1,1,0,0,0,11,30ZM7,25H6.074l.68-9.523a1,1,0,0,0-.309-.8,1.017,1.017,0,0,0-.812-.267L2,14.867V9.133l3.565.445a1.017,1.017,0,0,0,.82-.273,1,1,0,0,0,.3-.81L6.1,2h5.81l-.591,6.495a1,1,0,0,0,.3.81,1.018,1.018,0,0,0,.82.273L16,9.133v5.734l-3.633-.454a1.026,1.026,0,0,0-.812.267,1,1,0,0,0-.309.8L11.926,25H7Z"/><path d="M13,13a1,1,0,0,0,0-2H10V4A1,1,0,0,0,8,4v7H5a1,1,0,0,0,0,2H8V23a1,1,0,0,0,2,0V13Z"/><path d="M63,47h-.711l1.622-3.588a1.006,1.006,0,0,0,.065-.633l-1.131-5A1,1,0,0,0,61.869,37H58.84a22.966,22.966,0,0,0,.93-5.122,2.319,2.319,0,0,0,1,.255,2.259,2.259,0,0,0,.684-.105A2.294,2.294,0,0,0,62.809,30.9a2.325,2.325,0,0,0,.264-1.055,2.313,2.313,0,0,0,.874-2.577,2.347,2.347,0,0,0-2.309-1.6,2.295,2.295,0,0,0-3-3.267A2.308,2.308,0,0,0,55.3,24.75a2.6,2.6,0,0,0,.308.916,2.3,2.3,0,0,0-1.331,4.174,2.3,2.3,0,0,0,3.5,1.95A21.482,21.482,0,0,1,56.753,37H52.826a1,1,0,0,0-.975.779l-1.131,5a1,1,0,0,0,.064.633L52.406,47H51.7a1,1,0,0,0-1,1v9.348a6.653,6.653,0,0,0,13.305,0V48A1,1,0,0,0,63,47ZM57.453,28.757c-.068.143-.138.3-.236.531a2.107,2.107,0,0,1-.457.789.314.314,0,0,1-.271.043.3.3,0,0,1-.18-.151.325.325,0,0,1,0-.277,1.014,1.014,0,0,0-.035-.91,1.059,1.059,0,0,0-.761-.536.307.307,0,0,1-.2-.386.322.322,0,0,1,.338-.194.622.622,0,0,1,.071,0c.46.052.763.1,1.091.146a1.349,1.349,0,0,0,1.278-2.151c-.09-.118-.19-.243-.32-.4a2.13,2.13,0,0,1-.487-.771.323.323,0,0,1,.087-.261.317.317,0,0,1,.469.041,1.071,1.071,0,0,0,1.645-.041.308.308,0,0,1,.437,0c.156.157.022.385-.022.452-.271.4-.486.7-.718,1.011a1.349,1.349,0,0,0,1.293,2.132c.358-.055.689-.1,1.159-.157.076-.01.344-.022.41.19a.3.3,0,0,1-.021.235.34.34,0,0,1-.243.163,1.014,1.014,0,0,0-.715.552,1.053,1.053,0,0,0,0,.923.31.31,0,0,1-.2.387.313.313,0,0,1-.27-.044,2.077,2.077,0,0,1-.458-.786c-.1-.228-.166-.385-.234-.53a1.349,1.349,0,0,0-2.441,0ZM53.625,39H61.07l.88,3.894L60.094,47H54.6l-1.856-4.106ZM62,57.348a4.653,4.653,0,0,1-9.3,0V49H62Z"/><path d="M37,33a4,4,0,0,0-4,4,1,1,0,0,0,1,1h6a1,1,0,0,0,1-1A4,4,0,0,0,37,33Zm-1.731,3a2,2,0,0,1,3.462,0Z"/><path d="M34,28a1,1,0,0,0,1-1V26a1,1,0,0,0-2,0v1A1,1,0,0,0,34,28Z"/><path d="M40,28a1,1,0,0,0,1-1V26a1,1,0,0,0-2,0v1A1,1,0,0,0,40,28Z"/></g></svg>