<svg xmlns="http://www.w3.org/2000/svg" viewBox="0 0 64 64"><g id="_24-rainbow" data-name="24-rainbow"><path d="M29.887,9.94a15.9,15.9,0,0,1,11.35,5.612h0A15.437,15.437,0,0,1,45,24.826V45h4V25.454A19.838,19.838,0,0,0,44.091,12.39h0A19.839,19.839,0,0,0,25.239,6.006Z" style="fill:#06a8f0"/><path d="M29.887,9.94a15.9,15.9,0,0,1,11.35,5.612h0A15.437,15.437,0,0,1,45,24.826V45H41V26.15a11.829,11.829,0,0,0-2.593-7.391h0a11.815,11.815,0,0,0-5.525-3.843Z" style="fill:#f8f301"/><path d="M32.882,14.916a11.815,11.815,0,0,1,5.525,3.843h0A11.829,11.829,0,0,1,41,26.15V45H37V25.494a7.8,7.8,0,0,0-1.449-3.523h0a7.767,7.767,0,0,0-3.689-2.8Z" style="fill:#f04833"/><path d="M31,45V44a3,3,0,0,1,3-3h0a2,2,0,0,1,2-2h1v6Z" style="fill:#ee9d22"/><path d="M61,45V43a2,2,0,0,0-2-2h0v-.017A2.982,2.982,0,0,0,56.017,38H56v-.143A2.857,2.857,0,0,0,53.143,35H53V45Z" style="fill:#ee9d22"/><rect x="3" y="58" width="6" height="3" rx="1.5" transform="translate(43.83 13.185) rotate(45)" style="fill:#fad550"/><rect x="12" y="54" width="6" height="3" rx="1.5" transform="translate(-34.851 26.862) rotate(-45)" style="fill:#fad550"/><rect x="22" y="54" width="6" height="3" rx="1.5" style="fill:#fad550"/><rect x="20" y="57" width="6" height="3" rx="1.5" style="fill:#fad550"/><rect x="22" y="60" width="6" height="3" rx="1.5" style="fill:#fad550"/><rect x="28" y="45" width="34" height="3" rx="1.5" style="fill:#692b1c"/><path d="M60,48a15,15,0,0,1-30,0Z" style="fill:#b85c38"/><path d="M46.988,50H59.851A14.99,14.99,0,0,0,60,48H30A15,15,0,0,0,43.392,62.911l-.132-.079C37.3,59.23,40.024,50,46.988,50Z" style="fill:#aa4d30"/><path d="M46.855,9.132h0a24.12,24.12,0,0,0-26.167-6.6L18.272,3.4l-.012.013A4.954,4.954,0,0,1,19,6c0,.137-.03.266-.04.4a5.013,5.013,0,0,1,1.67,1.173l4.609-1.567A19.84,19.84,0,0,1,49,25.454V45h4V25.215A24.122,24.122,0,0,0,46.855,9.132Z" style="fill:#9f2491"/><path d="M18.96,6.4c.01-.12.03-.23.04-.36V6A4.989,4.989,0,0,0,9.74,3.41,4.049,4.049,0,0,0,8,3,3.993,3.993,0,0,0,4.06,6.39,5,5,0,0,0,6,16H17a5,5,0,0,0,1.96-9.6Z" style="fill:#50a59b"/><path d="M18.96,6.4c.01-.12.03-.23.04-.36a3.087,3.087,0,0,0-.26.37A4.049,4.049,0,0,0,17,6a3.993,3.993,0,0,0-3.94,3.39A5,5,0,0,0,10,14a5.106,5.106,0,0,0,.41,2H17a5,5,0,0,0,1.96-9.6Z" style="fill:#3c8e82"/><path d="M29.96,11.4c.01-.134.04-.263.04-.4a4.988,4.988,0,0,0-9.26-2.586,3.957,3.957,0,0,0-5.679,2.977A5,5,0,0,0,17,21H28a5,5,0,0,0,1.96-9.6Z" style="fill:#6fc3bb"/><path d="M29.96,11.4c.01-.134.04-.263.04-.4a5,5,0,0,0-5-5,4.927,4.927,0,0,0-2.982,1A5,5,0,0,1,27,12c0,.137-.03.266-.04.4A4.983,4.983,0,0,1,27.973,21H28a5,5,0,0,0,1.96-9.6Z" style="fill:#8fc9c0"/><path d="M9,17a1,1,0,0,0,0-2H6A4,4,0,0,1,4.449,7.312a1,1,0,0,0,.6-.769A2.958,2.958,0,0,1,9.3,4.313,1,1,0,0,0,10.6,3.934,3.965,3.965,0,0,1,14,2a4.013,4.013,0,0,1,3.921,3.2,1,1,0,0,0,1.959-.4,5.858,5.858,0,0,0-.246-.828l1.394-.5A23.12,23.12,0,0,1,52,25.215a1,1,0,1,0,2,0A25.119,25.119,0,0,0,20.349,1.589L18.66,2.2c-.01,0-.016.012-.025.016A6.005,6.005,0,0,0,14,0,5.934,5.934,0,0,0,9.375,2.2,4.812,4.812,0,0,0,8,2,4.957,4.957,0,0,0,3.186,5.7,6,6,0,0,0,6,17Z"/><path d="M62,44.512V43a3,3,0,0,0-2.09-2.858,3.994,3.994,0,0,0-2.983-3.035,3.859,3.859,0,0,0-2.762-2.954V29a1,1,0,1,0-2,0V44H50V25.454A20.835,20.835,0,0,0,25.149,5.007C25.1,5.006,25.05,5,25,5a5.934,5.934,0,0,0-4.625,2.2A4.812,4.812,0,0,0,19,7a4.957,4.957,0,0,0-4.814,3.7A6,6,0,0,0,17,22H28a5.973,5.973,0,0,0,4.1-1.627,6.729,6.729,0,0,1,2.641,2.179A7.159,7.159,0,0,1,36,25.494V38a3.006,3.006,0,0,0-2.86,2.093A4.008,4.008,0,0,0,30,44h-.5a2.5,2.5,0,0,0-.452,4.954,15.979,15.979,0,0,0,31.9,0A2.487,2.487,0,0,0,62,44.512Zm-7.835-8.2A1.857,1.857,0,0,1,55,37.857V38a1.015,1.015,0,0,0,1.018,1A1.989,1.989,0,0,1,58,41a1,1,0,0,0,1,1,1,1,0,0,1,1,1v1H54.165ZM43.339,13.049A18.832,18.832,0,0,1,48,25.454V44H46V24.826a16.328,16.328,0,0,0-4-9.919A16.953,16.953,0,0,0,30.66,9.016a6.014,6.014,0,0,0-1.571-2.4A18.884,18.884,0,0,1,43.339,13.049Zm-9.642,1.1a5.972,5.972,0,0,0-2.226-3.035,14.955,14.955,0,0,1,9,5.081A14.467,14.467,0,0,1,44,24.826V44H42V26.15a12.806,12.806,0,0,0-8.3-12ZM28,20H17a4,4,0,0,1-1.551-7.688,1,1,0,0,0,.6-.769A2.958,2.958,0,0,1,20.3,9.313,1,1,0,0,0,21.6,8.934,3.987,3.987,0,0,1,29,11a1,1,0,0,1-.013.11c-.009.07-.018.14-.024.211a1,1,0,0,0,.6,1A4,4,0,0,1,28,20Zm5.331-1.259a5.932,5.932,0,0,0,.646-2.294A10.825,10.825,0,0,1,40,26.15V44H38V25.494a8.615,8.615,0,0,0-1.636-4.1A8.738,8.738,0,0,0,33.331,18.741ZM34,42a1,1,0,0,0,1-1,1,1,0,0,1,1-1v4H32A2,2,0,0,1,34,42ZM45,62A14.007,14.007,0,0,1,31.051,49h27.9A14.007,14.007,0,0,1,45,62ZM60.5,47h-31a.5.5,0,0,1,0-1h31a.5.5,0,0,1,0,1Z"/><path d="M29,55.5A2.5,2.5,0,0,0,26.5,53h-3A2.5,2.5,0,0,0,21,55.5a2.446,2.446,0,0,0,.064.544,2.493,2.493,0,0,0,0,4.912A2.446,2.446,0,0,0,21,61.5,2.5,2.5,0,0,0,23.5,64h3a2.5,2.5,0,0,0,.436-4.956,2.344,2.344,0,0,0,0-1.088A2.5,2.5,0,0,0,29,55.5ZM21.5,58h3a.5.5,0,0,1,0,1h-3a.5.5,0,0,1,0-1Zm5,4h-3a.5.5,0,0,1,0-1h3a.5.5,0,0,1,0,1Zm0-6h-3a.5.5,0,0,1,0-1h3a.5.5,0,0,1,0,1Z"/><path d="M6.707,56.672a2.5,2.5,0,1,0-3.535,3.535l2.121,2.121a2.5,2.5,0,1,0,3.535-3.535Zm.707,4.242a.5.5,0,0,1-.707,0L4.586,58.793a.5.5,0,1,1,.707-.707l2.121,2.121A.5.5,0,0,1,7.414,60.914Z"/><path d="M14.293,52.672l-2.121,2.121a2.5,2.5,0,0,0,3.535,3.535l2.121-2.121a2.5,2.5,0,1,0-3.535-3.535Zm2.121,2.121-2.121,2.121a.5.5,0,1,1-.707-.707l2.121-2.121a.5.5,0,1,1,.707.707Z"/><path d="M24.879,34.293a1,1,0,0,0,1.414-1.414l-.707-.707a1,1,0,1,0-1.414,1.414Z"/><path d="M27.707,37.121l.707.707a1,1,0,1,0,1.414-1.414l-.707-.707a1,1,0,0,0-1.414,1.414Z"/><path d="M24.172,37.828a1,1,0,0,0,1.414,0l.707-.707a1,1,0,0,0-1.414-1.414l-.707.707A1,1,0,0,0,24.172,37.828Z"/><path d="M29.121,34.293l.707-.707a1,1,0,1,0-1.414-1.414l-.707.707a1,1,0,0,0,1.414,1.414Z"/><path d="M9.172,45.172a1,1,0,0,0,0,1.414l.707.707a1,1,0,0,0,1.414-1.414l-.707-.707A1,1,0,0,0,9.172,45.172Z"/><path d="M12.707,50.121l.707.707a1,1,0,0,0,1.414-1.414l-.707-.707a1,1,0,0,0-1.414,1.414Z"/><path d="M11.293,48.707a1,1,0,0,0-1.414,0l-.707.707a1,1,0,0,0,1.414,1.414l.707-.707A1,1,0,0,0,11.293,48.707Z"/><path d="M14.121,47.293l.707-.707a1,1,0,0,0-1.414-1.414l-.707.707a1,1,0,0,0,1.414,1.414Z"/><path d="M57.879,27.293a1,1,0,0,0,1.414-1.414l-.707-.707a1,1,0,1,0-1.414,1.414Z"/><path d="M62.121,28.707a1,1,0,0,0-1.414,1.414l.707.707a1,1,0,1,0,1.414-1.414Z"/><path d="M58.586,30.828l.707-.707a1,1,0,0,0-1.414-1.414l-.707.707a1,1,0,1,0,1.414,1.414Z"/><path d="M62.121,27.293l.707-.707a1,1,0,1,0-1.414-1.414l-.707.707a1,1,0,0,0,1.414,1.414Z"/></g></svg>