<svg xmlns="http://www.w3.org/2000/svg" viewBox="0 0 64 64"><g id="_07-legs" data-name="07-legs"><rect x="18" y="1" width="8" height="38" style="fill:#4a8a3e"/><rect x="38" y="1" width="8" height="38" style="fill:#4a8a3e"/><rect x="18" y="32" width="8" height="3" style="fill:#e47d00"/><rect x="18" y="25" width="8" height="3" style="fill:#e47d00"/><rect x="18" y="18" width="8" height="3" style="fill:#e47d00"/><rect x="18" y="11" width="8" height="3" style="fill:#e47d00"/><rect x="18" y="4" width="8" height="3" style="fill:#e47d00"/><rect x="38" y="32" width="8" height="3" style="fill:#e47d00"/><path d="M20,31V1H18V39h8V37h0A6,6,0,0,1,20,31Z" style="opacity:0.2"/><rect x="38" y="25" width="8" height="3" style="fill:#e47d00"/><rect x="38" y="18" width="8" height="3" style="fill:#e47d00"/><rect x="38" y="11" width="8" height="3" style="fill:#e47d00"/><rect x="38" y="4" width="8" height="3" style="fill:#e47d00"/><path d="M29,63H22V56l-5.37,4.7A9.282,9.282,0,0,1,2.36,58.16a10.921,10.921,0,0,1,.85-11.77L8,40l-.72,5.78a4.549,4.549,0,0,0,1.3,3.8l.19.19a4.56,4.56,0,0,0,7.79-3.24,4.726,4.726,0,0,0-.1-.98L15.67,42,15,39H29l-.56,1.81c-.12.4-.24.79-.34,1.19A34.875,34.875,0,0,0,29,63Z" style="fill:#b95a3a"/><path d="M27.43,57.14A34.261,34.261,0,0,0,29,63H22V56l-5.37,4.7A9.282,9.282,0,0,1,2.36,58.16a10.921,10.921,0,0,1,.85-11.77L8,40l-.72,5.78a4.222,4.222,0,0,0,.02,1.28,4.525,4.525,0,0,0,1.28,2.52l.19.19a4.56,4.56,0,0,0,7.79-3.24,4.726,4.726,0,0,0-.1-.98L16.34,45l-.06-.27L15.67,42,15,39H29l-.56,1.81c-.12.4-.24.79-.34,1.19a34.041,34.041,0,0,0-1.06,6.06c-.05.51-.09,1.03-.1,1.54q-.075,1.515,0,3.03c.02.5.06,1.01.1,1.52.06.69.14,1.38.25,2.07C27.32,56.52,27.37,56.83,27.43,57.14Z" style="fill:#b95a3a"/><g style="opacity:0.2"><path d="M14.51,61a9.246,9.246,0,0,1-4.74-1.3,9.358,9.358,0,0,1-3.41-3.54,10.921,10.921,0,0,1,.85-11.77L7.5,44,8,40,3.21,46.39a10.921,10.921,0,0,0-.85,11.77A9.358,9.358,0,0,0,5.77,61.7a9.282,9.282,0,0,0,10.781-.937A9.28,9.28,0,0,1,14.51,61Z"/></g><path d="M63,52.94a10.892,10.892,0,0,1-1.33,5.22,9.358,9.358,0,0,1-3.41,3.54,9.292,9.292,0,0,1-10.86-1L42.03,56v7h-7a34.875,34.875,0,0,0,.9-21c-.1-.4-.22-.79-.34-1.19L35.03,39h14l-.67,3-.79,3.55a4.726,4.726,0,0,0-.1.98,4.56,4.56,0,0,0,7.79,3.24l.19-.19a4.549,4.549,0,0,0,1.3-3.8L56.03,40l4.79,6.39A10.965,10.965,0,0,1,63,52.94Z" style="fill:#b95a3a"/><g style="opacity:0.2"><path d="M60.82,46.39,56.03,40l.5,4,.292.389a10.921,10.921,0,0,1,.85,11.77,9.358,9.358,0,0,1-3.41,3.54,9.177,9.177,0,0,1-6.781,1.063,9.277,9.277,0,0,0,14.191-2.6,10.921,10.921,0,0,0-.85-11.77Z"/></g><g style="opacity:0.2"><path d="M37.93,42c-.1-.4-.22-.79-.34-1.19L37.03,39h-2l.56,1.81c.12.4.24.79.34,1.19a34.875,34.875,0,0,1-.9,21h2A34.875,34.875,0,0,0,37.93,42Z"/></g><path d="M44,31V1h2V39H38V37h0A6,6,0,0,0,44,31Z" style="opacity:0.2"/><path d="M29,39l-.56,1.81c-.12.4-.24.79-.34,1.19H15.67L15,39Z" style="fill:#692b1c"/><path d="M49.03,39l-.67,3H35.93c-.1-.4-.22-.79-.34-1.19L35.03,39Z" style="fill:#692b1c"/><path d="M14.171,47.4a2,2,0,0,0-.685,2.744,2,2,0,1,0-.686,2.743,2,2,0,0,0,3.429-2.057,2,2,0,1,0-2.058-3.43Z" style="fill:#4a8a3e"/><path d="M49.856,47.4a2,2,0,0,1,.686,2.744,2,2,0,1,1,.686,2.743,2,2,0,0,1-3.43-2.057,2,2,0,0,1,2.058-3.43Z" style="fill:#4a8a3e"/><path d="M27.29,56.22c-.11-.69-.19-1.38-.25-2.07-.04-.51-.08-1.02-.1-1.52q-.075-1.515,0-3.03c.01-.51.05-1.03.1-1.54A34.041,34.041,0,0,1,28.1,42h-2a34.041,34.041,0,0,0-1.06,6.06c-.05.51-.09,1.03-.1,1.54q-.075,1.515,0,3.03c.02.5.06,1.01.1,1.52.06.69.14,1.38.25,2.07.03.3.08.61.14.92A34.261,34.261,0,0,0,27,63h2a34.261,34.261,0,0,1-1.57-5.86C27.37,56.83,27.32,56.52,27.29,56.22Z" style="opacity:0.2"/><path d="M61.617,45.785,56.828,39.4a1,1,0,0,0-1.792.724l.723,5.785a3.524,3.524,0,0,1-.974,2.922l-.343.3A2.931,2.931,0,0,0,53.8,48.6a2.987,2.987,0,0,0-2.109-.372A2.972,2.972,0,0,0,48.52,46.14a2.2,2.2,0,0,1,.028-.369L50,39.217A1,1,0,0,0,49.028,38h-2V1a1,1,0,0,0-1-1h-8a1,1,0,0,0-1,1V38h-2a1,1,0,0,0-.956,1.294l.558,1.813a34.092,34.092,0,0,1-.542,21.551A1,1,0,0,0,35.028,64h7a1,1,0,0,0,1-1V58.2l3.716,3.251a10.284,10.284,0,0,0,15.8-2.814A11.947,11.947,0,0,0,61.617,45.785ZM48.829,48.113a1,1,0,0,1,.856,1.515A1,1,0,1,0,51.4,50.657a1,1,0,1,1,.343,1.372,1,1,0,0,0-1.372.343,1,1,0,1,1-1.715-1.029,1,1,0,0,0-.343-1.372,1,1,0,0,1,.272-1.828A1.019,1.019,0,0,1,48.829,48.113ZM45.028,6h-6V5h6Zm0,2v2h-6V8Zm0,4v1h-6V12Zm0,3v2h-6V15Zm0,4v1h-6V19Zm0,3v2h-6V22Zm0,4v1h-6V26Zm0,3v2h-6V29Zm0,4v1h-6V33Zm0-31V3h-6V2Zm-6,34h6v2h-6ZM60.789,57.683A8.284,8.284,0,0,1,48.061,59.95l-5.374-4.7A1,1,0,0,0,41.028,56v6h-4.6A36.163,36.163,0,0,0,37.2,43h.827a1,1,0,0,0,0-2H36.669c-.046-.16-.079-.323-.127-.481L36.382,40h11.4l-.222,1H42.028a1,1,0,1,0,0,2h5.087L46.6,45.337a7.459,7.459,0,0,0-.047,1.838,2.938,2.938,0,0,0,.054,3.951,3,3,0,0,0,2.906,3.73,3.016,3.016,0,0,0,2.018-.774,2.987,2.987,0,0,0,3.722-2.988l.907-.808a5.529,5.529,0,0,0,1.587-4.625l-.256-2.049,2.53,3.373A9.94,9.94,0,0,1,60.789,57.683Z"/><path d="M29.4,41.107l.558-1.813A1,1,0,0,0,29,38H27V1a1,1,0,0,0-1-1H18a1,1,0,0,0-1,1V38H15a1,1,0,0,0-.976,1.217l1.456,6.554a2.2,2.2,0,0,1,.028.37,2.971,2.971,0,0,0-3.172,2.084,2.906,2.906,0,0,0-2.751.912l-.3-.265a3.543,3.543,0,0,1-1.017-2.963l.723-5.785A1,1,0,0,0,7.2,39.4L2.411,45.785a11.945,11.945,0,0,0-.928,12.856,10.284,10.284,0,0,0,15.8,2.814L21,58.2V63a1,1,0,0,0,1,1h7a1,1,0,0,0,.94-1.342A34.093,34.093,0,0,1,29.4,41.107ZM25,6H19V5h6Zm0,2v2H19V8Zm0,4v1H19V12Zm0,3v2H19V15Zm0,4v1H19V19Zm0,3v2H19V22Zm0,4v1H19V26Zm0,3v2H19V29Zm0,4v1H19V33ZM25,2V3H19V2ZM19,36h6v2H19ZM10.8,50.929a1,1,0,0,1,1.828-.272,1,1,0,0,0,1.715-1.029,1,1,0,1,1,1.372.343,1,1,0,0,0-.343,1.372,1,1,0,1,1-1.715,1.029,1,1,0,0,0-1.372-.343,1,1,0,0,1-1.485-1.1ZM23,62V56a1,1,0,0,0-1.659-.752l-5.374,4.7A8.284,8.284,0,0,1,3.239,57.683a9.94,9.94,0,0,1,.772-10.7l2.53-3.373-.256,2.049a5.548,5.548,0,0,0,1.63,4.665l.864.768A2.987,2.987,0,0,0,12.5,54.082a3,3,0,0,0,3.558.348,3,3,0,0,0,1.367-3.3,2.938,2.938,0,0,0,.054-3.951,7.508,7.508,0,0,0-.046-1.838L16.913,43H22a1,1,0,0,0,0-2H16.469l-.222-1h11.4l-.159.519c-.049.159-.081.322-.128.481H26a1,1,0,0,0,0,2h.827A36.163,36.163,0,0,0,27.6,62Z"/></g></svg>