<svg xmlns="http://www.w3.org/2000/svg" viewBox="0 0 64 64"><g id="_17-woman" data-name="17-woman"><path d="M50,41l6,22H49L44,53a8.347,8.347,0,0,1-10.753.891,2.161,2.161,0,0,0-2.494,0A8.347,8.347,0,0,1,20,53L15,63H8l6-22Z" style="fill:#7ac147"/><path d="M50.363,42.331a11.374,11.374,0,0,1-17.1,5.733,2.237,2.237,0,0,0-2.524,0,11.374,11.374,0,0,1-17.1-5.733L8,63h7l5-10a8.347,8.347,0,0,0,10.753.891,2.161,2.161,0,0,1,2.494,0A8.347,8.347,0,0,0,44,53l5,10h7Z" style="fill:#6daa3d"/><path d="M50,41a14.505,14.505,0,0,1-12.17.36L37,41a9.688,9.688,0,0,1-10,0,14.505,14.505,0,0,1-12.17.36L14,41a22.136,22.136,0,0,1,12.66-7.53L29,33V29.54h6V33l2.34.47A22.076,22.076,0,0,1,50,41Z" style="fill:#fce1de"/><polygon points="52.128 13.735 52.128 21 44.254 15.75 52.128 13.735" style="fill:#fad550"/><polygon points="60.043 8.7 62.128 16 53.916 12.92 60.043 8.7" style="fill:#7ac147"/><polygon points="12 13.579 12 21 19 16.333 12 13.579" style="fill:#fad550"/><polygon points="4.06 8.789 2 16 10.339 12.873 4.06 8.789" style="fill:#7ac147"/><path d="M41.168,24h1.367a4.228,4.228,0,0,0,4.145-3.4h0a4.226,4.226,0,0,0-.521-3l-2.3-3.795h-2.7Z" style="fill:#ef8e2e"/><path d="M22.832,24H21.326a4.131,4.131,0,0,1-4.036-3.249h0a4.13,4.13,0,0,1,.481-2.986L20.138,13.8h2.694Z" style="fill:#ef8e2e"/><circle cx="18" cy="25" r="2" style="fill:#56b348"/><circle cx="46" cy="25" r="2" style="fill:#56b348"/><path d="M47.823,25.823,52,30h0a6.737,6.737,0,0,1-5.606,3H46l-1.05-6.3Z" style="fill:#ef8e2e"/><path d="M16.177,25.823,12,30h0a6.737,6.737,0,0,0,5.606,3H18l1.05-6.3Z" style="fill:#ef8e2e"/><path d="M42,14v6A10,10,0,0,1,32,30h0A10,10,0,0,1,22,20V14Z" style="fill:#fce0db"/><path d="M24,19.952V14.009h.013V14L22,14.009v5.943a9.992,9.992,0,0,0,11,10A10.03,10.03,0,0,1,24,19.952Z" style="fill:#f9d5d2"/><path d="M35,29.54v2a10.013,10.013,0,0,1-6,0v-2Z" style="fill:#eac5c3"/><rect x="19" y="10" width="26" height="4" rx="2" style="fill:#4a8a3e"/><path d="M21,12H43a1.994,1.994,0,0,1,1.723,1A1.988,1.988,0,0,0,43,10H21a1.988,1.988,0,0,0-1.723,3A1.994,1.994,0,0,1,21,12Z" style="fill:#376d2c"/><path d="M45,63a15.934,15.934,0,0,1-1.327-8.365L44,53a8.347,8.347,0,0,1-10.753.891,2.161,2.161,0,0,0-2.494,0A8.347,8.347,0,0,1,20,53l.327,1.635A15.934,15.934,0,0,1,19,63Z" style="fill:#fce1de"/><path d="M20.42,55.383a8.341,8.341,0,0,0,10.333.508,2.161,2.161,0,0,1,2.494,0,8.341,8.341,0,0,0,10.333-.508,6.849,6.849,0,0,1,.093-.748L44,53a8.347,8.347,0,0,1-10.753.891,2.161,2.161,0,0,0-2.494,0A8.347,8.347,0,0,1,20,53l.327,1.635A6.849,6.849,0,0,1,20.42,55.383Z" style="fill:#eac5c3"/><path d="M22,14v.5c0,1.933,2.686,3.5,6,3.5h0c3.314,0,6-1.567,6-3.5V14Z" style="fill:#ef8e2e"/><path d="M30,1h4a9,9,0,0,1,9,9v0a0,0,0,0,1,0,0H21a0,0,0,0,1,0,0v0A9,9,0,0,1,30,1Z" style="fill:#56b348"/><path d="M32.889,8a3.955,3.955,0,0,1-2.6-6.95L30.349,1H30a9,9,0,0,0-9,9H43a8.971,8.971,0,0,0-.231-2Z" style="fill:#4aa33b"/><path d="M50.965,40.737l-.005,0a1,1,0,0,0-.192-.38,23.2,23.2,0,0,0-13.23-7.871L36,32.181V30.236A11.054,11.054,0,0,0,41.786,25h.749c.16,0,.313-.027.469-.041,0,.014,0,.027,0,.041a2.979,2.979,0,0,0,1.027,2.242l.987,5.922A1,1,0,0,0,46,34h.4a7.722,7.722,0,0,0,6.437-3.445,1,1,0,0,0-.125-1.262l-3.761-3.761a2.949,2.949,0,0,0-1.815-3.307A5.149,5.149,0,0,0,47.66,20.8a5.219,5.219,0,0,0-.645-3.718L45.18,14.048a2.976,2.976,0,0,0-1.222-4.877A10.009,10.009,0,0,0,34,0H30a10.009,10.009,0,0,0-9.958,9.171,2.977,2.977,0,0,0-1.218,4.882l-1.913,3.2a5.111,5.111,0,0,0-.6,3.71,5.027,5.027,0,0,0,.492,1.287,2.949,2.949,0,0,0-1.751,3.281l-3.761,3.76a1,1,0,0,0-.125,1.262A7.722,7.722,0,0,0,17.605,34H18a1,1,0,0,0,.986-.836l.987-5.922A2.979,2.979,0,0,0,21,25c0-.01,0-.019,0-.029.11.007.217.029.329.029h.888A11.054,11.054,0,0,0,28,30.236v1.945l-1.537.307a23.2,23.2,0,0,0-13.231,7.871,1,1,0,0,0-.189.38l-.008,0-6,22A1,1,0,0,0,8,64h7a1,1,0,0,0,.895-.553l3.556-7.113a15.45,15.45,0,0,1-1.325,6.181A1,1,0,0,0,19,64h4a1,1,0,0,0,0-2H20.512a18.536,18.536,0,0,0,.912-6.692,9.31,9.31,0,0,0,9.91-.6,1.164,1.164,0,0,1,1.332,0,9.318,9.318,0,0,0,9.91.6A18.536,18.536,0,0,0,43.488,62H26a1,1,0,0,0,0,2H45a1,1,0,0,0,.874-1.485,15.45,15.45,0,0,1-1.325-6.181l3.556,7.113A1,1,0,0,0,49,64h7a1,1,0,0,0,.965-1.263ZM45,25a1,1,0,1,1,1,1A1,1,0,0,1,45,25Zm1.844,6.982-.667-4a2.965,2.965,0,0,0,1.717-.675l2.778,2.779A5.718,5.718,0,0,1,46.844,31.982ZM45.7,20.406A3.234,3.234,0,0,1,42.574,23,10.95,10.95,0,0,0,43,20V15a3.037,3.037,0,0,0,.4-.04L45.3,18.113A3.218,3.218,0,0,1,45.7,20.406ZM30,2h4a8.014,8.014,0,0,1,7.938,7H22.062A8.014,8.014,0,0,1,30,2Zm-9,9H43a1,1,0,0,1,0,2H21a1,1,0,0,1,0-2Zm11.874,4C32.4,16.025,30.536,17,28,17s-4.4-.975-4.874-2ZM18,26a1,1,0,1,1,1-1A1,1,0,0,1,18,26Zm-.844,5.982a5.717,5.717,0,0,1-3.828-1.895l2.779-2.779a2.967,2.967,0,0,0,1.716.674ZM21.326,23a3.1,3.1,0,0,1-1.642-.481l-.016-.01a3.109,3.109,0,0,1-1.039-4.232l1.982-3.316A2.946,2.946,0,0,0,21,15v5a10.966,10.966,0,0,0,.426,3ZM23,20V17.677A9.275,9.275,0,0,0,28,19c3.663,0,6.583-1.721,6.957-4H41v5a9,9,0,0,1-18,0Zm3.855,14.449L29.2,33.98A1,1,0,0,0,30,33V30.809a10.567,10.567,0,0,0,4,0V33a1,1,0,0,0,.8.98l2.342.469a21.2,21.2,0,0,1,11.2,6.19,13.436,13.436,0,0,1-10.114-.2l-.834-.357a.991.991,0,0,0-.909.062,8.7,8.7,0,0,1-8.97,0,1,1,0,0,0-.962-.038,13.436,13.436,0,0,1-10.877.516A21.2,21.2,0,0,1,26.855,34.449ZM49.618,62,44.9,52.553h0a.993.993,0,0,0-1.6-.261,7.327,7.327,0,0,1-9.465.784,3.145,3.145,0,0,0-3.656,0,7.328,7.328,0,0,1-9.465-.784.993.993,0,0,0-1.6.261h0L14.382,62H9.309l5.357-19.641a15.418,15.418,0,0,0,12.295-.232,10.693,10.693,0,0,0,10.1-.013l.378.162a15.285,15.285,0,0,0,11.9.095L54.691,62Z"/><path d="M11,14.244V21a1,1,0,0,0,1.555.832l3-2a1,1,0,0,0-1.11-1.664L13,19.132V15.02q.831.294,1.707.563c.429.132.865.26,1.308.381a1.02,1.02,0,0,0,.266.036,1,1,0,0,0,.264-1.964q-.636-.175-1.252-.365C6.97,11.113,2,6.938,2,2.5a1,1,0,0,0-2,0A9.557,9.557,0,0,0,2.942,9.062l-1.9,6.664A1,1,0,0,0,2,17a1.016,1.016,0,0,0,.351-.063l7.964-2.987C10.54,14.05,10.769,14.147,11,14.244Zm-7.494.123,1.087-3.8a23.006,23.006,0,0,0,3.269,2.169Z"/><path d="M61.156,8.959a9.574,9.574,0,0,0,2.8-6.682,1.019,1.019,0,0,0-1.027-.972,1,1,0,0,0-.972,1.027C62.075,6.7,57.1,11.118,48.97,13.86q-.61.207-1.242.4a1,1,0,1,0,.586,1.912c.439-.135.872-.274,1.3-.417.52-.175,1.024-.359,1.518-.546v3.923l-1.445-.964a1,1,0,1,0-1.109,1.664l3,2A1,1,0,0,0,53.128,21V14.385c.281-.125.555-.253.826-.382l7.823,2.934a1.02,1.02,0,0,0,.351.063,1,1,0,0,0,.962-1.274Zm-4.838,3.794a23.115,23.115,0,0,0,3.2-2.236l1.1,3.85Z"/><path d="M35,22a1,1,0,0,0,1-1V20a1,1,0,0,0-2,0v1A1,1,0,0,0,35,22Z"/><path d="M29,19a1,1,0,0,0-1,1v1a1,1,0,0,0,2,0V20A1,1,0,0,0,29,19Z"/></g></svg>